<svg version="1" xmlns="http://www.w3.org/2000/svg" width="1066.667" height="1066.667" viewBox="0 0 800.000000 800.000000"><path d="M390.1 1.6c-2.4.9-5.1 2.2-5.8 3-.8.8-1.8 1.4-2.3 1.4-2.9 0-9 9.2-17.5 26-9.9 19.9-73.7 146.7-120.6 239.8-15.9 31.6-28.9 57.5-28.9 57.7 0 .2 3.7 2.2 8.2 4.5 4.6 2.4 10.6 5.5 13.3 7 6.5 3.5 21.2 11.3 35 18.5 18.5 9.6 33.4 17.5 45.5 23.9 6.3 3.4 12.6 6.7 14 7.4 1.4.7 6.1 3.1 10.5 5.5 4.4 2.3 14.3 7.6 22 11.6 7.7 4.1 15.8 8.4 18 9.6 2.2 1.2 10.7 5.7 18.9 10 8.3 4.3 16.8 8.8 19 10 2.3 1.2 10.9 5.7 19.1 10 8.3 4.4 17.7 9.3 21 11.1l5.9 3.2 2.9-5.1c1.6-2.9 5.3-9.9 8.4-15.7 8-15.1 13.7-25.9 20.8-39 3.4-6.3 8.4-15.6 11-20.5 5.5-10.3 19.2-36.2 24-45 1.8-3.3 5.8-11 9.1-17 3.2-6.1 8-15.1 10.6-20 2.7-5 6-11.3 7.5-14.1l2.5-5.1-43-85.4c-23.6-47-53.7-106.7-66.8-132.7-15.7-31.3-25.1-48.8-27.6-51.7-7.9-9-23.4-12.9-34.7-8.9zm201.6 340.1c-.7 1.2-10.7 19.7-18.6 34.5-7.7 14.7-20.4 38.5-23.6 44.3-1.8 3.3-6 11.4-9.5 18s-6.6 12.4-7 13c-.4.5-3.6 6.4-7 13-3.5 6.6-7.6 14.3-9.1 17.1-2.2 4-2.6 5.4-1.6 6.2.6.5 6.2 3.5 12.2 6.7 23 12.1 26 13.7 27 14.6.5.5 1.5.9 2.2.9.7 0 3 1 5.1 2.3 2 1.3 11.4 6.3 20.7 11.2 9.4 4.8 18.4 9.5 20 10.5 1.7 1 8.9 4.8 16 8.5 12.4 6.5 20.3 10.6 38 20 4.4 2.3 13 6.8 19 10 6.1 3.2 14.2 7.4 18 9.5 3.9 2 11.3 6 16.7 8.9 5.3 2.8 9.9 5.1 10.2 5.1.3 0-19.3-39.5-43.5-87.8-24.3-48.2-53.1-105.4-64-127.1-10.9-21.6-20-39.6-20.3-39.8-.2-.2-.6-.1-.9.4zM145 468.3c-24.9 49.6-59.4 118.1-76.6 152.2C6.2 743.9 3.2 750.2 1.8 757.6c-2 10.5-1.6 21.1 1 26 2.8 5.5 8.7 11.3 14.2 13.8 4.5 2.1 4.7 2.1 136.4 2.1h131.9l1.7-3c.9-1.7 4.3-8 7.5-14 3.2-6.1 7-13.3 8.5-16 1.5-2.8 5.4-10 8.6-16 3.2-6.1 7.1-13.3 8.6-16 1.5-2.8 3.8-7.3 5.2-10 2.4-4.7 5.2-9.9 17-32 2.7-5 6.7-12.4 8.9-16.5s5.2-9.8 6.7-12.5c1.5-2.8 5.8-10.9 9.5-18 3.7-7.2 7.1-13.5 7.5-14 .4-.6 3.1-5.5 6-11s7.2-13.6 9.5-18c5.4-10.3 11.4-21.5 15.2-28.5 3-5.6 8.6-16 16.3-30.5 9.8-18.4 13.4-25.2 15.6-29.2 2.7-4.9 3.3-4.3-9.6-10.8-5.2-2.6-9.9-5.1-10.5-5.5-.5-.4-8.2-4.4-17-9-8.8-4.5-18.2-9.5-21-11-2.7-1.5-10.4-5.5-17-9s-15.1-8-19-10c-3.8-2.1-11.5-6.1-17-9-12.7-6.7-25.7-13.5-36.5-19.2-4.7-2.5-13-6.9-18.5-9.8-18.9-9.9-31-16.3-38-20-3.8-2-11.3-6-16.5-8.7-5.2-2.8-13.4-7.1-18.1-9.6l-8.5-4.5-45.4 90.1zm341.5 70.5c-2.3 4.3-9.5 17.6-15.2 28.2-2.2 4.1-6.6 12.4-9.8 18.5-3.2 6-7 13.2-8.5 16-1.5 2.7-5.1 9.5-8 15-3 5.5-6.8 12.7-8.6 16-1.8 3.3-5.6 10.5-8.4 16-2.9 5.5-5.6 10.4-6 11-.4.5-3.7 6.7-7.3 13.6-3.6 6.9-7.4 14.1-8.5 16-1.1 1.9-4.8 8.8-8.3 15.4-3.5 6.6-7.7 14.5-9.4 17.7-1.6 3.1-4.4 8.2-6.1 11.5-1.7 3.2-4.9 9.2-7.1 13.3-2.2 4.1-6.6 12.4-9.8 18.5-3.2 6-6.6 12.3-7.5 14-1 1.6-3.8 6.9-6.4 11.7L347 800h420.9l5.6-2.1c4.3-1.6 7.3-3.8 13.1-9.7 10.3-10.6 12.9-16.1 12.9-27.4v-8.7l-18-35.7c-16.1-32.1-18.4-36-21.5-37.7-1.9-1.1-7.8-4.2-13-6.9-5.2-2.8-13.5-7.2-18.5-9.8-4.9-2.6-13.5-7.1-19-10-5.5-2.9-13.7-7.2-18.2-9.6-22.9-12.1-35-18.5-55.8-29.4-6.6-3.4-14.7-7.7-18-9.5-3.3-1.8-10.5-5.6-16-8.5-5.5-2.9-14.2-7.4-19.2-10.1-5.1-2.7-13.6-7.2-18.8-9.9-19.1-10-29.2-15.4-36-19-3.8-2.1-12.8-6.8-20-10.5-7.1-3.7-14.4-7.6-16-8.6l-3.1-1.8-1.9 3.7z"/></svg>