<svg version="1" xmlns="http://www.w3.org/2000/svg" width="1666.667" height="1666.667" viewBox="0 0 1250.000000 1250.000000"><path d="M243.8 304.5c-.2.1-4.6.5-9.8.9-62.3 4.4-132.5 31.8-173.9 68-27.9 24.3-48.7 55.8-55.7 84.1-.4 1.6-.8 3.4-1 4-2.4 9.8-3.2 19.2-3 36 .3 18.7 1.8 28 6.8 43 9.6 28.7 30.3 56.5 53.5 71.8 20.1 13.4 43.6 23.7 83.8 36.9 68 22.4 190.9 62.9 216.3 71.4 31.1 10.3 34.4 12 38.1 20 1.7 3.6 2.2 6.2 2 12.1-.3 13-6.3 21.9-24.5 36.3-6.2 5-24.5 17-25.8 17-.2 0-3.7 1.5-7.8 3.4-18.4 8.4-37.4 13.3-59.2 15.4-10.2.9-35.9.9-45.1-.1-11.9-1.3-14.6-1.7-27.2-4.7-34.2-8.2-63.2-24.4-90.8-50.8-15.1-14.5-30.3-27.1-35.7-29.5-16.8-7.7-41.2-5.6-56.4 4.8-11.6 8-20.5 20.6-23.9 34-3.7 14.4-.9 34.5 6.6 47.1 4.6 7.9 34 37.3 49.9 50 11.7 9.3 29.6 22 36.5 25.8 1.7.9 5.3 3 8 4.6 2.8 1.6 9.3 5 14.5 7.6 5.2 2.5 10.3 5 11.3 5.5 6.1 3.3 39 14.8 46.4 16.4 1 .2 5.6 1.3 10.4 2.4 4.7 1.1 10.7 2.3 13.5 2.7 2.7.3 5.1.8 5.4.9.3.2 3.3.7 6.5 1 3.3.4 6.9.9 8 1.1 11.7 2.4 64.8 2.4 78.5 0 1.4-.3 4.3-.7 6.5-1 4.6-.6 16.1-2.4 19-3 33.9-7.2 57.6-15.2 84-28.6 50.4-25.5 87.4-63 103.5-104.6 1.5-4.1 2.6-7.4 2.4-7.4-.3 0 0-.8.5-1.8 1.2-2.2 4-15.8 4.9-23.7.4-3.3.6-12.8.5-21-.2-22.1-4.2-39.7-13.3-59-3.8-8-13.7-23.7-17.9-28.5-1.3-1.4-4.1-4.7-6.4-7.5-6.4-7.6-12.5-13.1-20.7-18.7-9.2-6.3-31.7-17.9-46.5-24-12.5-5.2-11-4.7-92-31.3-33-10.9-70.1-23.1-82.5-27.2-12.4-4-41.8-13.7-65.5-21.5-23.6-7.8-44.6-15.2-46.6-16.5-7-4.6-9.9-11.4-9.2-22.2.7-12.8 4.9-19.2 21.8-33.4 12.3-10.3 28.8-19.8 45.4-26.2 9-3.4 25.7-8 32.6-9 2.3-.3 5.1-.7 6.4-1 15.2-2.9 50.6-2.6 70.1.5 20.6 3.4 51.1 14.2 62 22 1.7 1.2 3 1.9 3 1.6 0-.8 15.2 9.8 23.5 16.3 3.8 3 11.4 9.9 17 15.2 14.3 13.8 27.3 24.7 32.6 27.4 20.4 10.4 48.8 6 65.4-10.2 7.6-7.4 8.5-8.5 12.3-16.4 8.2-16.7 8-37.7-.3-54.7-3.3-6.5-6-9.8-20.9-24.7-9.4-9.4-20.2-19.7-24.1-22.9-3.8-3.2-7.9-6.5-9-7.5-1.1-.9-3.6-2.7-5.5-4.1-1.9-1.3-4.1-3-4.9-3.8-.7-.7-7-5-14-9.6-23.3-15.4-43.8-25.6-68.1-34.1-9.1-3.1-25.9-8-31.1-9-1.1-.2-2.8-.6-3.7-.9-2.4-.7-23.7-4.3-29.7-5-2.7-.3-7.2-.9-10-1.2-5-.6-47.1-1.4-47.7-.9zm665.2.2c-7.4.6-26.2 2.5-28.3 2.8-1.2.2-5.3.9-9.2 1.5-24.6 3.9-53.9 13-77.3 24.1-4.6 2.1-8.5 3.9-8.7 3.9-.5 0-19.3 10.8-26 15-7 4.4-27.7 19.3-30.5 22.1-.8.8-3.8 3.2-6.5 5.4-10.5 8.4-34.3 33-46.8 48.4-25.7 31.7-48.6 77.8-57.3 115.1-1.6 7.2-5.3 25.2-5.8 28-2 14.1-2.4 18.3-3.3 31-1.1 17.9-.5 50.1 1.1 60 .3 1.4.7 4.9 1 7.8 4.5 39.8 19.9 84.1 41.7 119.9 4 6.5 13.8 21.2 14.9 22.3.3.3 2.7 3.4 5.4 7 12.4 16.3 32.8 37.4 53.2 55 10 8.6 35.4 26.2 47.9 33 6.8 3.8 23.3 12 24 12 .2 0 3.3 1.3 6.7 2.9 14.8 6.7 44.7 15.5 63.7 18.7 1.8.3 4.3.7 5.5 1 1.1.2 4.5.6 7.4 1 2.9.3 6.3.7 7.5 1 13.1 2.5 60.7 2.5 80.7-.2 4.4-.6 16.9-2.5 19.5-3 1.1-.2 3.4-.7 5-1 22.9-4.1 56.1-15.9 80.3-28.5 18.4-9.6 39.7-23.2 50.5-32.1l4.7-4 .1 3.9c.2 12 .8 18.5 2.3 23.8 5.1 17.5 19.5 33.1 36.7 39.6 7 2.7 11.7 3.4 22.9 3.3 15.7-.1 28.5-5.4 39.9-16.6 7.2-7 12.7-15.7 15.4-24.3l2.2-7v-148c0-81.4-.3-151.4-.7-155.5-.7-7.6-1.3-13.3-2.3-20.5-.7-5.4-3.5-19.9-5-25.5 0-.3-.7-3-1.4-6-1.5-6.3-7.7-26-9.6-30.5-.7-1.7-2.5-6.2-4-10-4.7-11.8-16.1-33.7-24-46-6.4-10-20.5-29.5-24-33.1-.5-.6-3.7-4.2-7-8-32.5-37.3-75.9-68.6-122-87.9-18.1-7.5-52.6-16.7-72-19-2.7-.3-6.3-.8-8-1-10.6-1.4-17.3-1.7-36-1.9-11.5-.1-22.6 0-24.5.1zm51.2 121.7c5.4.9 10.3 1.8 11 2.1.7.2 2.4.7 3.8.9 20.5 3.8 52 18.5 73 34 43.5 32.1 74.4 84.2 80.5 136.1.4 2.7.8 6.3 1.1 8 .5 3.9.5 31.2 0 34.5-.3 1.4-.7 4.9-1 7.8-2.5 21.9-7.5 38.7-18.6 61.7-28.9 59.7-82.3 99.9-148.5 111.9-14.8 2.7-46 2.8-63.5.1-31.8-4.7-66.1-19.7-92.5-40.4-23.5-18.4-42.7-42.4-56.5-70.6-10-20.6-15.3-37.5-18.5-59.5-2.4-16-2.4-45.2 0-56.5.3-1.1.7-3.6 1-5.5 4.5-30.9 21.9-68.5 44.1-95.1 22.7-27.2 55.8-49.9 89.7-61.3 12.3-4.2 30.5-8.2 40.7-9.1 4.1-.4 7.6-.8 7.8-1 1-.9 38.3.6 46.4 1.9z"/></svg>