<svg xmlns="http://www.w3.org/2000/svg" width="400" height="1600"><title>icons-nav</title><path fill="none" d="M0 0h400v1600H0z"/><path d="M75 1255.38v-10.77h-4.66a20.77 20.77 0 0 0-2.13-5.21l3.29-3.29-7.61-7.61-3.29 3.29a21 21 0 0 0-5.22-2.13V1225H44.62v4.66a21 21 0 0 0-5.22 2.13l-3.29-3.29-7.61 7.61 3.29 3.29a20.77 20.77 0 0 0-2.13 5.21H25v10.77h4.66a21 21 0 0 0 2.13 5.22l-3.29 3.29 7.61 7.61 3.29-3.3a20.5 20.5 0 0 0 5.22 2.14v4.66h10.76v-4.66a20.5 20.5 0 0 0 5.22-2.14l3.29 3.3 7.61-7.61-3.29-3.29a21 21 0 0 0 2.13-5.22zm-25 8A13.34 13.34 0 1 1 63.33 1250 13.34 13.34 0 0 1 50 1263.38z" fill="#fff"/><path d="M175 1255.38v-10.77h-4.66a20.77 20.77 0 0 0-2.13-5.21l3.29-3.29-7.61-7.61-3.29 3.29a21 21 0 0 0-5.22-2.13V1225h-10.76v4.66a21 21 0 0 0-5.22 2.13l-3.29-3.29-7.61 7.61 3.29 3.29a20.77 20.77 0 0 0-2.13 5.21H125v10.77h4.66a21 21 0 0 0 2.13 5.22l-3.29 3.29 7.61 7.61 3.29-3.3a20.5 20.5 0 0 0 5.22 2.14v4.66h10.76v-4.66a20.5 20.5 0 0 0 5.22-2.14l3.29 3.3 7.61-7.61-3.29-3.29a21 21 0 0 0 2.13-5.22zm-25 8a13.34 13.34 0 1 1 13.33-13.38 13.34 13.34 0 0 1-13.33 13.38z" fill="#191919"/><path d="M275 1255.38v-10.77h-4.66a20.77 20.77 0 0 0-2.13-5.21l3.29-3.29-7.61-7.61-3.29 3.29a21 21 0 0 0-5.22-2.13V1225h-10.76v4.66a21 21 0 0 0-5.22 2.13l-3.29-3.29-7.61 7.61 3.29 3.29a20.77 20.77 0 0 0-2.13 5.21H225v10.77h4.66a21 21 0 0 0 2.13 5.22l-3.29 3.29 7.61 7.61 3.29-3.3a20.5 20.5 0 0 0 5.22 2.14v4.66h10.76v-4.66a20.5 20.5 0 0 0 5.22-2.14l3.29 3.3 7.61-7.61-3.29-3.29a21 21 0 0 0 2.13-5.22zm-25 8a13.34 13.34 0 1 1 13.33-13.38 13.34 13.34 0 0 1-13.33 13.38z" fill="#32e14b"/><path d="M375 1255.38v-10.77h-4.66a20.77 20.77 0 0 0-2.13-5.21l3.29-3.29-7.61-7.61-3.29 3.29a21 21 0 0 0-5.22-2.13V1225h-10.76v4.66a21 21 0 0 0-5.22 2.13l-3.29-3.29-7.61 7.61 3.29 3.29a20.77 20.77 0 0 0-2.13 5.21H325v10.77h4.66a21 21 0 0 0 2.13 5.22l-3.29 3.29 7.61 7.61 3.29-3.3a20.5 20.5 0 0 0 5.22 2.14v4.66h10.76v-4.66a20.5 20.5 0 0 0 5.22-2.14l3.29 3.3 7.61-7.61-3.29-3.29a21 21 0 0 0 2.13-5.22zm-25 8a13.34 13.34 0 1 1 13.33-13.38 13.34 13.34 0 0 1-13.33 13.38zm22.65-207.83a25 25 0 0 0-33.2-33.21 25 25 0 1 0 33.2 33.2zm-27.86 2.39a13.95 13.95 0 1 1 15.13-22.86 13.74 13.74 0 0 1 3.08 4.65 14 14 0 0 1-18.24 18.27z" fill="#6400fa"/><path d="M367.67 1062.66a25.61 25.61 0 0 1-7.11 5 36.36 36.36 0 0 0-5.33-9.69 14 14 0 0 0 7.75-7.75 37 37 0 0 0 9.68 5.33 25.23 25.23 0 0 1-4.99 7.11zm-27.53-27.52a13.94 13.94 0 0 0-3.08 4.65 36.61 36.61 0 0 0-9.69-5.32 24.88 24.88 0 0 1 5-7.1 25.3 25.3 0 0 1 7.11-5 36.8 36.8 0 0 0 5.33 9.69 13.8 13.8 0 0 0-4.67 3.08zm-.71 32.52a25.56 25.56 0 0 1-7.1-5 24.74 24.74 0 0 1-5-7.12 36.84 36.84 0 0 0 9.68-5.32 14.07 14.07 0 0 0 7.74 7.74 36.7 36.7 0 0 0-5.32 9.7zm33.23-33.23a36.36 36.36 0 0 0-9.69 5.33 13.84 13.84 0 0 0-3.11-4.63 14.16 14.16 0 0 0-4.66-3.09 36.56 36.56 0 0 0 5.32-9.68 25.33 25.33 0 0 1 12.11 12.1z" fill="#32007d"/><path d="M267.67 1027.32a25 25 0 1 0 0 35.34 25 25 0 0 0 0-35.34zm-27.56 27.56a14 14 0 1 1 19.73 0 13.95 13.95 0 0 1-19.73 0z" fill="#199619"/><path d="M272.65 1055.55a25 25 0 0 0-33.21-33.21 25 25 0 1 0 33.2 33.2zm-27.86 2.39a13.95 13.95 0 0 1 10.78-25.73 13.57 13.57 0 0 1 7.43 7.52 14 14 0 0 1 0 10.52 13.88 13.88 0 0 1-7.74 7.74 14 14 0 0 1-10.49 0z" fill="#32e14b"/><path d="M267.67 1062.66a25.41 25.41 0 0 1-7.11 5 36.36 36.36 0 0 0-5.33-9.69 14 14 0 0 0 7.75-7.75 37 37 0 0 0 9.68 5.33 25.23 25.23 0 0 1-4.99 7.11zm-27.53-27.52a13.94 13.94 0 0 0-3.08 4.65 36.61 36.61 0 0 0-9.69-5.32 24.88 24.88 0 0 1 5-7.1 25.3 25.3 0 0 1 7.11-5 36.64 36.64 0 0 0 5.33 9.69 14 14 0 0 0-4.67 3.08zm-.71 32.52a25.42 25.42 0 0 1-7.1-5 24.74 24.74 0 0 1-5-7.12 36.84 36.84 0 0 0 9.68-5.32 14.07 14.07 0 0 0 7.74 7.74 36.7 36.7 0 0 0-5.32 9.7zm33.23-33.23a36.7 36.7 0 0 0-9.7 5.33 13.66 13.66 0 0 0-3.1-4.63 14.1 14.1 0 0 0-4.67-3.09 36.59 36.59 0 0 0 5.33-9.68 25.31 25.31 0 0 1 12.1 12.1z" fill="#199619"/><path d="M173.49 1036.44a25 25 0 0 0-47 0 25 25 0 1 0 46.92 0zm-18 21.39A13.95 13.95 0 0 1 144.9 1032a14.16 14.16 0 0 1 5.1-1 14 14 0 0 1 12.91 19.51 14 14 0 0 1-7.44 7.39z" fill="#191919"/><path d="M175 1045a25.49 25.49 0 0 1-1.49 8.56 36.17 36.17 0 0 0-10.63-3.09 13.91 13.91 0 0 0 0-11 36.39 36.39 0 0 0 10.62-3.08 25.07 25.07 0 0 1 1.5 8.61zm-38.94 0a14.07 14.07 0 0 0 1.11 5.47 36.29 36.29 0 0 0-10.62 3.09 25 25 0 0 1-1.48-8.56 25.53 25.53 0 0 1 1.48-8.57 36.57 36.57 0 0 0 10.62 3.08 14.17 14.17 0 0 0-1.11 5.49zm22.5 23.49A25.2 25.2 0 0 1 150 1070a24.51 24.51 0 0 1-8.56-1.51 37 37 0 0 0 3.08-10.6 14.06 14.06 0 0 0 10.95 0 36.72 36.72 0 0 0 3.09 10.6zm0-46.99a36.88 36.88 0 0 0-3.09 10.63 13.69 13.69 0 0 0-5.47-1.08 14.12 14.12 0 0 0-5.48 1.11 36.73 36.73 0 0 0-3.08-10.61 25.29 25.29 0 0 1 17.12 0z" fill="#646464"/><path d="M50 1020a25 25 0 1 0 25 25 25 25 0 0 0-25-25zm0 39a14 14 0 1 1 13.94-14A14 14 0 0 1 50 1059z" fill="#fff"/><path d="M73.48 1036.44a25 25 0 0 0-47 0 25 25 0 1 0 47 0zm-18 21.39a13.95 13.95 0 1 1-5.48-26.78 13.71 13.71 0 0 1 5.46 1.11 13.91 13.91 0 0 1 0 25.71z" fill="#969696"/><path d="M75 1045a25.24 25.24 0 0 1-1.49 8.56 36.11 36.11 0 0 0-10.62-3.09 14 14 0 0 0 0-11 36.57 36.57 0 0 0 10.62-3.08A25.3 25.3 0 0 1 75 1045zm-38.95 0a13.9 13.9 0 0 0 1.12 5.47 36.11 36.11 0 0 0-10.62 3.09 25 25 0 0 1-1.48-8.56 25.53 25.53 0 0 1 1.48-8.57 36.57 36.57 0 0 0 10.62 3.08 14 14 0 0 0-1.12 5.49zm22.5 23.49A25.23 25.23 0 0 1 50 1070a24.6 24.6 0 0 1-8.57-1.51 37 37 0 0 0 3.08-10.6 14.06 14.06 0 0 0 11 0 36.72 36.72 0 0 0 3.04 10.6zm0-46.98a36.72 36.72 0 0 0-3.09 10.62 13.68 13.68 0 0 0-5.46-1.08 14 14 0 0 0-5.49 1.12 36.48 36.48 0 0 0-3.08-10.62 25.29 25.29 0 0 1 17.12 0zm24.76 135.62v-6.35a2.87 2.87 0 0 0-2.93-2.82H27.69a2.87 2.87 0 0 0-2.93 2.82v7.32a2.87 2.87 0 0 0 2.93 2.82h51.74l5.57 1.58z" fill="#fff"/><path d="M16.64 1136.67v-6.35a2.87 2.87 0 0 1 2.92-2.82h52.7a2.87 2.87 0 0 1 2.93 2.82v7.32a2.87 2.87 0 0 1-2.93 2.82H20.57L15 1142z" fill="#969696"/><path d="M283.36 1157.13v-6.35a2.87 2.87 0 0 0-2.93-2.82H227.7a2.87 2.87 0 0 0-2.93 2.8v7.34a2.88 2.88 0 0 0 2.91 2.82h51.74l5.58 1.58z" fill="#32e14b"/><path d="M216.64 1136.67v-6.35a2.87 2.87 0 0 1 2.93-2.82h52.73a2.87 2.87 0 0 1 2.93 2.8v7.34a2.88 2.88 0 0 1-2.91 2.82h-51.74L215 1142z" fill="#199619"/><path d="M383.36 1157.13v-6.35a2.87 2.87 0 0 0-2.93-2.82H327.7a2.87 2.87 0 0 0-2.93 2.8v7.34a2.88 2.88 0 0 0 2.91 2.82h51.74l5.58 1.58z" fill="#6400fa"/><path d="M316.64 1136.67v-6.35a2.87 2.87 0 0 1 2.93-2.82h52.73a2.87 2.87 0 0 1 2.93 2.8v7.34a2.88 2.88 0 0 1-2.91 2.82h-51.74L315 1142z" fill="#32007d"/><path d="M183.36 1157.13v-6.35a2.87 2.87 0 0 0-2.93-2.82H127.7a2.87 2.87 0 0 0-2.93 2.8v7.34a2.88 2.88 0 0 0 2.91 2.82h51.74l5.58 1.58z" fill="#646464"/><path d="M116.64 1136.67v-6.35a2.87 2.87 0 0 1 2.93-2.82h52.73a2.87 2.87 0 0 1 2.93 2.8v7.34a2.88 2.88 0 0 1-2.91 2.82h-51.74L115 1142z" fill="#191919"/><path d="M60.56 657.56h-20a1.9 1.9 0 0 0-1.88 1.92v6.58A1.93 1.93 0 0 0 40.6 668h20a1.91 1.91 0 0 0 1.87-1.93v-6.58a1.9 1.9 0 0 0-1.91-1.93z" fill="#afafaf"/><path d="M60.56 657.56h-10V668h10a1.91 1.91 0 0 0 1.87-1.93v-6.58a1.9 1.9 0 0 0-1.87-1.93z" fill="#969696"/><path d="M71.78 633.06H29.37A1.91 1.91 0 0 0 27.5 635v12.89a13.36 13.36 0 0 0 13.1 13.55h20a13.36 13.36 0 0 0 13.1-13.55V635a1.93 1.93 0 0 0-1.92-1.94z" fill="#fff"/><path d="M75.65 649.82h-3.87a1.91 1.91 0 0 1-1.87-1.94v-10.33a1.91 1.91 0 0 1 1.87-1.94h3.87a7.1 7.1 0 0 1 0 14.19zm-2-3.87h2a3.16 3.16 0 0 0 3.32-3 3.2 3.2 0 0 0-2.92-3.43h-2.4z" fill="#969696"/><path d="M71.78 633.06h-21.2v28.37h10a13.36 13.36 0 0 0 13.1-13.55V635a1.9 1.9 0 0 0-1.89-1.93z" fill="#afafaf"/><path d="M43.82 625.19a9.26 9.26 0 0 1 1.82-11.8 5.28 5.28 0 0 0 .67-7.24 4.85 4.85 0 0 0-.67-.69 2 2 0 0 1-.28-2.74 1.85 1.85 0 0 1 2.65-.29 9.26 9.26 0 0 1 1.2 12.72 10 10 0 0 1-1.2 1.24 5.28 5.28 0 0 0-1 6.75 2 2 0 0 1-.62 2.66 1.84 1.84 0 0 1-2.55-.6zm9.98 0a9.24 9.24 0 0 1 1.83-11.8 1.84 1.84 0 0 1 2.62.45 2 2 0 0 1-.24 2.55 5.28 5.28 0 0 0-1 6.75 2 2 0 0 1-.82 2.6 1.83 1.83 0 0 1-2.32-.54h-.07z" fill="#fff"/><path d="M260.56 657.55h-20a1.91 1.91 0 0 0-1.88 1.93v6.58a1.93 1.93 0 0 0 1.88 1.93h20a1.91 1.91 0 0 0 1.87-1.93v-6.58a1.91 1.91 0 0 0-1.87-1.94z" fill="#19c819"/><path d="M260.56 657.55h-10V668h10a1.91 1.91 0 0 0 1.87-1.93v-6.58a1.91 1.91 0 0 0-1.87-1.94z" fill="#199619"/><path d="M271.78 633h-42.41a1.91 1.91 0 0 0-1.87 2v12.89a13.35 13.35 0 0 0 13.1 13.55h20a13.35 13.35 0 0 0 13.1-13.55V635a1.91 1.91 0 0 0-1.89-1.94z" fill="#32e14b"/><path d="M275.65 649.81h-3.87a1.91 1.91 0 0 1-1.87-1.94v-10.34a1.9 1.9 0 0 1 1.87-1.93h3.87a7.1 7.1 0 0 1 0 14.19zm-2-3.87h2a3.16 3.16 0 0 0 3.32-3 3.2 3.2 0 0 0-2.92-3.43h-2.4z" fill="#199619"/><path d="M271.78 633h-21.2v28.38h10a13.35 13.35 0 0 0 13.1-13.55V635a1.91 1.91 0 0 0-1.89-1.94z" fill="#19c819"/><path d="M243.82 625.17a9.27 9.27 0 0 1 1.82-11.81 5.28 5.28 0 0 0 .67-7.24 4.85 4.85 0 0 0-.67-.69 2 2 0 0 1-.25-2.72 1.83 1.83 0 0 1 2.64-.27 9.25 9.25 0 0 1 1.2 12.71 9.79 9.79 0 0 1-1.21 1.2 5.3 5.3 0 0 0-1 6.76 2 2 0 0 1-.62 2.66 1.84 1.84 0 0 1-2.55-.6zm9.98 0a9.25 9.25 0 0 1 1.83-11.81 1.84 1.84 0 0 1 2.62.45 2 2 0 0 1-.24 2.55 5.29 5.29 0 0 0-1.05 6.76 2 2 0 0 1-.61 2.66 1.84 1.84 0 0 1-2.55-.6z" fill="#32e14b"/><path d="M360.56 657.55h-20a1.91 1.91 0 0 0-1.88 1.93v6.58a1.93 1.93 0 0 0 1.92 1.94h20a1.91 1.91 0 0 0 1.87-1.93v-6.58a1.91 1.91 0 0 0-1.87-1.94z" fill="#4b00c8"/><path d="M360.56 657.55h-10V668h10a1.91 1.91 0 0 0 1.87-1.93v-6.58a1.91 1.91 0 0 0-1.87-1.94z" fill="#32007d"/><path d="M371.78 633h-42.41a1.91 1.91 0 0 0-1.87 2v12.89a13.35 13.35 0 0 0 13.1 13.55h20a13.35 13.35 0 0 0 13.1-13.55V635a1.93 1.93 0 0 0-1.92-2z" fill="#6400fa"/><path d="M375.65 649.81h-3.87a1.91 1.91 0 0 1-1.87-1.94v-10.34a1.9 1.9 0 0 1 1.87-1.93h3.87a7.1 7.1 0 0 1 0 14.19zm-2-3.87h2a3.16 3.16 0 0 0 3.32-3 3.2 3.2 0 0 0-2.92-3.43h-2.4z" fill="#32007d"/><path d="M371.78 633h-21.2v28.38h10a13.35 13.35 0 0 0 13.1-13.55V635a1.91 1.91 0 0 0-1.89-1.94z" fill="#3200af"/><path d="M343.82 625.17a9.27 9.27 0 0 1 1.82-11.81 5.28 5.28 0 0 0 .67-7.24 4.85 4.85 0 0 0-.67-.69 2 2 0 0 1-.25-2.72 1.83 1.83 0 0 1 2.64-.27 9.25 9.25 0 0 1 1.2 12.71 9.79 9.79 0 0 1-1.21 1.2 5.3 5.3 0 0 0-1 6.76 2 2 0 0 1-.33 2.71 1.82 1.82 0 0 1-2.62-.33 2.14 2.14 0 0 1-.2-.32zm9.98 0a9.25 9.25 0 0 1 1.83-11.81 1.84 1.84 0 0 1 2.62.45 2 2 0 0 1-.24 2.55 5.29 5.29 0 0 0-1.05 6.76 2 2 0 0 1-.61 2.66 1.84 1.84 0 0 1-2.55-.6z" fill="#6400fa"/><path d="M160.72 657.55h-18.31a1.84 1.84 0 0 0-1.71 1.93V666a1.85 1.85 0 0 0 1.71 1.94h18.31a1.84 1.84 0 0 0 1.71-1.94v-6.55a1.84 1.84 0 0 0-1.71-1.9z" fill="#323232"/><path d="M160.56 657.55h-10V668h10a1.91 1.91 0 0 0 1.87-1.93v-6.58a1.91 1.91 0 0 0-1.87-1.94z" fill="#191919"/><path d="M171.78 633h-42.41a1.91 1.91 0 0 0-1.87 2v12.89a13.35 13.35 0 0 0 13.1 13.55h20a13.35 13.35 0 0 0 13.1-13.55V635a1.91 1.91 0 0 0-1.89-1.94z" fill="#646464"/><path d="M175.65 649.81h-3.87a1.91 1.91 0 0 1-1.87-1.94v-10.34a1.9 1.9 0 0 1 1.87-1.93h3.87a7.1 7.1 0 0 1 0 14.19zm-2-3.87h2a3.16 3.16 0 0 0 3.32-3 3.2 3.2 0 0 0-2.92-3.43h-2.4z"/><path d="M171.78 633h-21.2v28.38h10a13.35 13.35 0 0 0 13.1-13.55V635a1.91 1.91 0 0 0-1.89-1.94z" fill="#191919"/><path d="M143.82 625.17a9.27 9.27 0 0 1 1.82-11.81 5.28 5.28 0 0 0 .67-7.24 4.85 4.85 0 0 0-.67-.69 2 2 0 0 1-.25-2.72 1.83 1.83 0 0 1 2.64-.27 9.25 9.25 0 0 1 1.2 12.71 9.79 9.79 0 0 1-1.21 1.2 5.3 5.3 0 0 0-1 6.76 2 2 0 0 1-.62 2.66 1.84 1.84 0 0 1-2.55-.6zm9.98 0a9.25 9.25 0 0 1 1.83-11.81 1.84 1.84 0 0 1 2.62.45 2 2 0 0 1-.24 2.55 5.29 5.29 0 0 0-1 6.76 2 2 0 0 1-.61 2.66 1.84 1.84 0 0 1-2.55-.6z" fill="#646464"/><path d="M36.74 365.58l7.69-6.24L56.92 370l20.58-50-55 20.64 18.34 15.64z" fill="#fff"/><path d="M32.65 349.29l4.09 16.29 4.1-9.3L77.5 320z" fill="#afafaf"/><path d="M350 264.8v-10.18h-3.14l.48-5.23a3.46 3.46 0 0 1 .07-5 3.83 3.83 0 0 1 2.59-1v-10.2a.2.2 0 0 1 .21-.2h-7.31v-4.51a6.72 6.72 0 0 1 7.1-6.25V215c-7.79-.14-14.24 5.77-14.39 13.21V233h-3.73a1.84 1.84 0 0 0-1.88 1.8v28.37a1.86 1.86 0 0 0 1.9 1.81h18.31a.2.2 0 0 1-.21-.18z" fill="#6400fa"/><path fill="#004bfa" d="M350 254.62v-11.27 11.27z"/><path d="M367.86 233h-3.47v1.53-6.31c-.15-7.43-6.58-13.35-14.37-13.21v7.23a7.51 7.51 0 0 1 5 1.83 5.84 5.84 0 0 1 2.08 4.42V233h-6.87a.2.2 0 0 0-.21.2v10.16a3.65 3.65 0 0 1 3.72 3.56v.12a3.57 3.57 0 0 1-1 2.36l.48 5.23H350v10.17a.2.2 0 0 0 .21.2h17.89a1.86 1.86 0 0 0 1.9-1.81V235a2.1 2.1 0 0 0-2.14-2z" fill="#3200af"/><path d="M250 243.35v-10.16a.2.2 0 0 1 .21-.2h-7.31v-4.51a6.72 6.72 0 0 1 7.1-6.25V215c-7.79-.14-14.24 5.77-14.39 13.21V233h-3.73a1.84 1.84 0 0 0-1.88 1.8v28.37a1.86 1.86 0 0 0 1.9 1.81h18.31a.21.21 0 0 1-.21-.17v-10.19h-3.14l.48-5.23a3.46 3.46 0 0 1 .07-5 3.83 3.83 0 0 1 2.59-1.04z" fill="#32e14b"/><path fill="#78db99" d="M250 254.62v-11.27 11.27z"/><path d="M267.86 233h-3.47v1.53-6.31c-.15-7.43-6.58-13.35-14.37-13.21v7.23a7.51 7.51 0 0 1 5 1.83 5.84 5.84 0 0 1 2.08 4.42V233h-6.87a.2.2 0 0 0-.21.2v10.16a3.65 3.65 0 0 1 3.72 3.56v.12a3.57 3.57 0 0 1-1.05 2.36l.48 5.23H250v10.17a.2.2 0 0 0 .21.2h17.89a1.86 1.86 0 0 0 1.9-1.81V235a2.1 2.1 0 0 0-2.14-2z" fill="#199619"/><path d="M50 264.8v-10.18h-3.14l.48-5.23a3.46 3.46 0 0 1 .07-5 3.83 3.83 0 0 1 2.59-1v-10.2a.2.2 0 0 1 .21-.2H42.9v-4.51a6.72 6.72 0 0 1 7.1-6.25V215c-7.79-.14-14.24 5.77-14.39 13.21V233h-3.73a1.84 1.84 0 0 0-1.88 1.8v28.37a1.86 1.86 0 0 0 1.9 1.83h18.31a.21.21 0 0 1-.21-.2z" fill="#fff"/><path d="M53.14 254.62l-.48-5.23a3.49 3.49 0 0 0 1.06-2.48 3.49 3.49 0 0 1-1.06 2.48zm-3.14 0v-11.27 11.27z" fill="#c8c8c8"/><path d="M67.86 233h-3.47v1.53-6.31c-.17-7.44-6.6-13.36-14.39-13.22v7.23a7.51 7.51 0 0 1 5 1.83 5.84 5.84 0 0 1 2.08 4.42V233h-6.87a.2.2 0 0 0-.21.2v10.16a3.65 3.65 0 0 1 3.72 3.57 3.55 3.55 0 0 1-1.06 2.47l.48 5.23H50v10.17a.2.2 0 0 0 .21.2H68.1a1.86 1.86 0 0 0 1.9-1.81V235a2.1 2.1 0 0 0-2.14-2z" fill="#afafaf"/><path d="M150 264.8v-10.18h-3.14l.48-5.23a3.46 3.46 0 0 1 .07-5 3.83 3.83 0 0 1 2.59-1v-10.2a.2.2 0 0 1 .21-.2h-7.31v-4.51a6.72 6.72 0 0 1 7.1-6.25V215c-7.79-.14-14.24 5.77-14.39 13.21V233h-3.73a1.84 1.84 0 0 0-1.88 1.8v28.37a1.86 1.86 0 0 0 1.9 1.81h18.31a.21.21 0 0 1-.21-.18z" fill="#646464"/><path d="M153.14 254.62l-.48-5.23a3.49 3.49 0 0 0 1.06-2.48 3.49 3.49 0 0 1-1.06 2.48zm-3.14 0v-11.27 11.27z" fill="#323232"/><path d="M167.86 233h-3.47v1.53-6.31c-.15-7.43-6.58-13.35-14.37-13.21v7.23a7.51 7.51 0 0 1 5 1.83 5.84 5.84 0 0 1 2.08 4.42V233h-6.87a.2.2 0 0 0-.21.2v10.16a3.65 3.65 0 0 1 3.72 3.57 3.55 3.55 0 0 1-1.06 2.47l.48 5.23H150v10.17a.2.2 0 0 0 .21.2h17.89a1.86 1.86 0 0 0 1.9-1.81V235a2.1 2.1 0 0 0-2.14-2z" fill="#191919"/><path d="M253.8 145.48a14.93 14.93 0 1 0-8.32 8.32l4.78 4.78h1.28v1.28l3.16 3.14 2.78.22.22 2.78 2.52 2.52 2 .07.06 2 4.4 4.39 7.55-.77.77-7.55zm-15.41-7.09a3.44 3.44 0 1 1 0-4.87 3.44 3.44 0 0 1 0 4.87z" fill="#32e14b"/><path d="M353.8 145.48a14.93 14.93 0 1 0-8.32 8.32l4.78 4.78h1.28v1.28l3.16 3.14 2.78.22.22 2.78 2.52 2.52 2 .07.06 2 4.4 4.39 7.55-.77.77-7.55zm-15.41-7.09a3.44 3.44 0 1 1 0-4.87 3.44 3.44 0 0 1 0 4.87z" fill="#6400fa"/><path d="M153.8 145.48a14.93 14.93 0 1 0-8.32 8.32l4.78 4.78h1.28v1.28l3.16 3.14 2.78.22.22 2.78 2.52 2.52 2 .07.06 2 4.4 4.39 7.55-.77.77-7.55zm-15.41-7.09a3.44 3.44 0 1 1 0-4.87 3.44 3.44 0 0 1 0 4.87z" fill="#191919"/><path d="M38.83 134c.05.08.09.17.13.25a.94.94 0 0 1-.13-.25zm-5.73 3.88c-.06-.1-.1-.2-.16-.3.06.1.06.2.16.3zm-.32-.6a1 1 0 0 1-.06-.22 1 1 0 0 0 .06.22zm6.36-2.63a4 4 0 0 1 .15.49 4 4 0 0 0-.15-.49zm.26 1.35a3.43 3.43 0 0 1-6.18 2 3.68 3.68 0 0 0 .31.38 3.44 3.44 0 0 0 5.78-3.14 3.83 3.83 0 0 1 .09.76z" fill="none"/><path d="M53.81 145.48a14.94 14.94 0 1 0-24.44 5 14.87 14.87 0 0 0 16.11 3.31l4.78 4.78h1.29v1.28l3.14 3.15 2.78.22.22 2.78 2.52 2.52 2 .07.06 2 4.4 4.39 7.56-.77.77-7.55zm-15.42-7.08a3.46 3.46 0 0 1-4.86 0c-.11-.12-.21-.25-.31-.38l-.12-.14c-.06-.1-.1-.2-.16-.3l-.16-.3-.06-.22a3.81 3.81 0 0 1-.2-1.1 3.44 3.44 0 0 1 6.3-1.93c0 .08.08.17.13.25l.18.34a4 4 0 0 1 .15.49v.14a3.42 3.42 0 0 1-.89 3.15z" fill="#fff"/><path d="M39.29 135.14v.14a.5.5 0 0 0 0-.14zM33.22 138l-.12-.14zm5.78-3.69l.18.34zm-6.06 3.27l-.16-.3zm.6-4.04a3.42 3.42 0 0 1 4.85 0 4.4 4.4 0 0 1 .43.52 3.44 3.44 0 0 0-6.31 1.9 3.24 3.24 0 0 0 .2 1.1 3.4 3.4 0 0 1 .83-3.52z" fill="#fff"/><path d="M260.13 826.09h-20.27a1 1 0 0 1-.76-.33.87.87 0 0 1-.2-.8l2.26-9.23a1 1 0 0 1 1-.73h15.76a1 1 0 0 1 .95.73l2.26 9.23a.85.85 0 0 1-.2.8 1 1 0 0 1-.8.33zm-19-1.93h17.77l-1.78-7.3h-14.24z" fill="#19c819"/><path d="M272.12 865h-44.24a2.88 2.88 0 0 1-2.95-2.81v-25.34a2.88 2.88 0 0 1 2.89-2.86h44.3a2.88 2.88 0 0 1 2.95 2.81v25.34a2.93 2.93 0 0 1-2.95 2.86z" fill="#199619"/><path d="M271.64 846.87h-43.32a5.73 5.73 0 0 1-5.82-5.63v-16.83A2.43 2.43 0 0 1 225 822h50a2.44 2.44 0 0 1 2.46 2.38v16.83a5.75 5.75 0 0 1-5.84 5.63zm-5.41 5.83h-2.6a.94.94 0 0 1-1-.89v-3a.93.93 0 0 1 .92-.93h2.65a.93.93 0 0 1 1 .89v3a.93.93 0 0 1-.92.93z" fill="#32e14b"/><path d="M267.33 849.78h-4.8a.92.92 0 0 1-1-.87v-5.22a.93.93 0 0 1 .92-.93h4.84a.93.93 0 0 1 1 .89v5.21a.92.92 0 0 1-.91.92h-.05z" fill="#32c864"/><path d="M236.36 852.7h-2.6a.91.91 0 0 1-.95-.88v-3a.91.91 0 0 1 .9-.93h2.65a.94.94 0 0 1 1 .89v3a1 1 0 0 1-1 .92z" fill="#32e14b"/><path d="M237.46 849.78h-4.8a.91.91 0 0 1-.95-.86v-5.23a.92.92 0 0 1 .9-.93h4.85a.93.93 0 0 1 1 .89v5.21a1 1 0 0 1-1 .92z" fill="#32c864"/><path fill="#199619" d="M263.08 821.96h3.7v20.8h-3.7zm-29.87 0h3.7v20.8h-3.7z"/><path d="M360.1 826.09h-20.27a1 1 0 0 1-.75-.33.81.81 0 0 1-.21-.8l2.26-9.23a1 1 0 0 1 1-.73h15.76a1 1 0 0 1 1 .73l2.26 9.23a.81.81 0 0 1-.21.8 1 1 0 0 1-.84.33zm-19-1.93h17.8l-1.78-7.3h-14.28z" fill="#3200af"/><path d="M372.09 865h-44.25a2.88 2.88 0 0 1-2.94-2.83v-25.32a2.88 2.88 0 0 1 2.91-2.86h44.28a2.88 2.88 0 0 1 2.94 2.83v25.32a2.92 2.92 0 0 1-2.94 2.86z" fill="#32007d"/><path d="M371.61 846.87h-43.29a5.72 5.72 0 0 1-5.82-5.63v-16.83A2.42 2.42 0 0 1 325 822h50a2.42 2.42 0 0 1 2.47 2.37v16.85a5.75 5.75 0 0 1-5.86 5.63zm-5.41 5.83h-2.6a.92.92 0 0 1-1-.84v-3.09a.91.91 0 0 1 .89-.93h2.71a.93.93 0 0 1 1 .84v3.09a.91.91 0 0 1-.89.93h-.11z" fill="#6400fa"/><path d="M367.29 849.78h-4.79a.93.93 0 0 1-1-.84v-5.25a.91.91 0 0 1 .89-.93h4.9a1 1 0 0 1 1 .86v5.24a.92.92 0 0 1-.92.92h-.08z" fill="#3200af"/><path d="M336.33 852.7h-2.6a.94.94 0 0 1-1-.86v-3.07a.93.93 0 0 1 .93-.93h2.67a.92.92 0 0 1 1 .84v3.09a1 1 0 0 1-1 .93z" fill="#6400fa"/><path d="M337.43 849.78h-4.79a.93.93 0 0 1-1-.84v-5.25a.91.91 0 0 1 .89-.93h4.9a.93.93 0 0 1 1 .84v5.26a1 1 0 0 1-1 .92z" fill="#3200af"/><path fill="#4b00c8" d="M363.05 821.96h3.7v20.8h-3.7zm-29.86 0h3.7v20.8h-3.7z"/><path d="M60.11 826.09H39.83a1 1 0 0 1-.75-.33.81.81 0 0 1-.21-.8l2.26-9.23a1 1 0 0 1 1-.73h15.71a1 1 0 0 1 1 .73l2.22 9.27a.83.83 0 0 1-.2.8 1 1 0 0 1-.75.29zm-19-1.93h17.78l-1.78-7.3H42.85zM72.09 865H27.84a2.89 2.89 0 0 1-3-2.8v-25.35a2.88 2.88 0 0 1 2.9-2.86h44.35a2.88 2.88 0 0 1 3 2.8v25.35a3 3 0 0 1-3 2.86z" fill="#afafaf"/><path d="M71.6 848.35H28.33a5.86 5.86 0 0 1-5.83-5.9v-17.61a2.47 2.47 0 0 1 2.44-2.49H75a2.47 2.47 0 0 1 2.47 2.46v17.61a5.89 5.89 0 0 1-5.85 5.9zm-5.4 6.1h-2.61a1 1 0 0 1-1-1v-3.12a1 1 0 0 1 1-1h2.61a1 1 0 0 1 1 1v3.12a1 1 0 0 1-1 1z" fill="#fff"/><path d="M67.3 851.4h-4.8a1 1 0 0 1-1-1V845a1 1 0 0 1 1-1h4.8a1 1 0 0 1 1 1v5.41a1 1 0 0 1-1 .99z" fill="#969696"/><path d="M36.34 854.45h-2.61a1 1 0 0 1-1-1v-3.12a1 1 0 0 1 1-1h2.61a1 1 0 0 1 1 1v3.12a1 1 0 0 1-1 1z" fill="#fff"/><path d="M37.44 851.4h-4.8a1 1 0 0 1-1-1V845a1 1 0 0 1 1-1h4.8a1 1 0 0 1 1 1v5.41a1 1 0 0 1-1 .99z" fill="#969696"/><path fill="#c8c8c8" d="M63.05 822.28h3.69v21.77h-3.69zm-29.86 0h3.69v21.77h-3.69z"/><path d="M249.88 727.07c3 0 5.35-3.07 5.35-6.89s-2.39-5.18-5.35-5.18-5.36 1.44-5.36 5.18 2.39 6.89 5.36 6.89z" fill="#32e14b"/><path d="M249.88 727.07c3 0 5.35-3.07 5.35-6.89s-2.39-5.18-5.35-5.18" fill="#19c819"/><path d="M252.46 728.4h-5a6.83 6.83 0 0 0-6.81 6.71l-.09 9.77a6.85 6.85 0 0 0 2.88 5.55c0 .2-.1.39-.1.58l-.09 21a2.86 2.86 0 0 0 2.75 2.89 2.93 2.93 0 0 0 2.87-2.77l.1-14.27h1.53l-.1 14.27a2.93 2.93 0 0 0 2.77 2.87 2.87 2.87 0 0 0 2.87-2.78l.1-21a1 1 0 0 0-.1-.57 6.69 6.69 0 0 0 2.88-5.47l.1-9.76a6.62 6.62 0 0 0-6.18-7h-.4z" fill="#32e14b"/><path d="M249 772l.09-14.28h1.53l-.07 14.28a2.82 2.82 0 0 0 5.64.09l.1-21a1.15 1.15 0 0 0-.1-.58A6.66 6.66 0 0 0 259 745l.09-9.76a6.75 6.75 0 0 0-6.69-6.81h-5" fill="#19c819"/><path d="M269.4 729.36c2.59 0 4.7-2.68 4.7-6s-2.11-4.5-4.7-4.5-4.69 1.25-4.69 4.5 2.11 6 4.69 6z" fill="#32e14b"/><path d="M269.4 729.36c2.59 0 4.7-2.68 4.7-6s-2.11-4.5-4.7-4.5" fill="#19c819"/><path d="M271.61 730.52h-4.31a5.79 5.79 0 0 0-5.84 5.74v8.52a5.7 5.7 0 0 0 2.49 4.78c0 .19-.1.3-.1.49l-.09 18.28a2.44 2.44 0 0 0 4.86.4v-.3l.1-12.45H270l-.1 12.45a2.45 2.45 0 1 0 4.89.09l.1-18.28v-.49a5.73 5.73 0 0 0 2.51-4.75l.1-8.52a6 6 0 0 0-5.89-5.96z" fill="#32e14b"/><path d="M268.63 768.43l.1-12.45H270l-.1 12.45a2.45 2.45 0 1 0 4.89.09l.1-18.28v-.49a5.73 5.73 0 0 0 2.51-4.75l.1-8.52a5.8 5.8 0 0 0-5.76-5.84h-4.39" fill="#19c819"/><path d="M230.45 729.36c2.58 0 4.69-2.68 4.69-6s-2.11-4.5-4.69-4.5-4.7 1.25-4.7 4.5 2.11 6 4.7 6z" fill="#32e14b"/><path d="M230.45 729.36c2.58 0 4.69-2.68 4.69-6s-2.11-4.5-4.69-4.5" fill="#19c819"/><path d="M232.74 730.52h-4.31a5.78 5.78 0 0 0-5.83 5.75v.08l-.1 8.53a5.7 5.7 0 0 0 2.49 4.78c0 .19-.1.3-.1.49l-.09 18.28a2.44 2.44 0 0 0 4.88.09l.1-12.44h1.34l-.1 12.44a2.44 2.44 0 1 0 4.88.1l.1-18.28v-.49a5.73 5.73 0 0 0 2.48-4.78l.1-8.53a6 6 0 0 0-5.84-6.02z" fill="#32e14b"/><path d="M229.68 768.43l.1-12.45h1.34l-.1 12.45a2.44 2.44 0 1 0 4.88.09l.1-18.28v-.49a5.83 5.83 0 0 0 2.48-4.78v-8.43a5.79 5.79 0 0 0-5.75-5.83h-4.4" fill="#19c819"/><path d="M349.88 727.07c3 0 5.35-3.07 5.35-6.89s-2.39-5.18-5.35-5.18-5.36 1.44-5.36 5.18 2.39 6.89 5.36 6.89z" fill="#6400fa"/><path d="M349.88 727.07c3 0 5.35-3.07 5.35-6.89s-2.39-5.18-5.35-5.18" fill="#3200af"/><path d="M352.46 728.4h-5a6.83 6.83 0 0 0-6.81 6.71l-.09 9.77a6.85 6.85 0 0 0 2.88 5.55c0 .2-.1.39-.1.58l-.09 21a2.86 2.86 0 0 0 2.75 2.89 2.93 2.93 0 0 0 2.87-2.77l.1-14.27h1.53l-.1 14.27a2.93 2.93 0 0 0 2.77 2.87 2.87 2.87 0 0 0 2.87-2.78l.1-21a1 1 0 0 0-.1-.57 6.69 6.69 0 0 0 2.88-5.47l.1-9.76a6.62 6.62 0 0 0-6.18-7h-.4z" fill="#6400fa"/><path d="M349 772l.09-14.28h1.53l-.07 14.28a2.82 2.82 0 0 0 5.64.09l.1-21a1.15 1.15 0 0 0-.1-.58A6.66 6.66 0 0 0 359 745l.09-9.76a6.75 6.75 0 0 0-6.69-6.81h-5" fill="#3200af"/><path d="M369.4 729.36c2.59 0 4.7-2.68 4.7-6s-2.11-4.5-4.7-4.5-4.69 1.25-4.69 4.5 2.11 6 4.69 6z" fill="#6400fa"/><path d="M369.4 729.36c2.59 0 4.7-2.68 4.7-6s-2.11-4.5-4.7-4.5" fill="#3200af"/><path d="M371.61 730.52h-4.31a5.79 5.79 0 0 0-5.84 5.74v8.52a5.7 5.7 0 0 0 2.49 4.78c0 .19-.1.3-.1.49l-.09 18.28a2.44 2.44 0 0 0 4.86.4v-.3l.1-12.45H370l-.1 12.45a2.45 2.45 0 1 0 4.89.09l.1-18.28v-.49a5.73 5.73 0 0 0 2.51-4.75l.1-8.52a6 6 0 0 0-5.89-5.96z" fill="#6400fa"/><path d="M368.63 768.43l.1-12.45H370l-.1 12.45a2.45 2.45 0 1 0 4.89.09l.1-18.28v-.49a5.73 5.73 0 0 0 2.51-4.75l.1-8.52a5.8 5.8 0 0 0-5.76-5.84h-4.39" fill="#3200af"/><path d="M330.45 729.36c2.58 0 4.69-2.68 4.69-6s-2.11-4.5-4.69-4.5-4.7 1.25-4.7 4.5 2.11 6 4.7 6z" fill="#6400fa"/><path d="M330.45 729.36c2.58 0 4.69-2.68 4.69-6s-2.11-4.5-4.69-4.5" fill="#3200af"/><path d="M332.74 730.52h-4.31a5.78 5.78 0 0 0-5.83 5.75v.08l-.1 8.53a5.7 5.7 0 0 0 2.49 4.78c0 .19-.1.3-.1.49l-.09 18.28a2.44 2.44 0 0 0 4.88.09l.1-12.44h1.34l-.1 12.44a2.44 2.44 0 1 0 4.88.1l.1-18.28v-.49a5.73 5.73 0 0 0 2.48-4.78l.1-8.53a6 6 0 0 0-5.84-6.02z" fill="#6400fa"/><path d="M329.68 768.43l.1-12.45h1.34l-.1 12.45a2.44 2.44 0 1 0 4.88.09l.1-18.28v-.49a5.83 5.83 0 0 0 2.48-4.78v-8.43a5.79 5.79 0 0 0-5.75-5.83h-4.4" fill="#3200af"/><path d="M149.88 727.05c3 0 5.35-3.06 5.35-6.89s-2.39-5.16-5.35-5.16-5.36 1.43-5.36 5.16 2.39 6.89 5.36 6.89z" fill="#646464"/><path d="M149.88 727.05c3 0 5.35-3.06 5.35-6.89s-2.39-5.16-5.35-5.16" fill="#191919"/><path d="M152.46 728.39h-5a6.81 6.81 0 0 0-6.81 6.7l-.09 9.75a6.87 6.87 0 0 0 2.88 5.55c0 .19-.1.38-.1.56l-.09 21a2.84 2.84 0 0 0 2.77 2.87 3 3 0 0 0 2.87-2.78l.13-14.21h1.53l-.1 14.25a2.92 2.92 0 0 0 2.77 2.87 2.86 2.86 0 0 0 2.87-2.77l.1-21a1 1 0 0 0-.1-.57 6.66 6.66 0 0 0 2.88-5.46l.1-9.76a6.58 6.58 0 0 0-6.14-6.94z" fill="#646464"/><path d="M149 771.9l.09-14.25h1.53l-.09 14.25a2.82 2.82 0 0 0 5.64.1l.1-21a1 1 0 0 0-.1-.56A6.69 6.69 0 0 0 159 745l.09-9.76a6.73 6.73 0 0 0-6.67-6.78h-5" fill="#191919"/><path d="M169.4 729.34c2.59 0 4.7-2.68 4.7-6s-2.11-4.5-4.7-4.5-4.69 1.24-4.69 4.5 2.11 6 4.69 6z" fill="#646464"/><path d="M169.4 729.34c2.59 0 4.7-2.68 4.7-6s-2.11-4.5-4.7-4.5" fill="#191919"/><path d="M171.61 730.49h-4.31a5.81 5.81 0 0 0-5.84 5.76v8.49a5.74 5.74 0 0 0 2.49 4.79c0 .18-.1.28-.1.47l-.09 18.27a2.44 2.44 0 0 0 4.85.59 1.27 1.27 0 0 0 0-.2v-.3l.1-12.43H170l-.1 12.43a2.45 2.45 0 0 0 4.89.1l.1-18.27v-.48a5.68 5.68 0 0 0 2.48-4.78l.1-8.51a6 6 0 0 0-5.86-5.93z" fill="#646464"/><path d="M168.63 768.36l.1-12.43H170l-.1 12.43a2.45 2.45 0 0 0 4.89.1l.1-18.27v-.48a5.68 5.68 0 0 0 2.48-4.78l.1-8.51a5.79 5.79 0 0 0-5.75-5.83h-4.4" fill="#191919"/><path d="M130.45 729.34c2.58 0 4.69-2.68 4.69-6s-2.11-4.5-4.69-4.5-4.7 1.24-4.7 4.5 2.11 6 4.7 6z" fill="#646464"/><path d="M130.45 729.34c2.58 0 4.69-2.68 4.69-6s-2.11-4.5-4.69-4.5" fill="#191919"/><path d="M132.74 730.49h-4.31a5.81 5.81 0 0 0-5.83 5.77v.07l-.1 8.51a5.71 5.71 0 0 0 2.49 4.77c0 .2-.1.29-.1.49l-.09 18.26a2.45 2.45 0 0 0 4.87.4v-.3l.1-12.43h1.34l-.1 12.43a2.44 2.44 0 0 0 4.88.1l.1-18.27v-.48a5.69 5.69 0 0 0 2.48-4.78l.1-8.51a6 6 0 0 0-5.83-6.03z" fill="#646464"/><path d="M129.68 768.36l.1-12.43h1.34l-.1 12.43a2.44 2.44 0 0 0 4.88.1l.1-18.27v-.48a5.84 5.84 0 0 0 2.48-4.78v-8.41a5.81 5.81 0 0 0-5.76-5.84h-4.39" fill="#191919"/><path d="M49.86 727.06c3 0 5.35-3.07 5.35-6.89S52.82 715 49.86 715s-5.36 1.44-5.36 5.17 2.39 6.89 5.36 6.89z" fill="#fff"/><path d="M49.86 727.06c3 0 5.35-3.07 5.35-6.89S52.82 715 49.86 715" fill="#afafaf"/><path d="M52.44 728.39h-5a6.83 6.83 0 0 0-6.8 6.7l-.09 9.77a6.85 6.85 0 0 0 2.87 5.54c0 .2-.1.39-.1.58l-.09 21a2.86 2.86 0 0 0 2.77 2.87 2.93 2.93 0 0 0 2.87-2.77l.1-14.25h1.53l-.1 14.25a2.93 2.93 0 0 0 2.8 2.92 2.87 2.87 0 0 0 2.87-2.78l.1-21a1.1 1.1 0 0 0-.1-.57 6.71 6.71 0 0 0 2.87-5.46l.1-9.76a6.62 6.62 0 0 0-6.15-7z" fill="#fff"/><path d="M49 771.93l.09-14.26h1.53l-.09 14.26a2.82 2.82 0 1 0 5.64.09l.1-21a1.27 1.27 0 0 0-.1-.58A6.67 6.67 0 0 0 59 745l.09-9.76a6.75 6.75 0 0 0-6.68-6.8h-5" fill="#afafaf"/><path d="M69.37 729.35c2.58 0 4.69-2.68 4.69-6s-2.11-4.49-4.69-4.49-4.69 1.24-4.69 4.49 2.11 6 4.69 6z" fill="#fff"/><path d="M69.37 729.35c2.58 0 4.69-2.68 4.69-6s-2.11-4.49-4.69-4.49" fill="#afafaf"/><path d="M71.57 730.5h-4.3a5.79 5.79 0 0 0-5.84 5.74v8.52a5.72 5.72 0 0 0 2.49 4.78c0 .19-.1.29-.1.48l-.09 18.27a2.44 2.44 0 0 0 4.86.4v-.3l.1-12.44H70l-.1 12.44a2.44 2.44 0 0 0 4.88.09l.1-18.27v-.48A5.72 5.72 0 0 0 77.4 745l.1-8.52a6 6 0 0 0-5.93-5.98z" fill="#fff"/><path d="M68.6 768.39l.1-12.39H70l-.1 12.44a2.44 2.44 0 0 0 4.88.09l.1-18.27v-.48A5.72 5.72 0 0 0 77.4 745l.1-8.52a5.8 5.8 0 0 0-5.76-5.84h-4.38" fill="#afafaf"/><path d="M30.44 729.35c2.58 0 4.69-2.68 4.69-6s-2.11-4.49-4.69-4.49-4.69 1.24-4.69 4.49 2.11 6 4.69 6z" fill="#fff"/><path d="M30.44 729.35c2.58 0 4.69-2.68 4.69-6s-2.11-4.49-4.69-4.49" fill="#afafaf"/><path d="M32.73 730.5h-4.3a5.79 5.79 0 0 0-5.83 5.75v.08l-.1 8.53a5.72 5.72 0 0 0 2.5 4.78c0 .19-.1.29-.1.48l-.09 18.27a2.44 2.44 0 0 0 4.87.09l.1-12.43h1.34L31 768.48a2.44 2.44 0 1 0 4.88.1l.1-18.27v-.48a5.76 5.76 0 0 0 2.49-4.83l.1-8.52a6 6 0 0 0-5.84-5.98z" fill="#fff"/><path d="M29.67 768.39l.1-12.44h1.34L31 768.39a2.44 2.44 0 0 0 4.88.09l.1-18.27v-.48a5.85 5.85 0 0 0 2.48-4.79v-8.42a5.79 5.79 0 0 0-5.75-5.83h-4.38M46.46 945l-23.59 19.6a1.36 1.36 0 0 1-.37-.94v-37.32a1.36 1.36 0 0 1 .37-.94zm31.04-18.66v37.32a1.36 1.36 0 0 1-.37.94L53.54 945l23.59-19.6a1.36 1.36 0 0 1 .37.94z" fill="#afafaf"/><path d="M76.19 925H23.81a1.3 1.3 0 0 0-1 .4l27.17 29 27.13-29a1.3 1.3 0 0 0-.92-.4z" fill="#fff"/><path d="M58.78 945l18.37 19.6a1.3 1.3 0 0 1-1 .4H23.81a1.3 1.3 0 0 1-1-.4L41.22 945l8.78 9.35z" fill="#c8c8c8"/><path d="M146.46 945l-23.59 19.6a1.36 1.36 0 0 1-.37-.94v-37.32a1.36 1.36 0 0 1 .37-.94zm31.04-18.66v37.32a1.36 1.36 0 0 1-.37.94L153.54 945l23.59-19.6a1.36 1.36 0 0 1 .37.94z" fill="#191919"/><path d="M176.19 925h-52.38a1.3 1.3 0 0 0-1 .4l27.13 29 27.13-29a1.29 1.29 0 0 0-.88-.4z" fill="#646464"/><path d="M158.78 945l18.37 19.6a1.3 1.3 0 0 1-1 .4h-52.34a1.3 1.3 0 0 1-1-.4l18.41-19.6 8.78 9.35z" fill="#323232"/><path d="M346.46 945l-23.59 19.6a1.36 1.36 0 0 1-.37-.94v-37.32a1.36 1.36 0 0 1 .37-.94zm31.04-18.66v37.32a1.36 1.36 0 0 1-.37.94L353.54 945l23.59-19.6a1.36 1.36 0 0 1 .37.94z" fill="#32007d"/><path d="M376.19 925h-52.38a1.3 1.3 0 0 0-1 .4l27.13 29 27.13-29a1.29 1.29 0 0 0-.88-.4z" fill="#6400fa"/><path d="M358.78 945l18.37 19.6a1.3 1.3 0 0 1-1 .4h-52.34a1.3 1.3 0 0 1-1-.4l18.41-19.6 8.78 9.35z" fill="#3200af"/><path d="M246.46 945l-23.59 19.6a1.36 1.36 0 0 1-.37-.94v-37.32a1.36 1.36 0 0 1 .37-.94zm31.04-18.66v37.32a1.36 1.36 0 0 1-.37.94L253.54 945l23.59-19.6a1.36 1.36 0 0 1 .37.94z" fill="#199619"/><path d="M276.19 925h-52.38a1.3 1.3 0 0 0-1 .4l27.13 29 27.13-29a1.29 1.29 0 0 0-.88-.4z" fill="#32e14b"/><path d="M258.78 945l18.37 19.6a1.3 1.3 0 0 1-1 .4h-52.34a1.3 1.3 0 0 1-1-.4l18.41-19.6 8.78 9.35z" fill="#19c819"/><path fill="#fff" d="M62.21 1335.31L50 1370l30-34.69H62.21z"/><path fill="#c8c8c8" d="M32.41 1320L20 1335.31h17.79L32.41 1320zm29.8 15.31H80L67.59 1320l-5.38 15.31zm0 0L50 1320l-12.21 15.31h24.42z"/><path fill="#afafaf" d="M50 1320H32.41l5.38 15.31L50 1320z"/><path fill="#fff" d="M67.59 1320H50l12.21 15.31 5.38-15.31z"/><path fill="#afafaf" d="M37.79 1335.31L50 1370l12.21-34.69H37.79z"/><path fill="#fff" d="M20 1335.31L50 1370l-12.21-34.69H20z"/><path fill="#4b00c8" d="M362.21 1335.31L350 1370l30-34.69h-17.79zm-29.8-15.31L320 1335.31h17.79l-5.38-15.31z"/><path fill="#32007d" d="M362.21 1335.31H380L367.59 1320l-5.38 15.31z"/><path fill="#32007d" d="M362.21 1335.31L350 1320l-12.21 15.31h24.42z"/><path fill="#6400fa" d="M350 1320h-17.59l5.38 15.31L350 1320zm17.59 0H350l12.21 15.31 5.38-15.31z"/><path fill="#3200af" d="M337.79 1335.31L350 1370l12.21-34.69h-24.42z"/><path fill="#32007d" d="M320 1335.31l30 34.69-12.21-34.69H320z"/><path fill="#32e14b" d="M262.21 1335.31L250 1370l30-34.69h-17.79z"/><path fill="#19c819" d="M232.41 1320L220 1335.31h17.79l-5.38-15.31z"/><path fill="#199619" d="M262.21 1335.31H280L267.59 1320l-5.38 15.31zm0 0L250 1320l-12.21 15.31h24.42z"/><path fill="#32e14b" d="M250 1320h-17.59l5.38 15.31L250 1320z"/><path fill="#32c864" d="M267.59 1320H250l12.21 15.31 5.38-15.31zm-29.8 15.31L250 1370l12.21-34.69h-24.42z"/><path fill="#199619" d="M220 1335.31l30 34.69-12.21-34.69H220z"/><path fill="#646464" d="M162.21 1335.31L150 1370l30-34.69h-17.79z"/><path fill="#191919" d="M132.41 1320L120 1335.31h17.79l-5.38-15.31zm29.8 15.31H180L167.59 1320l-5.38 15.31zm0 0L150 1320l-12.21 15.31h24.42z"/><path fill="#323232" d="M150 1320h-17.59l5.38 15.31L150 1320z"/><path fill="#646464" d="M167.59 1320H150l12.21 15.31 5.38-15.31z"/><path fill="#323232" d="M137.79 1335.31L150 1370l12.21-34.69h-24.42z"/><path d="M120 1335.31l30 34.69-12.21-34.69H120z"/><path d="M31.65 1420h9.64a6.62 6.62 0 0 1 6.65 6.59v9.55a6.62 6.62 0 0 1-6.65 6.59h-9.64a6.62 6.62 0 0 1-6.65-6.59v-9.55a6.62 6.62 0 0 1 6.65-6.59z" fill="#fff"/><path d="M58.71 1420h9.64a6.62 6.62 0 0 1 6.65 6.59v9.55a6.62 6.62 0 0 1-6.65 6.59h-9.64a6.62 6.62 0 0 1-6.65-6.59v-9.55a6.62 6.62 0 0 1 6.65-6.59zm-27.06 27.27h9.64a6.62 6.62 0 0 1 6.65 6.59v9.55a6.62 6.62 0 0 1-6.65 6.59h-9.64a6.62 6.62 0 0 1-6.65-6.59v-9.55a6.62 6.62 0 0 1 6.65-6.59zm27.06 0h9.64a6.62 6.62 0 0 1 6.65 6.59v9.55a6.62 6.62 0 0 1-6.65 6.59h-9.64a6.62 6.62 0 0 1-6.65-6.59v-9.55a6.62 6.62 0 0 1 6.65-6.59z" fill="#c8c8c8"/><path d="M131.65 1420h9.64a6.59 6.59 0 0 1 6.65 6.53v9.47a6.6 6.6 0 0 1-6.65 6.53h-9.64A6.6 6.6 0 0 1 125 1436v-9.47a6.59 6.59 0 0 1 6.65-6.53z" fill="#646464"/><path d="M158.71 1420h9.64a6.59 6.59 0 0 1 6.65 6.53v9.47a6.6 6.6 0 0 1-6.65 6.53h-9.64a6.6 6.6 0 0 1-6.65-6.53v-9.47a6.59 6.59 0 0 1 6.65-6.53zm-27.06 27h9.64a6.6 6.6 0 0 1 6.65 6.53v9.47a6.6 6.6 0 0 1-6.65 6.53h-9.64A6.6 6.6 0 0 1 125 1463v-9.47a6.6 6.6 0 0 1 6.65-6.53zm27.06.47h9.64A6.6 6.6 0 0 1 175 1454v9.47a6.59 6.59 0 0 1-6.65 6.53h-9.64a6.59 6.59 0 0 1-6.65-6.53V1454a6.6 6.6 0 0 1 6.65-6.53z" fill="#191919"/><path d="M331.65 1420h9.64a6.62 6.62 0 0 1 6.65 6.59v9.55a6.62 6.62 0 0 1-6.65 6.59h-9.64a6.62 6.62 0 0 1-6.65-6.59v-9.55a6.62 6.62 0 0 1 6.65-6.59z" fill="#6400fa"/><path d="M358.71 1420h9.64a6.62 6.62 0 0 1 6.65 6.59v9.55a6.62 6.62 0 0 1-6.65 6.59h-9.64a6.62 6.62 0 0 1-6.65-6.59v-9.55a6.62 6.62 0 0 1 6.65-6.59z" fill="#4b00c8"/><path d="M331.65 1447.27h9.64a6.62 6.62 0 0 1 6.65 6.59v9.55a6.62 6.62 0 0 1-6.65 6.59h-9.64a6.62 6.62 0 0 1-6.65-6.59v-9.55a6.62 6.62 0 0 1 6.65-6.59z" fill="#3200af"/><path d="M358.71 1447.27h9.64a6.62 6.62 0 0 1 6.65 6.59v9.55a6.62 6.62 0 0 1-6.65 6.59h-9.64a6.62 6.62 0 0 1-6.65-6.59v-9.55a6.62 6.62 0 0 1 6.65-6.59z" fill="#32007d"/><path d="M231.65 1420h9.64a6.62 6.62 0 0 1 6.65 6.59v9.55a6.62 6.62 0 0 1-6.65 6.59h-9.64a6.62 6.62 0 0 1-6.65-6.59v-9.55a6.62 6.62 0 0 1 6.65-6.59z" fill="#32e14b"/><path d="M258.71 1420h9.64a6.62 6.62 0 0 1 6.65 6.59v9.55a6.62 6.62 0 0 1-6.65 6.59h-9.64a6.62 6.62 0 0 1-6.65-6.59v-9.55a6.62 6.62 0 0 1 6.65-6.59zm-27.06 27.27h9.64a6.62 6.62 0 0 1 6.65 6.59v9.55a6.62 6.62 0 0 1-6.65 6.59h-9.64a6.62 6.62 0 0 1-6.65-6.59v-9.55a6.62 6.62 0 0 1 6.65-6.59z" fill="#19c819"/><path d="M258.71 1447.27h9.64a6.62 6.62 0 0 1 6.65 6.59v9.55a6.62 6.62 0 0 1-6.65 6.59h-9.64a6.62 6.62 0 0 1-6.65-6.59v-9.55a6.62 6.62 0 0 1 6.65-6.59z" fill="#199619"/><path d="M126.14 544.06a1.57 1.57 0 0 0 .71-.4l4.43-4.27a1.52 1.52 0 0 0 0-2.19 1.62 1.62 0 0 0-.75-.43l-1.29-.34A22.5 22.5 0 0 1 150 523.12a22.75 22.75 0 0 1 3.8.32h.06c.58.1 1.16.22 1.73.36l.33.09c.38.1.77.22 1.15.34l.79.27.94.37c.34.14.67.29 1 .44l.33.16a22 22 0 0 1 11.7 14.41 1.61 1.61 0 0 0 1.88 1.26 1.57 1.57 0 0 0 1.3-1.83.83.83 0 0 0 0-.15 19.78 19.78 0 0 0-.55-1.9l-.09-.27c-.21-.62-.45-1.22-.7-1.8l-.08-.18a25 25 0 0 0-3.18-5.26 25.28 25.28 0 0 0-4.35-4.3l-.14-.11q-.78-.58-1.59-1.11l-.15-.1a25.64 25.64 0 0 0-3.47-1.86l-.21-.1c-.59-.25-1.19-.49-1.8-.7l-.21-.07a26.13 26.13 0 0 0-6.18-1.29q-1.07-.09-2.16-.09a26.7 26.7 0 0 0-6 .68 25.49 25.49 0 0 0-17.88 14.94l-1.61-.43a1.61 1.61 0 0 0-2 1.06 1.47 1.47 0 0 0 0 .88l1.59 5.82a1.61 1.61 0 0 0 1.89 1.09zm51.29 8.79l-1.59-5.85a1.63 1.63 0 0 0-2-1.11 1.48 1.48 0 0 0-.71.4l-4.43 4.26a1.53 1.53 0 0 0 0 2.2 1.7 1.7 0 0 0 .75.42l1.29.34c-.2.46-.42.91-.65 1.35l-.14.26a22.49 22.49 0 0 1-19.95 11.7 23.07 23.07 0 0 1-8.79-1.74 22 22 0 0 1-13.09-15 1.58 1.58 0 0 0-1.69-1.48 1.57 1.57 0 0 0-1.52 1.63v.16a2.13 2.13 0 0 0 .1.42c3.29 13.41 17.15 21.69 31 18.5a25.52 25.52 0 0 0 17.88-14.94l1.6.42a1.68 1.68 0 0 0 1.11-.13 1.56 1.56 0 0 0 .86-1 1.59 1.59 0 0 0-.03-.81z" fill="#191919"/><path d="M226.14 544.06a1.57 1.57 0 0 0 .71-.4l4.43-4.27a1.52 1.52 0 0 0 0-2.19 1.62 1.62 0 0 0-.75-.43l-1.29-.34A22.5 22.5 0 0 1 250 523.12a22.75 22.75 0 0 1 3.8.32h.06c.59.1 1.16.22 1.73.36l.33.09c.38.1.77.22 1.15.34l.79.27.94.37c.34.14.67.29 1 .44l.33.16a22 22 0 0 1 11.7 14.41 1.63 1.63 0 0 0 2 1.07 1.57 1.57 0 0 0 1.14-1.79 19.78 19.78 0 0 0-.55-1.9l-.09-.27c-.21-.62-.45-1.22-.7-1.8l-.08-.18a25 25 0 0 0-3.18-5.26 25.28 25.28 0 0 0-4.35-4.3l-.14-.11q-.78-.58-1.59-1.11l-.15-.1a25.64 25.64 0 0 0-3.47-1.86l-.21-.1c-.59-.25-1.19-.49-1.8-.7l-.21-.07a26.13 26.13 0 0 0-6.18-1.29q-1.07-.09-2.16-.09a26.7 26.7 0 0 0-6 .68 25.49 25.49 0 0 0-17.88 14.94l-1.61-.43a1.61 1.61 0 0 0-2 1.06 1.47 1.47 0 0 0 0 .88l1.59 5.82a1.61 1.61 0 0 0 1.93 1.09zm51.29 8.79l-1.59-5.85a1.63 1.63 0 0 0-2-1.11 1.48 1.48 0 0 0-.71.4l-4.43 4.26a1.53 1.53 0 0 0 0 2.2 1.7 1.7 0 0 0 .75.42l1.29.34c-.2.46-.42.91-.65 1.35l-.14.26a22.49 22.49 0 0 1-19.95 11.7 23.07 23.07 0 0 1-8.79-1.74 22 22 0 0 1-13.09-15 1.58 1.58 0 0 0-1.69-1.48 1.57 1.57 0 0 0-1.52 1.63v.16a2.13 2.13 0 0 0 .1.42c3.29 13.41 17.15 21.69 30.95 18.5a25.52 25.52 0 0 0 17.88-14.94l1.6.42a1.67 1.67 0 0 0 1.11-.13 1.56 1.56 0 0 0 .86-1 1.59 1.59 0 0 0 .02-.81z" fill="#32e14b"/><path d="M326.14 544.06a1.57 1.57 0 0 0 .71-.4l4.43-4.27a1.52 1.52 0 0 0 0-2.19 1.62 1.62 0 0 0-.75-.43l-1.29-.34A22.5 22.5 0 0 1 350 523.12a22.75 22.75 0 0 1 3.8.32h.06c.58.1 1.16.22 1.73.36l.33.09c.38.1.77.22 1.15.34l.79.27.94.37c.34.14.67.29 1 .44l.33.16a22 22 0 0 1 11.7 14.41 1.42 1.42 0 0 0 .08.18 1.6 1.6 0 0 0 3.18-.33 1 1 0 0 0 0-.16 1.17 1.17 0 0 0-.1-.41 19.78 19.78 0 0 0-.55-1.9l-.09-.27c-.21-.62-.45-1.22-.7-1.8l-.08-.18a25 25 0 0 0-3.18-5.26 25.28 25.28 0 0 0-4.35-4.3l-.14-.11q-.78-.58-1.59-1.11l-.15-.1a25.64 25.64 0 0 0-3.47-1.86l-.21-.1c-.59-.25-1.19-.49-1.8-.7l-.21-.07a26.13 26.13 0 0 0-6.18-1.29q-1.07-.09-2.16-.09a26.7 26.7 0 0 0-6 .68 25.49 25.49 0 0 0-17.88 14.94l-1.61-.43a1.61 1.61 0 0 0-2 1.06 1.47 1.47 0 0 0 0 .88l1.59 5.82a1.61 1.61 0 0 0 1.91 1.09zm51.29 8.79l-1.59-5.85a1.63 1.63 0 0 0-2-1.11 1.48 1.48 0 0 0-.71.4l-4.43 4.26a1.53 1.53 0 0 0 0 2.2 1.7 1.7 0 0 0 .75.42l1.29.34c-.2.46-.42.91-.65 1.35l-.14.26a22.49 22.49 0 0 1-19.95 11.7 23.07 23.07 0 0 1-8.79-1.74 22 22 0 0 1-13.09-15 1.63 1.63 0 0 0-2.09-.88 1.57 1.57 0 0 0-1 1.61c3.29 13.41 17.15 21.69 30.95 18.5a25.52 25.52 0 0 0 17.88-14.94l1.6.42a1.68 1.68 0 0 0 1.11-.13 1.56 1.56 0 0 0 .86-1 1.59 1.59 0 0 0 0-.81z" fill="#6400fa"/><path d="M26.14 544.06a1.57 1.57 0 0 0 .71-.4l4.43-4.27a1.52 1.52 0 0 0 0-2.19 1.62 1.62 0 0 0-.75-.43l-1.29-.34A22.5 22.5 0 0 1 50 523.12a22.75 22.75 0 0 1 3.8.32h.06c.59.1 1.16.22 1.73.36l.33.09c.38.1.77.22 1.15.34l.79.27.94.37c.34.14.67.29 1 .44l.33.16a22 22 0 0 1 11.7 14.41 1.61 1.61 0 0 0 1.88 1.26 1.57 1.57 0 0 0 1.3-1.83.83.83 0 0 0 0-.15 19.78 19.78 0 0 0-.55-1.9l-.09-.27c-.21-.61-.45-1.22-.7-1.8l-.08-.18a25 25 0 0 0-3.18-5.26 25.28 25.28 0 0 0-4.35-4.3l-.14-.11q-.78-.58-1.59-1.11l-.15-.1a25.64 25.64 0 0 0-3.47-1.86l-.21-.1c-.59-.25-1.19-.49-1.79-.7l-.22-.07a26.13 26.13 0 0 0-6.18-1.29q-1.06-.09-2.16-.09a26.7 26.7 0 0 0-6 .68 25.49 25.49 0 0 0-17.88 14.94l-1.61-.43a1.61 1.61 0 0 0-2 1.06 1.47 1.47 0 0 0 0 .88l1.5 5.85a1.61 1.61 0 0 0 1.98 1.06zm51.29 8.79L75.84 547a1.63 1.63 0 0 0-2-1.11 1.48 1.48 0 0 0-.71.4l-4.43 4.26a1.53 1.53 0 0 0 0 2.2 1.7 1.7 0 0 0 .75.42l1.29.34c-.2.46-.42.91-.65 1.35l-.14.26A22.49 22.49 0 0 1 50 566.82a23.07 23.07 0 0 1-8.79-1.74 22 22 0 0 1-13.09-15 1.62 1.62 0 0 0-2.1-.84 1.56 1.56 0 0 0-1 1.57c3.29 13.41 17.15 21.69 31 18.5a25.52 25.52 0 0 0 17.88-14.94l1.6.42a1.68 1.68 0 0 0 1.32-.25 1.56 1.56 0 0 0 .64-.86 1.59 1.59 0 0 0-.03-.83z" fill="#fff"/><path d="M62.15 27.76a.91.91 0 0 0-1.14.58.87.87 0 0 0 .24.9 20.88 20.88 0 0 1 9.46 23.35.88.88 0 0 0 .64 1.07h.22a.9.9 0 0 0 .91-.65 22.59 22.59 0 0 0-10.33-25.25zm-3.97 38.89a21.67 21.67 0 0 1-24-5.28.92.92 0 0 0-1.27.17.87.87 0 0 0 0 1 23.49 23.49 0 0 0 26 5.71.87.87 0 0 0 .23-1.25.92.92 0 0 0-.96-.35zM44.9 26.74a.89.89 0 0 0 .46-1.18.92.92 0 0 0-.89-.52 22.82 22.82 0 0 0-17.62 20.54.9.9 0 0 0 .83.89h.07a.89.89 0 0 0 .9-.82A21.08 21.08 0 0 1 44.9 26.74z" fill="#afafaf"/><ellipse cx="50" cy="25.26" rx="5.35" ry="5.26" fill="#fff"/><ellipse cx="30.35" cy="57.72" rx="5.35" ry="5.26" fill="#fff"/><ellipse cx="69.65" cy="57.72" rx="5.35" ry="5.26" fill="#fff"/><path d="M362.15 27.76a.91.91 0 0 0-1.14.58.87.87 0 0 0 .24.9 20.88 20.88 0 0 1 9.46 23.35.88.88 0 0 0 .64 1.07h.22a.9.9 0 0 0 .87-.65 22.59 22.59 0 0 0-10.29-25.28zm-3.97 38.89a21.67 21.67 0 0 1-24-5.28.92.92 0 0 0-1.27.17.87.87 0 0 0 0 1 23.49 23.49 0 0 0 26 5.71.87.87 0 0 0 .28-1.23.92.92 0 0 0-1.01-.37zM344.9 26.74a.89.89 0 1 0-.43-1.7 22.82 22.82 0 0 0-17.62 20.54.9.9 0 0 0 .83.89h.07a.89.89 0 0 0 .9-.82 21.08 21.08 0 0 1 16.25-18.91z" fill="#3200af"/><ellipse cx="350" cy="25.26" rx="5.35" ry="5.26" fill="#6400fa"/><ellipse cx="330.35" cy="57.72" rx="5.35" ry="5.26" fill="#6400fa"/><ellipse cx="369.65" cy="57.72" rx="5.35" ry="5.26" fill="#6400fa"/><path d="M262.15 27.76a.91.91 0 0 0-1.14.58.87.87 0 0 0 .24.9 20.88 20.88 0 0 1 9.46 23.35.88.88 0 0 0 .64 1.07h.22a.9.9 0 0 0 .87-.65 22.59 22.59 0 0 0-10.29-25.28zm-3.97 38.89a21.67 21.67 0 0 1-24-5.28.92.92 0 0 0-1.27.17.87.87 0 0 0 0 1 23.49 23.49 0 0 0 26 5.71.87.87 0 0 0 .28-1.23.92.92 0 0 0-1.01-.37zM244.9 26.74a.89.89 0 0 0 .46-1.18.92.92 0 0 0-.89-.52 22.82 22.82 0 0 0-17.62 20.54.9.9 0 0 0 .83.89h.07a.89.89 0 0 0 .9-.82 21.08 21.08 0 0 1 16.25-18.91z" fill="#199619"/><ellipse cx="250" cy="25.26" rx="5.35" ry="5.26" fill="#32e14b"/><ellipse cx="230.35" cy="57.72" rx="5.35" ry="5.26" fill="#32e14b"/><ellipse cx="269.65" cy="57.72" rx="5.35" ry="5.26" fill="#32e14b"/><path d="M50 420a25 25 0 1 0 25 25 25 25 0 0 0-25-25zm13.42 25.71l-19 12.93a.83.83 0 0 1-.48.15.87.87 0 0 1-.87-.85v-25.87a.86.86 0 0 1 1.35-.71l19 12.93a.88.88 0 0 1 .21 1.21 1 1 0 0 1-.21.21z" fill="#fff"/><path d="M150 420a25 25 0 1 0 25 25 25 25 0 0 0-25-25zm13.42 25.71l-19 12.93a.83.83 0 0 1-.48.15.87.87 0 0 1-.87-.85v-25.87a.86.86 0 0 1 1.35-.71l19 12.93a.88.88 0 0 1 .21 1.21 1 1 0 0 1-.21.21z" fill="#191919"/><path d="M250 420a25 25 0 1 0 25 25 25 25 0 0 0-25-25zm13.42 25.71l-19 12.93a.83.83 0 0 1-.48.15.87.87 0 0 1-.87-.85v-25.87a.86.86 0 0 1 1.35-.71l19 12.93a.88.88 0 0 1 .21 1.21 1 1 0 0 1-.21.21z" fill="#32e14b"/><path d="M350 420a25 25 0 1 0 25 25 25 25 0 0 0-25-25zm13.42 25.71l-19 12.93a.83.83 0 0 1-.48.15.87.87 0 0 1-.87-.85v-25.87a.86.86 0 0 1 1.35-.71l19 12.93a.88.88 0 0 1 .21 1.21 1 1 0 0 1-.21.21z" fill="#6400fa"/><path d="M25.54 1569.46a1.32 1.32 0 0 1 0 1.87l-.47.47 7.65-2.09-7.43-7.44-2.09 7.66.47-.47a1.3 1.3 0 0 1 1.86 0z" fill="#c8c8c8"/><path d="M25.07 1571.8l.47-.47a1.33 1.33 0 0 0 0-1.87 1.32 1.32 0 0 0-1.87 0l-.47.47-.7 2.57z" fill="#969696"/><path fill="#fff" d="M68.26 1534.16l-7.46-7.47-35.5 35.53-.01.05 7.43 7.44.05-.01 35.49-35.54z"/><path d="M76.69 1522l-3.69-3.74a2.63 2.63 0 0 0-3.69 0l-4.77 4.74 7.46 7.47 4.69-4.68a2.62 2.62 0 0 0 .1-3.69z" fill="#969696"/><path fill="#f7e6a1" d="M60.8 1526.69l3.73-3.74-3.73 3.74z"/><path fill="#c8c8c8" d="M60.8 1526.69l3.73-3.74 7.48 7.48-3.74 3.75-7.47-7.49z"/><path d="M125.54 1569.46a1.32 1.32 0 0 1 0 1.87l-.47.47 7.66-2.09-7.44-7.43-2.09 7.65.47-.47a1.32 1.32 0 0 1 1.87 0z" fill="#646464"/><path d="M125.07 1571.8l.47-.47a1.32 1.32 0 0 0 0-1.87 1.33 1.33 0 0 0-1.87 0l-.47.47-.7 2.57z"/><path fill="#191919" d="M168.29 1534.19l-7.47-7.47-35.51 35.51-.02.05 7.44 7.43.05-.01 35.51-35.51z"/><path d="M176.72 1522l-3.77-3.77a2.63 2.63 0 0 0-3.69 0l-4.68 4.69 7.47 7.46 4.69-4.67a2.63 2.63 0 0 0 0-3.69z"/><path fill="#f7e6a1" d="M160.82 1526.72l3.74-3.73-3.74 3.73z"/><path fill="#646464" d="M160.832 1526.714l3.741-3.74 7.48 7.483-3.741 3.74z"/><path d="M225.54 1569.46a1.32 1.32 0 0 1 0 1.87l-.47.47 7.66-2.09-7.44-7.43-2.09 7.65.47-.47a1.32 1.32 0 0 1 1.87 0z" fill="#199619"/><path d="M225.07 1571.8l.47-.47a1.32 1.32 0 0 0 0-1.87 1.33 1.33 0 0 0-1.87 0l-.47.47-.7 2.57zm43.22-37.61l-7.47-7.47-35.51 35.51-.02.05 7.44 7.43.05-.01 35.51-35.51z" fill="#32e14b"/><path d="M276.72 1522l-3.77-3.77a2.63 2.63 0 0 0-3.69 0l-4.68 4.69 7.47 7.46 4.69-4.67a2.63 2.63 0 0 0 0-3.69z" fill="#19c819"/><path fill="#32e14b" d="M260.82 1526.72l3.74-3.73-3.74 3.73z"/><path fill="#199619" d="M260.835 1526.716l3.741-3.74 7.48 7.482-3.741 3.74z"/><path d="M325.54 1569.46a1.32 1.32 0 0 1 0 1.87l-.47.47 7.66-2.09-7.44-7.43-2.09 7.65.47-.47a1.32 1.32 0 0 1 1.87 0z" fill="#3200af"/><path d="M325.07 1571.8l.47-.47a1.32 1.32 0 0 0 0-1.87 1.33 1.33 0 0 0-1.87 0l-.47.47-.7 2.57zm43.22-37.61l-7.47-7.47-35.51 35.51-.02.05 7.44 7.43.05-.01 35.51-35.51zm8.43-12.19l-3.77-3.77a2.63 2.63 0 0 0-3.69 0l-4.68 4.69 7.47 7.46 4.69-4.67a2.63 2.63 0 0 0 0-3.69zm-15.9 4.72l3.74-3.73-3.74 3.73z" fill="#6400fa"/><path fill="#3200af" d="M360.828 1526.717l3.741-3.74 7.48 7.483-3.741 3.74z"/><path d="M162.15 27.76a.91.91 0 0 0-1.14.58.87.87 0 0 0 .24.9 20.88 20.88 0 0 1 9.46 23.35.88.88 0 0 0 .64 1.07h.22a.9.9 0 0 0 .87-.65 22.59 22.59 0 0 0-10.29-25.28zm-3.97 38.89a21.67 21.67 0 0 1-24-5.28.92.92 0 0 0-1.27.17.87.87 0 0 0 0 1 23.49 23.49 0 0 0 26 5.71.87.87 0 0 0 .28-1.23.92.92 0 0 0-1.01-.37zM144.9 26.74a.89.89 0 0 0 .46-1.18.92.92 0 0 0-.89-.52 22.82 22.82 0 0 0-17.62 20.54.9.9 0 0 0 .83.89h.07a.89.89 0 0 0 .9-.82 21.08 21.08 0 0 1 16.25-18.91z" fill="#646464"/><ellipse cx="150" cy="25.26" rx="5.35" ry="5.26"/><ellipse cx="130.35" cy="57.72" rx="5.35" ry="5.26"/><ellipse cx="169.65" cy="57.72" rx="5.35" ry="5.26"/><path d="M136.74 365.58l7.69-6.24L156.92 370l20.58-50-55 20.64 18.34 15.64z" fill="#646464"/><path d="M132.65 349.29l4.09 16.29 4.1-9.3L177.5 320z"/><path d="M236.74 365.58l7.69-6.24L256.92 370l20.58-50-55 20.64 18.34 15.64z" fill="#32e14b"/><path d="M232.65 349.29l4.09 16.29 4.1-9.3L277.5 320z" fill="#199619"/><path d="M336.74 365.58l7.69-6.24L356.92 370l20.58-50-55 20.64 18.34 15.64z" fill="#6400fa"/><path d="M332.65 349.29l4.09 16.29 4.1-9.3L377.5 320z" fill="#3200af"/><path d="M160.11 826.09h-20.28a1 1 0 0 1-.75-.33.81.81 0 0 1-.21-.8l2.26-9.23a1 1 0 0 1 1-.73h15.72a1 1 0 0 1 1 .73l2.23 9.27a.83.83 0 0 1-.2.8 1 1 0 0 1-.77.29zm-19-1.93h17.78l-1.78-7.3h-14.26z" fill="#191919"/><path d="M172.09 865h-44.25a2.89 2.89 0 0 1-3-2.8v-25.35a2.88 2.88 0 0 1 2.9-2.86h44.31a2.88 2.88 0 0 1 3 2.8v25.35a3 3 0 0 1-2.96 2.86z"/><path d="M171.6 848.35h-43.27a5.86 5.86 0 0 1-5.83-5.9v-17.61a2.47 2.47 0 0 1 2.44-2.49H175a2.47 2.47 0 0 1 2.47 2.46v17.61a5.89 5.89 0 0 1-5.85 5.9z" fill="#646464"/><path d="M166.2 854.45h-2.61a1 1 0 0 1-1-1v-3.12a1 1 0 0 1 1-1h2.61a1 1 0 0 1 1 1v3.12a1 1 0 0 1-1 1z" fill="#c8c8c8"/><path d="M167.3 851.4h-4.8a1 1 0 0 1-1-1V845a1 1 0 0 1 1-1h4.8a1 1 0 0 1 1 1v5.41a1 1 0 0 1-1 .99z" fill="#969696"/><path d="M136.34 854.45h-2.61a1 1 0 0 1-1-1v-3.12a1 1 0 0 1 1-1h2.61a1 1 0 0 1 1 1v3.12a1 1 0 0 1-1 1z" fill="#c8c8c8"/><path d="M137.44 851.4h-4.8a1 1 0 0 1-1-1V845a1 1 0 0 1 1-1h4.8a1 1 0 0 1 1 1v5.41a1 1 0 0 1-1 .99z" fill="#969696"/><path fill="#c8c8c8" d="M163.05 822.28h3.69v21.77h-3.69zm-29.86 0h3.69v21.77h-3.69z"/></svg>