<svg xmlns="http://www.w3.org/2000/svg" width="400" height="2300"><title>icons-nav</title><ellipse cx="250.02" cy="1868.69" rx="6.43" ry="6.31" fill="#199619"/><path d="M240.16 1850.43a10.46 10.46 0 0 1 3.57 7.8v2h12.58v-2a10.13 10.13 0 0 1 3.46-7.7 14.35 14.35 0 0 0 1.59-20.22l-.23-.26a15 15 0 0 0-20.86-1.33 14.32 14.32 0 0 0-1.59 20.2l.23.27a14.63 14.63 0 0 0 1.25 1.24z" fill="#faff64"/><path d="M253.08 1839.4a4 4 0 0 0-3.06 1.38 4 4 0 0 0-5.63-.41 3.87 3.87 0 0 0-.49 5.45l.07.08a4 4 0 0 0 3 1.36 4.17 4.17 0 0 0 2-.57v16.13h2v-16.12a3.93 3.93 0 0 0 2 .54 4 4 0 0 0 4-3.91 4 4 0 0 0-3.89-3.93zm-6.11 5.92a2 2 0 1 1 2-2 2 2 0 0 1-2 2zm6.11 0a2 2 0 1 1 2-2 2 2 0 0 1-2 2z" fill="#fac800"/><path d="M257.53 1860.2h-15a.3.3 0 0 0-.29.28v9.57a.46.46 0 0 0 .45.44h14.67a.43.43 0 0 0 .45-.41v-9.59a.3.3 0 0 0-.28-.29z" fill="#32e14b"/><path d="M250 1821.51a1.23 1.23 0 0 1-1.24-1.22v-4.07A1.23 1.23 0 0 1 250 1815a1.23 1.23 0 0 1 1.24 1.22v4.09a1.21 1.21 0 0 1-1.22 1.2zm18.35 18.04a1.23 1.23 0 0 1 1.23-1.22h4.18a1.24 1.24 0 0 1 1.24 1.22 1.24 1.24 0 0 1-1.24 1.22h-4.18a1.23 1.23 0 0 1-1.23-1.22zm-43.35 0a1.24 1.24 0 0 1 1.24-1.22h4.18a1.23 1.23 0 0 1 1.23 1.22 1.23 1.23 0 0 1-1.23 1.22h-4.18a1.24 1.24 0 0 1-1.24-1.22zm38-12.74a1.22 1.22 0 0 1 0-1.73l2.95-2.89a1.24 1.24 0 0 1 1.75 0 1.2 1.2 0 0 1 0 1.7l-3 2.9a1.26 1.26 0 0 1-1.7.02zm-30.66 30.12a1.2 1.2 0 0 1 0-1.71l2.95-2.89a1.24 1.24 0 0 1 1.75 0 1.24 1.24 0 0 1 0 1.73l-3 2.89a1.23 1.23 0 0 1-1.72 0zm30.66-4.62a1.26 1.26 0 0 1 1.76 0l2.94 2.89a1.2 1.2 0 0 1 0 1.7 1.26 1.26 0 0 1-1.76 0L263 1854a1.22 1.22 0 0 1 0-1.73zm-30.66-30.12a1.24 1.24 0 0 1 1.73 0l3 2.89a1.24 1.24 0 0 1 0 1.73 1.29 1.29 0 0 1-1.77 0l-2.94-2.9a1.2 1.2 0 0 1 0-1.7z" fill="#faff64"/><ellipse cx="150.02" cy="1868.69" rx="6.43" ry="6.31" fill="#646464"/><path d="M140.16 1850.43a10.46 10.46 0 0 1 3.57 7.8v2h12.58v-2a10.13 10.13 0 0 1 3.46-7.7 14.35 14.35 0 0 0 1.59-20.22l-.23-.26a15 15 0 0 0-20.86-1.33 14.32 14.32 0 0 0-1.59 20.2l.23.27a14.63 14.63 0 0 0 1.25 1.24z" fill="#faff64"/><path d="M153.08 1839.4a4 4 0 0 0-3.06 1.38 4 4 0 0 0-5.63-.41 3.87 3.87 0 0 0-.49 5.45l.07.08a4 4 0 0 0 3 1.36 4.17 4.17 0 0 0 2-.57v16.13h2v-16.12a3.93 3.93 0 0 0 2 .54 4 4 0 0 0 4-3.91 4 4 0 0 0-3.89-3.93zm-6.11 5.92a2 2 0 1 1 2-2 2 2 0 0 1-2 2zm6.11 0a2 2 0 1 1 2-2 2 2 0 0 1-2 2z" fill="#fac800"/><path d="M157.53 1860.2h-15a.3.3 0 0 0-.29.28v9.57a.46.46 0 0 0 .45.44h14.67a.43.43 0 0 0 .45-.41v-9.59a.3.3 0 0 0-.28-.29z" fill="#191919"/><path d="M150 1821.51a1.23 1.23 0 0 1-1.24-1.22v-4.07A1.23 1.23 0 0 1 150 1815a1.23 1.23 0 0 1 1.24 1.22v4.09a1.21 1.21 0 0 1-1.22 1.2zm18.35 18.04a1.23 1.23 0 0 1 1.23-1.22h4.18a1.24 1.24 0 0 1 1.24 1.22 1.24 1.24 0 0 1-1.24 1.22h-4.18a1.23 1.23 0 0 1-1.23-1.22zm-43.35 0a1.24 1.24 0 0 1 1.24-1.22h4.18a1.23 1.23 0 0 1 1.23 1.22 1.23 1.23 0 0 1-1.23 1.22h-4.18a1.24 1.24 0 0 1-1.24-1.22zm38-12.74a1.22 1.22 0 0 1 0-1.73l3-2.89a1.24 1.24 0 0 1 1.75 0 1.2 1.2 0 0 1 0 1.7l-3 2.9a1.26 1.26 0 0 1-1.75.02zm-30.66 30.12a1.2 1.2 0 0 1 0-1.71l2.95-2.89a1.24 1.24 0 0 1 1.75 0 1.24 1.24 0 0 1 0 1.73l-3 2.89a1.23 1.23 0 0 1-1.72 0zm30.66-4.62a1.26 1.26 0 0 1 1.76 0l2.94 2.89a1.2 1.2 0 0 1 0 1.7 1.26 1.26 0 0 1-1.76 0l-3-2.89a1.22 1.22 0 0 1 0-1.73h.06zm-30.66-30.12a1.24 1.24 0 0 1 1.73 0l3 2.89a1.24 1.24 0 0 1 0 1.73 1.29 1.29 0 0 1-1.77 0l-2.94-2.9a1.2 1.2 0 0 1 0-1.7z" fill="#faff64"/><ellipse cx="250.02" cy="1763.67" rx="6.52" ry="6.33" fill="#199619"/><path d="M240 1745.38a10.4 10.4 0 0 1 3.62 7.82v2h12.78v-2a10.11 10.11 0 0 1 3.5-7.72 14.24 14.24 0 0 0 1.81-20l-.42-.48a15.33 15.33 0 0 0-21.17-1.35 14.24 14.24 0 0 0-1.81 20l.42.48a13.42 13.42 0 0 0 1.26 1.24z" fill="#c8c8c8"/><path d="M253.11 1734.32a4.08 4.08 0 0 0-3.1 1.39 4.15 4.15 0 0 0-5.72-.44 3.85 3.85 0 0 0-.56 5.42l.11.13a4.1 4.1 0 0 0 3.07 1.38 4.29 4.29 0 0 0 2.07-.57v16.16h2v-16.15a4.13 4.13 0 0 0 5.56-1.38 3.87 3.87 0 0 0-1.3-5.32l-.12-.07a4.26 4.26 0 0 0-2.01-.55zm-6.2 5.94a2 2 0 1 1 .07 0zm6.2 0a2 2 0 1 1 .06 0z" fill="#afafaf"/><path d="M257.61 1755.17H242.4a.31.31 0 0 0-.29.28v9.55a.45.45 0 0 0 .45.45h14.89a.47.47 0 0 0 .47-.45v-9.59a.34.34 0 0 0-.31-.24z" fill="#32e14b"/><ellipse cx="350" cy="1763.67" rx="6.52" ry="6.33" fill="#3200af"/><path d="M340 1745.38a10.39 10.39 0 0 1 3.62 7.81v2h12.78v-2a10.09 10.09 0 0 1 3.5-7.71 14.24 14.24 0 0 0 1.81-20l-.42-.48a15.33 15.33 0 0 0-21.17-1.35 14.24 14.24 0 0 0-1.81 20l.42.48a14.75 14.75 0 0 0 1.26 1.24z" fill="#c8c8c8"/><path d="M353.11 1734.32a4.08 4.08 0 0 0-3.1 1.39 4.15 4.15 0 0 0-5.72-.44 3.84 3.84 0 0 0-.57 5.4l.12.14a4.07 4.07 0 0 0 3.07 1.38 4.18 4.18 0 0 0 2.07-.57v16.17h2v-16.16a4.12 4.12 0 0 0 5.56-1.37 3.87 3.87 0 0 0-1.3-5.32l-.12-.07a4.26 4.26 0 0 0-2.01-.55zm-6.2 5.93a2 2 0 1 1 .07 0zm6.2 0a2 2 0 1 1 .06 0z" fill="#afafaf"/><path d="M357.61 1755.17H342.4a.31.31 0 0 0-.29.28v9.55a.46.46 0 0 0 .45.45h14.89a.47.47 0 0 0 .47-.45v-9.59a.33.33 0 0 0-.31-.24z" fill="#6400fa"/><ellipse cx="150" cy="1763.68" rx="6.52" ry="6.32" fill="#646464"/><path d="M140 1745.39a10.42 10.42 0 0 1 3.61 7.81v2h12.76v-2a10.09 10.09 0 0 1 3.5-7.71 14.24 14.24 0 0 0 1.81-20.06c-.13-.15-.26-.31-.4-.46a15.33 15.33 0 0 0-21.17-1.37 14.24 14.24 0 0 0-1.81 20.06c.13.15.26.31.4.46a15.58 15.58 0 0 0 1.3 1.27z" fill="#c8c8c8"/><path d="M153.11 1734.34a4.18 4.18 0 0 0-3.1 1.39 4.14 4.14 0 0 0-5.71-.44 3.84 3.84 0 0 0-.58 5.4l.12.14a4.11 4.11 0 0 0 3.08 1.38 4.28 4.28 0 0 0 2.06-.57v16.16h2.07v-16.15a4.1 4.1 0 0 0 5.55-1.37 3.72 3.72 0 0 0 .57-2 4.05 4.05 0 0 0-4.06-3.94zm-6.19 5.93a2 2 0 1 1 .06 0zm6.19 0a2 2 0 1 1 .06 0z" fill="#afafaf"/><path d="M157.61 1755.18h-15.2a.29.29 0 0 0-.29.28v9.54a.47.47 0 0 0 .47.45h14.86a.45.45 0 0 0 .46-.44v-9.58a.29.29 0 0 0-.3-.25z" fill="#191919"/><ellipse cx="50" cy="1763.68" rx="6.52" ry="6.32" fill="#969696"/><path d="M40 1745.39a10.42 10.42 0 0 1 3.61 7.81v2h12.77v-2a10.09 10.09 0 0 1 3.5-7.71 14.25 14.25 0 0 0 1.79-20.06l-.38-.43a15.33 15.33 0 0 0-21.17-1.37 14.24 14.24 0 0 0-1.81 20.06c.13.15.26.31.4.46a15.58 15.58 0 0 0 1.3 1.27z" fill="#c8c8c8"/><path d="M53.11 1734.34a4.18 4.18 0 0 0-3.1 1.39 4.14 4.14 0 0 0-5.71-.44 3.84 3.84 0 0 0-.58 5.4l.12.14a4.11 4.11 0 0 0 3.08 1.38 4.28 4.28 0 0 0 2.06-.57v16.16h2.07v-16.15a4.1 4.1 0 0 0 5.55-1.37 3.72 3.72 0 0 0 .57-2 4.05 4.05 0 0 0-4.06-3.94zm-6.19 5.93a2 2 0 1 1 .06 0zm6.19 0a2 2 0 1 1 .06 0z" fill="#afafaf"/><path d="M57.61 1755.18h-15.2a.29.29 0 0 0-.29.28v9.54a.47.47 0 0 0 .47.45h14.86a.45.45 0 0 0 .46-.44v-9.58a.29.29 0 0 0-.3-.25zM75 1650.38v-10.77h-4.66a20.77 20.77 0 0 0-2.13-5.21l3.29-3.29-7.61-7.61-3.29 3.29a21 21 0 0 0-5.22-2.13V1620H44.62v4.66a21 21 0 0 0-5.22 2.13l-3.29-3.29-7.61 7.61 3.29 3.29a20.77 20.77 0 0 0-2.13 5.21H25v10.77h4.66a21 21 0 0 0 2.13 5.22l-3.29 3.29 7.61 7.61 3.29-3.3a20.5 20.5 0 0 0 5.22 2.14v4.66h10.76v-4.66a20.5 20.5 0 0 0 5.22-2.14l3.29 3.3 7.61-7.61-3.29-3.29a21 21 0 0 0 2.13-5.22zm-25 8A13.34 13.34 0 1 1 63.33 1645 13.34 13.34 0 0 1 50 1658.38z" fill="#fff"/><path d="M175 1650.38v-10.77h-4.66a20.77 20.77 0 0 0-2.13-5.21l3.29-3.29-7.61-7.61-3.29 3.29a21 21 0 0 0-5.22-2.13V1620h-10.76v4.66a21 21 0 0 0-5.22 2.13l-3.29-3.29-7.61 7.61 3.29 3.29a20.77 20.77 0 0 0-2.13 5.21H125v10.77h4.66a21 21 0 0 0 2.13 5.22l-3.29 3.29 7.61 7.61 3.29-3.3a20.5 20.5 0 0 0 5.22 2.14v4.66h10.76v-4.66a20.5 20.5 0 0 0 5.22-2.14l3.29 3.3 7.61-7.61-3.29-3.29a21 21 0 0 0 2.13-5.22zm-25 8a13.34 13.34 0 1 1 13.33-13.38 13.34 13.34 0 0 1-13.33 13.38z" fill="#191919"/><path d="M275 1650.38v-10.77h-4.66a20.77 20.77 0 0 0-2.13-5.21l3.29-3.29-7.61-7.61-3.29 3.29a21 21 0 0 0-5.22-2.13V1620h-10.76v4.66a21 21 0 0 0-5.22 2.13l-3.29-3.29-7.61 7.61 3.29 3.29a20.77 20.77 0 0 0-2.13 5.21H225v10.77h4.66a21 21 0 0 0 2.13 5.22l-3.29 3.29 7.61 7.61 3.29-3.3a20.5 20.5 0 0 0 5.22 2.14v4.66h10.76v-4.66a20.5 20.5 0 0 0 5.22-2.14l3.29 3.3 7.61-7.61-3.29-3.29a21 21 0 0 0 2.13-5.22zm-25 8a13.34 13.34 0 1 1 13.33-13.38 13.34 13.34 0 0 1-13.33 13.38z" fill="#32e14b"/><path d="M375 1650.38v-10.77h-4.66a20.77 20.77 0 0 0-2.13-5.21l3.29-3.29-7.61-7.61-3.29 3.29a21 21 0 0 0-5.22-2.13V1620h-10.76v4.66a21 21 0 0 0-5.22 2.13l-3.29-3.29-7.61 7.61 3.29 3.29a20.77 20.77 0 0 0-2.13 5.21H325v10.77h4.66a21 21 0 0 0 2.13 5.22l-3.29 3.29 7.61 7.61 3.29-3.3a20.5 20.5 0 0 0 5.22 2.14v4.66h10.76v-4.66a20.5 20.5 0 0 0 5.22-2.14l3.29 3.3 7.61-7.61-3.29-3.29a21 21 0 0 0 2.13-5.22zm-25 8a13.34 13.34 0 1 1 13.33-13.38 13.34 13.34 0 0 1-13.33 13.38z" fill="#6400fa"/><path d="M377.27 1446.86h-3a.22.22 0 0 1-.23-.21v-3.28a.23.23 0 0 1 .23-.23h3a.22.22 0 0 1 .23.21v3.3a.21.21 0 0 1-.2.22zm-51.54 0h-3a.22.22 0 0 1-.23-.21v-3.28a.23.23 0 0 1 .23-.23h3a.22.22 0 0 1 .23.21v3.3a.23.23 0 0 1-.23.21zm22.38 25.41v-3a.23.23 0 0 1 .23-.23h3.28a.23.23 0 0 1 .23.23v3a.23.23 0 0 1-.23.23h-3.28a.22.22 0 0 1-.23-.21zm0-51.54v-3a.23.23 0 0 1 .23-.23h3.28a.23.23 0 0 1 .23.23v3a.23.23 0 0 1-.23.23h-3.28a.26.26 0 0 1-.23-.23z" fill="#00007d"/><path d="M350 1418.1a26.89 26.89 0 1 0 26.88 26.9 26.89 26.89 0 0 0-26.88-26.9zm0 41.93a15 15 0 1 1 15-15 15 15 0 0 1-15 15z" fill="#0019af"/><path d="M375.26 1435.79a26.9 26.9 0 0 0-50.54 0 26.92 26.92 0 1 0 50.53 0zm-19.39 23A15 15 0 0 1 344.5 1431a14.92 14.92 0 0 1 20.6 13.87 15 15 0 0 1-9.23 13.94z" fill="#6400fa"/><path d="M376.88 1445a27.19 27.19 0 0 1-1.6 9.2 39.36 39.36 0 0 0-11.44-3.32 15 15 0 0 0 0-11.78 39.59 39.59 0 0 0 11.43-3.31 27 27 0 0 1 1.61 9.21zm-41.88 0a15 15 0 0 0 1.2 5.88 39.32 39.32 0 0 0-11.42 3.32 26.71 26.71 0 0 1-1.6-9.2 27.25 27.25 0 0 1 1.6-9.21 39.61 39.61 0 0 0 11.42 3.31 15.32 15.32 0 0 0-1.2 5.9zm24.19 25.26a27.19 27.19 0 0 1-9.2 1.6 26.55 26.55 0 0 1-9.21-1.62 40.19 40.19 0 0 0 3.31-11.41 15.06 15.06 0 0 0 11.78 0 39.29 39.29 0 0 0 3.32 11.43zm0-50.54a39.32 39.32 0 0 0-3.32 11.42A15 15 0 0 0 350 1430a15.32 15.32 0 0 0-5.9 1.2 39.55 39.55 0 0 0-3.31-11.41 27.2 27.2 0 0 1 18.41 0z" fill="#32007d"/><path d="M277.27 1446.86h-3a.22.22 0 0 1-.23-.21v-3.28a.23.23 0 0 1 .23-.23h3a.22.22 0 0 1 .23.21v3.3a.21.21 0 0 1-.2.22zm-51.54 0h-3a.22.22 0 0 1-.23-.21v-3.28a.23.23 0 0 1 .23-.23h3a.22.22 0 0 1 .23.21v3.3a.23.23 0 0 1-.23.21zm22.38 25.41v-3a.23.23 0 0 1 .23-.23h3.28a.23.23 0 0 1 .23.23v3a.23.23 0 0 1-.23.23h-3.28a.22.22 0 0 1-.23-.21zm0-51.54v-3a.23.23 0 0 1 .23-.23h3.28a.23.23 0 0 1 .23.23v3a.23.23 0 0 1-.23.23h-3.28a.26.26 0 0 1-.23-.23z" fill="#199619"/><path d="M250 1418.1a26.89 26.89 0 1 0 26.88 26.9 26.89 26.89 0 0 0-26.88-26.9zm0 41.93a15 15 0 1 1 15-15 15 15 0 0 1-15 15z" fill="#199619"/><path d="M275.26 1435.79a26.9 26.9 0 0 0-50.54 0 26.92 26.92 0 1 0 50.53 0zm-19.39 23A15 15 0 0 1 244.5 1431a14.92 14.92 0 0 1 20.6 13.87 15 15 0 0 1-9.23 13.94z" fill="#32e14b"/><path d="M276.88 1445a27.19 27.19 0 0 1-1.6 9.2 39.36 39.36 0 0 0-11.44-3.32 15 15 0 0 0 0-11.78 39.59 39.59 0 0 0 11.43-3.31 27 27 0 0 1 1.61 9.21zm-41.88 0a15 15 0 0 0 1.2 5.88 39.32 39.32 0 0 0-11.42 3.32 26.71 26.71 0 0 1-1.6-9.2 27.25 27.25 0 0 1 1.6-9.21 39.61 39.61 0 0 0 11.42 3.31 15.32 15.32 0 0 0-1.2 5.9zm24.19 25.26a27.19 27.19 0 0 1-9.2 1.6 26.55 26.55 0 0 1-9.21-1.62 40.19 40.19 0 0 0 3.31-11.41 15.06 15.06 0 0 0 11.78 0 39.29 39.29 0 0 0 3.32 11.43zm0-50.54a39.32 39.32 0 0 0-3.32 11.42A15 15 0 0 0 250 1430a15.32 15.32 0 0 0-5.9 1.2 39.55 39.55 0 0 0-3.31-11.41 27.2 27.2 0 0 1 18.41 0z" fill="#199619"/><path d="M148.11 1472.07v-3a.23.23 0 0 1 .23-.23h3.28a.23.23 0 0 1 .23.23v3a.23.23 0 0 1-.23.23h-3.28a.23.23 0 0 1-.23-.21zm29.16-24.87h-3a.22.22 0 0 1-.23-.21v-3.32a.23.23 0 0 1 .23-.23h3a.23.23 0 0 1 .23.21v3.35a.21.21 0 0 1-.19.23zm-51.54 0h-3a.24.24 0 0 1-.23-.22v-3.32a.23.23 0 0 1 .23-.23h3a.22.22 0 0 1 .23.21v3.36a.26.26 0 0 1-.23.2zm22.38-26.43v-3a.23.23 0 0 1 .23-.23h3.28a.23.23 0 0 1 .23.23v3a.23.23 0 0 1-.23.23h-3.28a.26.26 0 0 1-.23-.23z"/><path d="M150 1418.11a27.2 27.2 0 1 0 26.89 27.51v-.32a27 27 0 0 0-26.81-27.19zm0 42.4a15.18 15.18 0 1 1 15-15.36v.18a15.1 15.1 0 0 1-15 15.18z" fill="#646464"/><path d="M175.26 1436a26.8 26.8 0 0 0-50.54 0 27.29 27.29 0 0 0 16.06 34.86 26.85 26.85 0 0 0 18.41 0 27.32 27.32 0 0 0 16-34.88zm-19.39 23.27a15 15 0 0 1-19.55-8.24v-.06a15.23 15.23 0 0 1 8.2-19.79 14.44 14.44 0 0 1 11.37.07 15.29 15.29 0 0 1 0 28.06z" fill="#191919"/><path d="M176.88 1445.3a27.87 27.87 0 0 1-1.6 9.31 39.12 39.12 0 0 0-11.44-3.36 15.31 15.31 0 0 0 0-11.92 38.65 38.65 0 0 0 11.43-3.35 27.64 27.64 0 0 1 1.61 9.32zm-41.88 0a15.27 15.27 0 0 0 1.2 6 38.91 38.91 0 0 0-11.42 3.36 27.37 27.37 0 0 1-1.6-9.31 27.87 27.87 0 0 1 1.6-9.31 38.87 38.87 0 0 0 11.42 3.34 15.65 15.65 0 0 0-1.2 5.92zm24.19 25.56a27 27 0 0 1-9.2 1.62 26.34 26.34 0 0 1-9.21-1.64 41.06 41.06 0 0 0 3.31-11.53 15 15 0 0 0 11.78 0 40.05 40.05 0 0 0 3.32 11.55zm0-51.11a40.05 40.05 0 0 0-3.32 11.55 14.67 14.67 0 0 0-5.88-1.17 14.94 14.94 0 0 0-5.9 1.21 40.38 40.38 0 0 0-3.31-11.54 26.85 26.85 0 0 1 18.41 0z" fill="#646464"/><path d="M77.27 1446.86h-3a.22.22 0 0 1-.23-.21v-3.28a.23.23 0 0 1 .23-.23h3a.22.22 0 0 1 .23.21v3.3a.21.21 0 0 1-.2.22zm-51.54 0h-3a.22.22 0 0 1-.23-.21v-3.28a.23.23 0 0 1 .23-.23h3a.22.22 0 0 1 .23.21v3.3a.23.23 0 0 1-.23.21zm22.38 25.41v-3a.23.23 0 0 1 .23-.23h3.28a.23.23 0 0 1 .23.23v3a.23.23 0 0 1-.23.23h-3.28a.22.22 0 0 1-.23-.21zm0-51.54v-3a.23.23 0 0 1 .23-.23h3.28a.23.23 0 0 1 .23.23v3a.23.23 0 0 1-.23.23h-3.28a.26.26 0 0 1-.23-.23z" fill="#969696"/><path d="M50 1418.1a26.89 26.89 0 1 0 26.88 26.9A26.89 26.89 0 0 0 50 1418.1zm0 41.9a15 15 0 1 1 15-15 15 15 0 0 1-15 15z" fill="#fff"/><path d="M75.26 1435.79a26.9 26.9 0 0 0-50.54 0 26.92 26.92 0 1 0 50.53 0zm-19.39 23a14.81 14.81 0 1 1 8-7.83 15 15 0 0 1-8 7.83z" fill="#969696"/><path d="M76.88 1445a27.19 27.19 0 0 1-1.6 9.2 39.36 39.36 0 0 0-11.44-3.32 15 15 0 0 0 0-11.78 39.59 39.59 0 0 0 11.43-3.31 27 27 0 0 1 1.61 9.21zM35 1445a15 15 0 0 0 1.2 5.88 39.32 39.32 0 0 0-11.42 3.32 26.71 26.71 0 0 1-1.6-9.2 27.25 27.25 0 0 1 1.6-9.21 39.61 39.61 0 0 0 11.42 3.31 15.32 15.32 0 0 0-1.2 5.9zm24.19 25.26a27.19 27.19 0 0 1-9.2 1.6 26.55 26.55 0 0 1-9.21-1.62 40.19 40.19 0 0 0 3.31-11.41 15.06 15.06 0 0 0 11.78 0 39.29 39.29 0 0 0 3.32 11.43zm0-50.54a39.32 39.32 0 0 0-3.32 11.42A15 15 0 0 0 50 1430a15.32 15.32 0 0 0-5.9 1.2 39.55 39.55 0 0 0-3.31-11.41 27.2 27.2 0 0 1 18.41 0zm24.12 137.41v-6.35a2.87 2.87 0 0 0-2.92-2.82h-52.7a2.87 2.87 0 0 0-2.93 2.81v7.32a2.87 2.87 0 0 0 2.92 2.82h51.75l5.57 1.59z" fill="#fff"/><path d="M16.64 1536.67v-6.35a2.87 2.87 0 0 1 2.92-2.82h52.7a2.87 2.87 0 0 1 2.93 2.81v7.32a2.87 2.87 0 0 1-2.92 2.82h-51.7L15 1542z" fill="#969696"/><path d="M283.36 1557.13v-6.35a2.87 2.87 0 0 0-2.92-2.82H227.7a2.88 2.88 0 0 0-2.93 2.8v7.34a2.87 2.87 0 0 0 2.91 2.82h51.74l5.58 1.58z" fill="#32e14b"/><path d="M216.64 1536.67v-6.35a2.87 2.87 0 0 1 2.92-2.82h52.74a2.88 2.88 0 0 1 2.93 2.8v7.34a2.87 2.87 0 0 1-2.91 2.82h-51.74L215 1542z" fill="#199619"/><path d="M383.36 1557.13v-6.35a2.87 2.87 0 0 0-2.92-2.82H327.7a2.88 2.88 0 0 0-2.93 2.8v7.34a2.87 2.87 0 0 0 2.91 2.82h51.74l5.58 1.58z" fill="#6400fa"/><path d="M316.64 1536.67v-6.35a2.87 2.87 0 0 1 2.92-2.82h52.74a2.88 2.88 0 0 1 2.93 2.8v7.34a2.87 2.87 0 0 1-2.91 2.82h-51.74L315 1542z" fill="#32007d"/><path d="M183.36 1557.13v-6.35a2.87 2.87 0 0 0-2.92-2.82H127.7a2.88 2.88 0 0 0-2.93 2.8v7.34a2.87 2.87 0 0 0 2.91 2.82h51.74l5.58 1.58z" fill="#646464"/><path d="M116.64 1536.67v-6.35a2.87 2.87 0 0 1 2.92-2.82h52.74a2.88 2.88 0 0 1 2.93 2.8v7.34a2.87 2.87 0 0 1-2.91 2.82h-51.74L115 1542z" fill="#191919"/><path d="M60.56 1057.56h-20a1.9 1.9 0 0 0-1.88 1.92v6.58a1.92 1.92 0 0 0 1.92 1.94h20a1.91 1.91 0 0 0 1.87-1.93v-6.58a1.9 1.9 0 0 0-1.87-1.93z" fill="#afafaf"/><path d="M60.56 1057.56h-10V1068h10a1.91 1.91 0 0 0 1.87-1.93v-6.58a1.9 1.9 0 0 0-1.87-1.93z" fill="#969696"/><path d="M71.78 1033.06H29.37a1.91 1.91 0 0 0-1.87 1.94v12.89a13.36 13.36 0 0 0 13.1 13.55h20a13.36 13.36 0 0 0 13.1-13.55V1035a1.92 1.92 0 0 0-1.92-1.94z" fill="#fff"/><path d="M75.65 1049.82h-3.87a1.91 1.91 0 0 1-1.87-1.94v-10.33a1.91 1.91 0 0 1 1.87-1.94h3.87a7.1 7.1 0 0 1 0 14.19zm-2-3.87h2a3.16 3.16 0 0 0 3.32-3 3.2 3.2 0 0 0-2.92-3.43h-2.4z" fill="#969696"/><path d="M71.78 1033.06h-21.2v28.37h10a13.36 13.36 0 0 0 13.1-13.55V1035a1.9 1.9 0 0 0-1.87-1.93z" fill="#afafaf"/><path d="M43.82 1025.19a9.26 9.26 0 0 1 1.82-11.8 5.28 5.28 0 0 0 .67-7.24 4.85 4.85 0 0 0-.67-.69 2 2 0 0 1-.28-2.74 1.84 1.84 0 0 1 2.59-.33h.06a9.26 9.26 0 0 1 1.2 12.72 10 10 0 0 1-1.2 1.24 5.28 5.28 0 0 0-1 6.75 2 2 0 0 1-.62 2.66 1.84 1.84 0 0 1-2.54-.58zm9.98 0a9.25 9.25 0 0 1 1.83-11.8 1.84 1.84 0 0 1 2.57.38v.07a2 2 0 0 1-.24 2.55 5.28 5.28 0 0 0-1 6.75 2 2 0 0 1-.82 2.6 1.82 1.82 0 0 1-2.32-.54h-.02z" fill="#fff"/><path d="M260.56 1057.55h-20a1.91 1.91 0 0 0-1.88 1.93v6.58a1.93 1.93 0 0 0 1.88 1.93h20a1.91 1.91 0 0 0 1.87-1.93v-6.58a1.91 1.91 0 0 0-1.87-1.94z" fill="#19c819"/><path d="M260.56 1057.55h-10V1068h10a1.91 1.91 0 0 0 1.87-1.93v-6.58a1.91 1.91 0 0 0-1.87-1.94z" fill="#199619"/><path d="M271.78 1033h-42.41a1.91 1.91 0 0 0-1.87 1.94v12.89a13.36 13.36 0 0 0 13.1 13.55h20a13.36 13.36 0 0 0 13.1-13.55V1035a1.91 1.91 0 0 0-1.88-1.94z" fill="#32e14b"/><path d="M275.65 1049.81h-3.87a1.91 1.91 0 0 1-1.87-1.94v-10.34a1.9 1.9 0 0 1 1.87-1.93h3.87a7.1 7.1 0 0 1 0 14.19zm-2-3.87h2a3.16 3.16 0 0 0 3.32-3 3.2 3.2 0 0 0-2.92-3.43h-2.4z" fill="#199619"/><path d="M271.78 1033h-21.2v28.38h10a13.36 13.36 0 0 0 13.1-13.55V1035a1.91 1.91 0 0 0-1.88-1.94z" fill="#19c819"/><path d="M243.82 1025.17a9.27 9.27 0 0 1 1.82-11.81 5.28 5.28 0 0 0 .67-7.24 4.85 4.85 0 0 0-.67-.69 2 2 0 0 1-.25-2.72 1.83 1.83 0 0 1 2.57-.33l.07.06a9.24 9.24 0 0 1 1.2 12.71 9.8 9.8 0 0 1-1.21 1.2 5.29 5.29 0 0 0-1 6.76 2 2 0 0 1-.62 2.66 1.84 1.84 0 0 1-2.54-.58zm9.98 0a9.25 9.25 0 0 1 1.83-11.81 1.84 1.84 0 0 1 2.57.38l.05.07a2 2 0 0 1-.24 2.55 5.28 5.28 0 0 0-1.05 6.76 2 2 0 0 1-.61 2.66 1.84 1.84 0 0 1-2.54-.58z" fill="#32e14b"/><path d="M360.56 1057.55h-20a1.91 1.91 0 0 0-1.88 1.93v6.58a1.93 1.93 0 0 0 1.88 1.93h20a1.91 1.91 0 0 0 1.87-1.93v-6.58a1.91 1.91 0 0 0-1.87-1.94z" fill="#4b00c8"/><path d="M360.56 1057.55h-10V1068h10a1.91 1.91 0 0 0 1.87-1.93v-6.58a1.91 1.91 0 0 0-1.87-1.94z" fill="#32007d"/><path d="M371.78 1033h-42.41a1.91 1.91 0 0 0-1.87 1.94v12.89a13.36 13.36 0 0 0 13.1 13.55h20a13.36 13.36 0 0 0 13.1-13.55V1035a1.93 1.93 0 0 0-1.86-2z" fill="#6400fa"/><path d="M375.65 1049.81h-3.87a1.91 1.91 0 0 1-1.87-1.94v-10.34a1.9 1.9 0 0 1 1.87-1.93h3.87a7.1 7.1 0 0 1 0 14.19zm-2-3.87h2a3.16 3.16 0 0 0 3.32-3 3.2 3.2 0 0 0-2.92-3.43h-2.4z" fill="#32007d"/><path d="M371.78 1033h-21.2v28.38h10a13.36 13.36 0 0 0 13.1-13.55V1035a1.91 1.91 0 0 0-1.88-1.94z" fill="#3200af"/><path d="M343.82 1025.17a9.27 9.27 0 0 1 1.82-11.81 5.28 5.28 0 0 0 .67-7.24 4.85 4.85 0 0 0-.67-.69 2 2 0 0 1-.25-2.72 1.83 1.83 0 0 1 2.57-.33l.07.06a9.24 9.24 0 0 1 1.2 12.71 9.8 9.8 0 0 1-1.21 1.2 5.29 5.29 0 0 0-1 6.76 2 2 0 0 1-.33 2.71 1.82 1.82 0 0 1-2.56-.25l-.06-.08a2.14 2.14 0 0 1-.2-.32h-.05zm9.98 0a9.25 9.25 0 0 1 1.83-11.81 1.84 1.84 0 0 1 2.57.38l.05.07a2 2 0 0 1-.24 2.55 5.28 5.28 0 0 0-1.05 6.76 2 2 0 0 1-.61 2.66 1.84 1.84 0 0 1-2.54-.58z" fill="#6400fa"/><path d="M160.72 1057.55h-18.31a1.84 1.84 0 0 0-1.71 1.93v6.52a1.85 1.85 0 0 0 1.71 1.94h18.31a1.84 1.84 0 0 0 1.71-1.94v-6.55a1.84 1.84 0 0 0-1.71-1.9z" fill="#323232"/><path d="M160.56 1057.55h-10V1068h10a1.91 1.91 0 0 0 1.87-1.93v-6.58a1.91 1.91 0 0 0-1.87-1.94z" fill="#191919"/><path d="M171.78 1033h-42.41a1.91 1.91 0 0 0-1.87 1.94v12.89a13.36 13.36 0 0 0 13.1 13.55h20a13.36 13.36 0 0 0 13.1-13.55V1035a1.91 1.91 0 0 0-1.88-1.94z" fill="#646464"/><path d="M175.65 1049.81h-3.87a1.91 1.91 0 0 1-1.87-1.94v-10.34a1.9 1.9 0 0 1 1.87-1.93h3.87a7.1 7.1 0 0 1 0 14.19zm-2-3.87h2a3.16 3.16 0 0 0 3.32-3 3.2 3.2 0 0 0-2.92-3.43h-2.4z"/><path d="M171.78 1033h-21.2v28.38h10a13.36 13.36 0 0 0 13.1-13.55V1035a1.91 1.91 0 0 0-1.88-1.94z" fill="#191919"/><path d="M143.82 1025.17a9.27 9.27 0 0 1 1.82-11.81 5.28 5.28 0 0 0 .67-7.24 4.85 4.85 0 0 0-.67-.69 2 2 0 0 1-.25-2.72 1.83 1.83 0 0 1 2.57-.33l.07.06a9.24 9.24 0 0 1 1.2 12.71 9.8 9.8 0 0 1-1.21 1.2 5.29 5.29 0 0 0-1 6.76 2 2 0 0 1-.62 2.66 1.84 1.84 0 0 1-2.54-.58zm9.98 0a9.25 9.25 0 0 1 1.83-11.81 1.84 1.84 0 0 1 2.57.38l.05.07a2 2 0 0 1-.24 2.55 5.29 5.29 0 0 0-1 6.76 2 2 0 0 1-.61 2.66 1.84 1.84 0 0 1-2.54-.58z" fill="#646464"/><path d="M245.05 945.6l-4.68-8 4.68-8.07h9.38l4.69 8.07-4.69 8zm-9.96-30.6h29.71v12.66h-29.71z" fill="#199619"/><path d="M264.91 915l-14.82 14.49 9.49 14.12 10.42-19zm-29.82 0l15 14.49-9.67 14.12-10.42-19zM258 976.18l-8.44 8.82-8.26-8.82 3.7-30.58h9.27z" fill="#32e14b"/><path d="M345.05 945.6l-4.68-8 4.68-8.07h9.38l4.69 8.07-4.69 8zm-9.96-30.6h29.71v12.66h-29.71z" fill="#3200af"/><path d="M364.91 915l-14.82 14.49 9.49 14.12 10.42-19zm-29.82 0l15 14.49-9.67 14.12-10.42-19zM358 976.18l-8.44 8.82-8.26-8.82 3.7-30.58h9.27z" fill="#6400fa"/><path d="M145.05 945.6l-4.68-8 4.68-8.07h9.38l4.69 8.07-4.69 8z" fill="#191919"/><path fill="#323232" d="M135.09 915h29.71v12.66h-29.71z"/><path d="M164.91 915l-14.82 14.49 9.49 14.12 10.42-19zm-29.82 0l15 14.49-9.67 14.12-10.42-19zM158 976.18l-8.44 8.82-8.26-8.82 3.7-30.58h9.27z" fill="#646464"/><path d="M45.05 945.6l-4.68-8 4.68-8.07h9.38l4.69 8.07-4.69 8z" fill="#c8c8c8"/><path fill="#afafaf" d="M35.09 915H64.8v12.66H35.09z"/><path d="M64.91 915l-14.82 14.49 9.49 14.12 10.42-19z" fill="#fff"/><path d="M35.09 915l15 14.49-9.67 14.12L30 924.57zM58 976.18L49.56 985l-8.26-8.82L45 945.6h9.27zm-21.26-605.6l7.69-6.24L56.92 375l20.58-50-55 20.64 18.34 15.64z" fill="#fff"/><path d="M32.65 354.29l4.09 16.29 4.1-9.3L77.5 325z" fill="#afafaf"/><path d="M350 264.8v-10.18h-3.14l.48-5.23a3.46 3.46 0 0 1 0-4.89 1.14 1.14 0 0 1 .11-.11 3.82 3.82 0 0 1 2.59-1v-10.2a.2.2 0 0 1 .2-.2h-7.3v-4.51a6.72 6.72 0 0 1 7.1-6.25V215c-7.79-.14-14.24 5.77-14.39 13.21V233h-3.73a1.84 1.84 0 0 0-1.88 1.8v28.37a1.87 1.87 0 0 0 1.9 1.81h18.31a.19.19 0 0 1-.25-.18z" fill="#6400fa"/><path fill="#004bfa" d="M350 254.62v-11.27 11.27z"/><path d="M367.86 233h-3.47v1.53-6.31c-.15-7.43-6.58-13.35-14.37-13.21v7.23a7.53 7.53 0 0 1 5 1.83 5.81 5.81 0 0 1 2.08 4.42V233h-6.87a.2.2 0 0 0-.21.19v10.16a3.65 3.65 0 0 1 3.72 3.56v.09a3.61 3.61 0 0 1-1 2.36l.48 5.23H350v10.21a.2.2 0 0 0 .2.2h17.9a1.87 1.87 0 0 0 1.9-1.81V235a2.1 2.1 0 0 0-2.14-2z" fill="#3200af"/><path d="M250 243.35v-10.16a.2.2 0 0 1 .2-.2h-7.3v-4.51a6.72 6.72 0 0 1 7.1-6.25V215c-7.79-.14-14.24 5.77-14.39 13.21V233h-3.73a1.84 1.84 0 0 0-1.88 1.8v28.37a1.87 1.87 0 0 0 1.9 1.81h18.31a.21.21 0 0 1-.21-.17v-10.19h-3.14l.48-5.23a3.46 3.46 0 0 1 0-4.89l.11-.11a3.84 3.84 0 0 1 2.55-1.04z" fill="#32e14b"/><path fill="#78db99" d="M250 254.62v-11.27 11.27z"/><path d="M267.86 233h-3.47v1.53-6.31c-.15-7.43-6.58-13.35-14.37-13.21v7.23a7.53 7.53 0 0 1 5 1.83 5.81 5.81 0 0 1 2.08 4.42V233h-6.87a.2.2 0 0 0-.21.19v10.16a3.65 3.65 0 0 1 3.72 3.56v.09a3.57 3.57 0 0 1-1.05 2.36l.48 5.23H250v10.21a.2.2 0 0 0 .2.2h17.9a1.87 1.87 0 0 0 1.9-1.81V235a2.1 2.1 0 0 0-2.14-2z" fill="#199619"/><path d="M50 264.8v-10.18h-3.14l.48-5.23a3.46 3.46 0 0 1 0-4.89l.11-.11a3.82 3.82 0 0 1 2.59-1v-10.2a.2.2 0 0 1 .2-.2H42.9v-4.51a6.72 6.72 0 0 1 7.1-6.25V215c-7.79-.14-14.24 5.77-14.39 13.21V233h-3.73a1.84 1.84 0 0 0-1.88 1.8v28.37a1.86 1.86 0 0 0 1.89 1.83h18.32a.22.22 0 0 1-.21-.2z" fill="#fff"/><path d="M53.14 254.62l-.48-5.23a3.5 3.5 0 0 0 1.06-2.48 3.5 3.5 0 0 1-1.06 2.48zm-3.14 0v-11.27 11.27z" fill="#c8c8c8"/><path d="M67.86 233h-3.47v1.53-6.31c-.17-7.44-6.6-13.36-14.39-13.22v7.23a7.53 7.53 0 0 1 5 1.83 5.81 5.81 0 0 1 2.08 4.42V233h-6.87a.2.2 0 0 0-.21.19v10.16a3.65 3.65 0 0 1 3.72 3.57 3.58 3.58 0 0 1-1.06 2.47l.48 5.23H50v10.18a.2.2 0 0 0 .2.2h17.9a1.87 1.87 0 0 0 1.9-1.81V235a2.1 2.1 0 0 0-2.14-2z" fill="#afafaf"/><path d="M150 264.8v-10.18h-3.14l.48-5.23a3.46 3.46 0 0 1 0-4.89l.11-.11a3.82 3.82 0 0 1 2.59-1v-10.2a.2.2 0 0 1 .2-.2h-7.3v-4.51a6.72 6.72 0 0 1 7.1-6.25V215c-7.79-.14-14.24 5.77-14.39 13.21V233h-3.73a1.84 1.84 0 0 0-1.88 1.8v28.37a1.87 1.87 0 0 0 1.9 1.81h18.31a.21.21 0 0 1-.25-.18z" fill="#646464"/><path d="M153.14 254.62l-.48-5.23a3.5 3.5 0 0 0 1.06-2.48 3.5 3.5 0 0 1-1.06 2.48zm-3.14 0v-11.27 11.27z" fill="#323232"/><path d="M167.86 233h-3.47v1.53-6.31c-.15-7.43-6.58-13.35-14.37-13.21v7.23a7.53 7.53 0 0 1 5 1.83 5.81 5.81 0 0 1 2.08 4.42V233h-6.87a.2.2 0 0 0-.21.19v10.16a3.65 3.65 0 0 1 3.72 3.57 3.58 3.58 0 0 1-1.06 2.47l.48 5.23H150v10.18a.2.2 0 0 0 .2.2h17.9a1.87 1.87 0 0 0 1.9-1.81V235a2.1 2.1 0 0 0-2.14-2z" fill="#191919"/><path d="M253.8 145.48a14.93 14.93 0 1 0-8.32 8.32l4.78 4.78h1.28v1.28l3.16 3.14 2.78.22.22 2.78 2.52 2.52 2 .07.06 2 4.4 4.39 7.55-.77.77-7.55zm-15.41-7.09a3.44 3.44 0 1 1 0-4.87 3.43 3.43 0 0 1 0 4.87z" fill="#32e14b"/><path d="M353.8 145.48a14.93 14.93 0 1 0-8.32 8.32l4.78 4.78h1.28v1.28l3.16 3.14 2.78.22.22 2.78 2.52 2.52 2 .07.06 2 4.4 4.39 7.55-.77.77-7.55zm-15.41-7.09a3.44 3.44 0 1 1 0-4.87 3.43 3.43 0 0 1 0 4.87z" fill="#6400fa"/><path d="M153.8 145.48a14.93 14.93 0 1 0-8.32 8.32l4.78 4.78h1.28v1.28l3.16 3.14 2.78.22.22 2.78 2.52 2.52 2 .07.06 2 4.4 4.39 7.55-.77.77-7.55zm-15.41-7.09a3.44 3.44 0 1 1 0-4.87 3.43 3.43 0 0 1 0 4.87z" fill="#191919"/><path d="M38.83 134c.05.08.09.17.13.25a.85.85 0 0 1-.13-.25zm-5.73 3.88c-.06-.1-.1-.2-.16-.3.06.1.06.2.16.3zm-.32-.6a.79.79 0 0 1-.06-.22.79.79 0 0 0 .06.22zm6.36-2.63a4 4 0 0 1 .15.49 4 4 0 0 0-.15-.49zm.26 1.35a3.43 3.43 0 0 1-3.48 3.38 3.47 3.47 0 0 1-2.7-1.38 3.68 3.68 0 0 0 .31.38 3.44 3.44 0 0 0 5.78-3.14 3.22 3.22 0 0 1 .09.76z" fill="none"/><path d="M53.81 145.48a14.94 14.94 0 1 0-24.44 5 14.87 14.87 0 0 0 16.11 3.31l4.78 4.78h1.29v1.28l3.14 3.15 2.78.22.22 2.78 2.52 2.52 2 .07.06 2 4.4 4.39 7.56-.77.77-7.55zm-15.42-7.08a3.46 3.46 0 0 1-4.86 0c-.11-.12-.21-.25-.31-.38l-.12-.14c-.06-.1-.1-.2-.16-.3l-.16-.3-.06-.22a3.75 3.75 0 0 1-.2-1.1 3.44 3.44 0 0 1 6.3-1.93c0 .08.08.17.13.25l.18.34a4 4 0 0 1 .15.49v.14a3.42 3.42 0 0 1-.89 3.15z" fill="#fff"/><path d="M39.29 135.14v.14a.33.33 0 0 0 0-.14zM33.22 138l-.12-.14zm5.78-3.69l.18.34zm-6.06 3.27l-.16-.3zm.6-4.04a3.42 3.42 0 0 1 4.84 0 4.24 4.24 0 0 1 .43.52 3.44 3.44 0 0 0-6.31 1.9 3.15 3.15 0 0 0 .2 1.1 3.4 3.4 0 0 1 .84-3.52z" fill="#fff"/><path d="M260.13 1226.09h-20.27a1 1 0 0 1-.76-.33.87.87 0 0 1-.2-.8l2.26-9.23a1 1 0 0 1 1-.73h15.76a1 1 0 0 1 .95.73l2.26 9.23a.84.84 0 0 1-.2.8 1 1 0 0 1-.8.33zm-19-1.93h17.77l-1.78-7.3h-14.24z" fill="#19c819"/><path d="M272.12 1265h-44.24a2.88 2.88 0 0 1-2.95-2.81v-25.34a2.87 2.87 0 0 1 2.89-2.86h44.3a2.88 2.88 0 0 1 2.95 2.81v25.34a2.93 2.93 0 0 1-2.95 2.86z" fill="#199619"/><path d="M271.64 1246.87h-43.32a5.73 5.73 0 0 1-5.82-5.63v-16.83a2.43 2.43 0 0 1 2.5-2.41h50a2.44 2.44 0 0 1 2.46 2.38v16.83a5.76 5.76 0 0 1-5.84 5.63zm-5.41 5.83h-2.6a.94.94 0 0 1-1-.88v-3a.93.93 0 0 1 .92-.93h2.65a.93.93 0 0 1 1 .86v3a.93.93 0 0 1-.92.93z" fill="#32e14b"/><path d="M267.33 1249.78h-4.8a.93.93 0 0 1-1-.84v-5.22a.93.93 0 0 1 .92-.93h4.84a.93.93 0 0 1 1 .86v5.21a.93.93 0 0 1-.91.92z" fill="#32c864"/><path d="M236.36 1252.7h-2.6a.91.91 0 0 1-.95-.87v-3a.91.91 0 0 1 .89-.93h2.66a.94.94 0 0 1 1 .88v3a1 1 0 0 1-1 .92z" fill="#32e14b"/><path d="M237.46 1249.78h-4.8a.91.91 0 0 1-.95-.86v-5.23a.92.92 0 0 1 .9-.93h4.85a.93.93 0 0 1 1 .86v5.21a1 1 0 0 1-1 .95z" fill="#32c864"/><path fill="#199619" d="M263.08 1221.96h3.7v20.8h-3.7zm-29.87 0h3.7v20.8h-3.7z"/><path d="M360.1 1226.09h-20.27a1 1 0 0 1-.75-.33.82.82 0 0 1-.21-.8l2.26-9.23a1 1 0 0 1 1-.73h15.76a1 1 0 0 1 1 .73l2.26 9.23a.82.82 0 0 1-.21.8 1 1 0 0 1-.84.33zm-19-1.93h17.8l-1.78-7.3h-14.28z" fill="#3200af"/><path d="M372.09 1265h-44.25a2.88 2.88 0 0 1-2.94-2.82v-25.32a2.88 2.88 0 0 1 2.9-2.86h44.29a2.88 2.88 0 0 1 2.94 2.82v25.32a2.92 2.92 0 0 1-2.94 2.86z" fill="#32007d"/><path d="M371.61 1246.87h-43.29a5.72 5.72 0 0 1-5.82-5.62v-16.83a2.41 2.41 0 0 1 2.43-2.41H375a2.42 2.42 0 0 1 2.47 2.37v16.85a5.76 5.76 0 0 1-5.86 5.63zm-5.41 5.83h-2.6a.92.92 0 0 1-1-.83v-3.09a.91.91 0 0 1 .89-.93h2.71a.93.93 0 0 1 1 .84v3.09a.91.91 0 0 1-.89.93h-.11z" fill="#6400fa"/><path d="M367.29 1249.78h-4.79a.93.93 0 0 1-1-.84v-5.25a.91.91 0 0 1 .89-.93h4.9a1 1 0 0 1 1 .86v5.24a.92.92 0 0 1-.92.92h-.08z" fill="#3200af"/><path d="M336.33 1252.7h-2.6a.94.94 0 0 1-1-.86v-3.07a.93.93 0 0 1 .93-.93h2.67a.92.92 0 0 1 1 .83v3.09a1 1 0 0 1-1 .94z" fill="#6400fa"/><path d="M337.43 1249.78h-4.79a.93.93 0 0 1-1-.84v-5.25a.91.91 0 0 1 .89-.93h4.9a.93.93 0 0 1 1 .84v5.26a1 1 0 0 1-1 .92z" fill="#3200af"/><path fill="#4b00c8" d="M363.05 1221.96h3.7v20.8h-3.7zm-29.86 0h3.7v20.8h-3.7z"/><path d="M60.11 1226.09H39.83a1 1 0 0 1-.75-.33.82.82 0 0 1-.21-.8l2.26-9.23a1 1 0 0 1 1-.73h15.71a1 1 0 0 1 1 .73l2.23 9.27a.84.84 0 0 1-.2.8 1 1 0 0 1-.76.29zm-19-1.93h17.78l-1.78-7.3H42.85zM72.09 1265H27.84a2.89 2.89 0 0 1-3-2.78v-25.35a2.88 2.88 0 0 1 2.9-2.86h44.35a2.88 2.88 0 0 1 3 2.76v25.35a3 3 0 0 1-3 2.88z" fill="#afafaf"/><path d="M71.6 1248.35H28.33a5.86 5.86 0 0 1-5.83-5.89v-17.61a2.47 2.47 0 0 1 2.44-2.49H75a2.47 2.47 0 0 1 2.47 2.46v17.61a5.89 5.89 0 0 1-5.85 5.9zm-5.4 6.1h-2.61a1 1 0 0 1-1-1v-3.12a1 1 0 0 1 1-1h2.61a1 1 0 0 1 1 1v3.12a1 1 0 0 1-1 1z" fill="#fff"/><path d="M67.3 1251.4h-4.8a1 1 0 0 1-1-1v-5.4a1 1 0 0 1 1-1h4.8a1 1 0 0 1 1 1v5.41a1 1 0 0 1-1 .99z" fill="#969696"/><path d="M36.34 1254.45h-2.61a1 1 0 0 1-1-1v-3.12a1 1 0 0 1 1-1h2.61a1 1 0 0 1 1 1v3.12a1 1 0 0 1-1 1z" fill="#fff"/><path d="M37.44 1251.4h-4.8a1 1 0 0 1-1-1v-5.4a1 1 0 0 1 1-1h4.8a1 1 0 0 1 1 1v5.41a1 1 0 0 1-1 .99z" fill="#969696"/><path fill="#c8c8c8" d="M63.05 1222.28h3.69v21.77h-3.69zm-29.86 0h3.69v21.77h-3.69z"/><path d="M249.88 1122.07c3 0 5.35-3.07 5.35-6.89s-2.39-5.18-5.35-5.18-5.36 1.44-5.36 5.18 2.39 6.89 5.36 6.89z" fill="#32e14b"/><path d="M249.88 1122.07c3 0 5.35-3.07 5.35-6.89s-2.39-5.18-5.35-5.18" fill="#19c819"/><path d="M252.46 1123.4h-5a6.83 6.83 0 0 0-6.81 6.71l-.09 9.77a6.84 6.84 0 0 0 2.88 5.55c0 .2-.1.39-.1.58l-.09 21a2.86 2.86 0 0 0 2.77 2.87 2.93 2.93 0 0 0 2.87-2.77l.1-14.27h1.53l-.1 14.27a2.93 2.93 0 0 0 2.77 2.87 2.87 2.87 0 0 0 2.87-2.78l.1-21a1 1 0 0 0-.1-.57 6.68 6.68 0 0 0 2.88-5.47l.1-9.76a6.61 6.61 0 0 0-6.18-7z" fill="#32e14b"/><path d="M249 1167l.09-14.28h1.53l-.09 14.28a2.82 2.82 0 0 0 5.64.09l.1-21a1.15 1.15 0 0 0-.1-.58A6.67 6.67 0 0 0 259 1140l.09-9.76a6.75 6.75 0 0 0-6.69-6.81h-5" fill="#19c819"/><path d="M269.4 1124.36c2.59 0 4.7-2.68 4.7-6s-2.11-4.5-4.7-4.5-4.69 1.25-4.69 4.5 2.11 6 4.69 6z" fill="#32e14b"/><path d="M269.4 1124.36c2.59 0 4.7-2.68 4.7-6s-2.11-4.5-4.7-4.5" fill="#19c819"/><path d="M271.61 1125.52h-4.31a5.79 5.79 0 0 0-5.84 5.74v8.52a5.71 5.71 0 0 0 2.49 4.78c0 .19-.1.3-.1.49l-.09 18.28a2.44 2.44 0 0 0 4.86.4v-.3l.1-12.45H270l-.1 12.45a2.45 2.45 0 0 0 4.89.09l.1-18.28v-.49a5.73 5.73 0 0 0 2.48-4.78l.1-8.52a6 6 0 0 0-5.86-5.93z" fill="#32e14b"/><path d="M268.63 1163.43l.1-12.45H270l-.1 12.45a2.45 2.45 0 0 0 4.89.09l.1-18.28v-.49a5.73 5.73 0 0 0 2.48-4.78l.1-8.52a5.8 5.8 0 0 0-5.76-5.84h-4.39" fill="#19c819"/><path d="M230.45 1124.36c2.58 0 4.69-2.68 4.69-6s-2.11-4.5-4.69-4.5-4.7 1.25-4.7 4.5 2.11 6 4.7 6z" fill="#32e14b"/><path d="M230.45 1124.36c2.58 0 4.69-2.68 4.69-6s-2.11-4.5-4.69-4.5" fill="#19c819"/><path d="M232.74 1125.52h-4.31a5.78 5.78 0 0 0-5.83 5.73v.08l-.1 8.53a5.71 5.71 0 0 0 2.49 4.78c0 .19-.1.3-.1.49l-.09 18.28a2.44 2.44 0 1 0 4.88.09l.1-12.44h1.34l-.1 12.44a2.44 2.44 0 1 0 4.88.1l.1-18.28v-.49a5.73 5.73 0 0 0 2.48-4.78l.1-8.53a6 6 0 0 0-5.84-6z" fill="#32e14b"/><path d="M229.68 1163.43l.1-12.45h1.34l-.1 12.45a2.44 2.44 0 1 0 4.88.09l.1-18.28v-.49a5.83 5.83 0 0 0 2.48-4.78v-8.43a5.79 5.79 0 0 0-5.75-5.83h-4.4" fill="#19c819"/><path d="M349.88 1122.07c3 0 5.35-3.07 5.35-6.89s-2.39-5.18-5.35-5.18-5.36 1.44-5.36 5.18 2.39 6.89 5.36 6.89z" fill="#6400fa"/><path d="M349.88 1122.07c3 0 5.35-3.07 5.35-6.89s-2.39-5.18-5.35-5.18" fill="#3200af"/><path d="M352.46 1123.4h-5a6.83 6.83 0 0 0-6.81 6.71l-.09 9.77a6.84 6.84 0 0 0 2.88 5.55c0 .2-.1.39-.1.58l-.09 21a2.86 2.86 0 0 0 2.77 2.87 2.93 2.93 0 0 0 2.87-2.77l.1-14.27h1.53l-.1 14.27a2.93 2.93 0 0 0 2.77 2.87 2.87 2.87 0 0 0 2.87-2.78l.1-21a1 1 0 0 0-.1-.57 6.68 6.68 0 0 0 2.88-5.47l.1-9.76a6.61 6.61 0 0 0-6.18-7z" fill="#6400fa"/><path d="M349 1167l.09-14.28h1.53l-.09 14.28a2.82 2.82 0 0 0 5.64.09l.1-21a1.15 1.15 0 0 0-.1-.58A6.67 6.67 0 0 0 359 1140l.09-9.76a6.75 6.75 0 0 0-6.69-6.81h-5" fill="#3200af"/><path d="M369.4 1124.36c2.59 0 4.7-2.68 4.7-6s-2.11-4.5-4.7-4.5-4.69 1.25-4.69 4.5 2.11 6 4.69 6z" fill="#6400fa"/><path d="M369.4 1124.36c2.59 0 4.7-2.68 4.7-6s-2.11-4.5-4.7-4.5" fill="#3200af"/><path d="M371.61 1125.52h-4.31a5.79 5.79 0 0 0-5.84 5.74v8.52a5.71 5.71 0 0 0 2.49 4.78c0 .19-.1.3-.1.49l-.09 18.28a2.44 2.44 0 0 0 4.86.4v-.3l.1-12.45H370l-.1 12.45a2.45 2.45 0 0 0 4.89.09l.1-18.28v-.49a5.73 5.73 0 0 0 2.48-4.78l.1-8.52a6 6 0 0 0-5.86-5.93z" fill="#6400fa"/><path d="M368.63 1163.43l.1-12.45H370l-.1 12.45a2.45 2.45 0 0 0 4.89.09l.1-18.28v-.49a5.73 5.73 0 0 0 2.48-4.78l.1-8.52a5.8 5.8 0 0 0-5.76-5.84h-4.39" fill="#3200af"/><path d="M330.45 1124.36c2.58 0 4.69-2.68 4.69-6s-2.11-4.5-4.69-4.5-4.7 1.25-4.7 4.5 2.11 6 4.7 6z" fill="#6400fa"/><path d="M330.45 1124.36c2.58 0 4.69-2.68 4.69-6s-2.11-4.5-4.69-4.5" fill="#3200af"/><path d="M332.74 1125.52h-4.31a5.78 5.78 0 0 0-5.83 5.73v.08l-.1 8.53a5.71 5.71 0 0 0 2.49 4.78c0 .19-.1.3-.1.49l-.09 18.28a2.44 2.44 0 1 0 4.88.09l.1-12.44h1.34l-.1 12.44a2.44 2.44 0 0 0 4.88.1l.1-18.28v-.49a5.73 5.73 0 0 0 2.48-4.78l.1-8.53a6 6 0 0 0-5.84-6z" fill="#6400fa"/><path d="M329.68 1163.43l.1-12.45h1.34l-.1 12.45a2.44 2.44 0 1 0 4.88.09l.1-18.28v-.49a5.83 5.83 0 0 0 2.48-4.78v-8.43a5.79 5.79 0 0 0-5.75-5.83h-4.4" fill="#3200af"/><path d="M149.88 1122.05c3 0 5.35-3.06 5.35-6.89s-2.39-5.16-5.35-5.16-5.36 1.43-5.36 5.16 2.39 6.89 5.36 6.89z" fill="#646464"/><path d="M149.88 1122.05c3 0 5.35-3.06 5.35-6.89s-2.39-5.16-5.35-5.16" fill="#191919"/><path d="M152.46 1123.39h-5a6.81 6.81 0 0 0-6.81 6.7l-.09 9.75a6.85 6.85 0 0 0 2.88 5.55c0 .19-.1.38-.1.56l-.09 21a2.84 2.84 0 0 0 2.77 2.87 3 3 0 0 0 2.87-2.78l.13-14.21h1.53l-.1 14.25a2.92 2.92 0 0 0 2.77 2.87 2.86 2.86 0 0 0 2.87-2.77l.1-21a1 1 0 0 0-.1-.57 6.66 6.66 0 0 0 2.88-5.46l.1-9.76a6.58 6.58 0 0 0-6.14-6.94z" fill="#646464"/><path d="M149 1166.9l.09-14.25h1.53l-.09 14.25a2.82 2.82 0 0 0 5.64.1l.1-21a1 1 0 0 0-.1-.56A6.7 6.7 0 0 0 159 1140l.09-9.76a6.73 6.73 0 0 0-6.67-6.78h-5" fill="#191919"/><path d="M169.4 1124.34c2.59 0 4.7-2.68 4.7-6s-2.11-4.5-4.7-4.5-4.69 1.24-4.69 4.5 2.11 6 4.69 6z" fill="#646464"/><path d="M169.4 1124.34c2.59 0 4.7-2.68 4.7-6s-2.11-4.5-4.7-4.5" fill="#191919"/><path d="M171.61 1125.49h-4.31a5.81 5.81 0 0 0-5.84 5.76v8.49a5.73 5.73 0 0 0 2.49 4.79c0 .18-.1.28-.1.47l-.09 18.27a2.44 2.44 0 0 0 4.85.59.67.67 0 0 0 0-.2v-.3l.1-12.43H170l-.1 12.43a2.45 2.45 0 0 0 4.89.1l.1-18.27v-.48a5.68 5.68 0 0 0 2.48-4.78l.1-8.51a6 6 0 0 0-5.86-5.93z" fill="#646464"/><path d="M168.63 1163.36l.1-12.43H170l-.1 12.43a2.45 2.45 0 0 0 4.89.1l.1-18.27v-.48a5.68 5.68 0 0 0 2.48-4.78l.1-8.51a5.79 5.79 0 0 0-5.75-5.83h-4.4" fill="#191919"/><path d="M130.45 1124.34c2.58 0 4.69-2.68 4.69-6s-2.11-4.5-4.69-4.5-4.7 1.24-4.7 4.5 2.11 6 4.7 6z" fill="#646464"/><path d="M130.45 1124.34c2.58 0 4.69-2.68 4.69-6s-2.11-4.5-4.69-4.5" fill="#191919"/><path d="M132.74 1125.49h-4.31a5.81 5.81 0 0 0-5.83 5.77v.07l-.1 8.51a5.7 5.7 0 0 0 2.49 4.77c0 .2-.1.29-.1.49l-.09 18.26a2.45 2.45 0 0 0 4.87.4v-.3l.1-12.43h1.34l-.1 12.43a2.44 2.44 0 1 0 4.88.1l.1-18.27v-.48a5.68 5.68 0 0 0 2.48-4.78l.1-8.51a6 6 0 0 0-5.83-6.03z" fill="#646464"/><path d="M129.68 1163.36l.1-12.43h1.34l-.1 12.43a2.44 2.44 0 0 0 4.88.1l.1-18.27v-.48a5.83 5.83 0 0 0 2.48-4.78v-8.41a5.81 5.81 0 0 0-5.76-5.84h-4.39" fill="#191919"/><path d="M49.86 1122.06c3 0 5.35-3.07 5.35-6.89s-2.39-5.17-5.35-5.17-5.36 1.44-5.36 5.17 2.39 6.89 5.36 6.89z" fill="#fff"/><path d="M49.86 1122.06c3 0 5.35-3.07 5.35-6.89s-2.39-5.17-5.35-5.17" fill="#afafaf"/><path d="M52.44 1123.39h-5a6.83 6.83 0 0 0-6.8 6.7l-.09 9.77a6.85 6.85 0 0 0 2.87 5.54c0 .2-.1.39-.1.58l-.09 21a2.86 2.86 0 0 0 2.77 2.87 2.93 2.93 0 0 0 2.87-2.77l.1-14.25h1.53l-.1 14.25a2.93 2.93 0 0 0 2.8 2.92 2.87 2.87 0 0 0 2.87-2.78l.1-21a1.11 1.11 0 0 0-.1-.57 6.69 6.69 0 0 0 2.87-5.46l.1-9.76a6.62 6.62 0 0 0-6.15-7z" fill="#fff"/><path d="M49 1166.93l.09-14.26h1.53l-.09 14.26a2.82 2.82 0 1 0 5.64.09l.1-21a1.27 1.27 0 0 0-.1-.58A6.66 6.66 0 0 0 59 1140l.09-9.76a6.75 6.75 0 0 0-6.68-6.8h-5" fill="#afafaf"/><path d="M69.37 1124.35c2.58 0 4.69-2.68 4.69-6s-2.11-4.49-4.69-4.49-4.69 1.24-4.69 4.49 2.11 6 4.69 6z" fill="#fff"/><path d="M69.37 1124.35c2.58 0 4.69-2.68 4.69-6s-2.11-4.49-4.69-4.49" fill="#afafaf"/><path d="M71.57 1125.5h-4.3a5.79 5.79 0 0 0-5.84 5.74v8.52a5.71 5.71 0 0 0 2.49 4.78c0 .19-.1.29-.1.48l-.09 18.27a2.44 2.44 0 0 0 4.86.4v-.3l.1-12.44H70l-.1 12.44a2.44 2.44 0 1 0 4.88.09l.1-18.27v-.48a5.71 5.71 0 0 0 2.52-4.73l.1-8.52a6 6 0 0 0-5.93-5.98z" fill="#fff"/><path d="M68.6 1163.39l.1-12.44H70l-.1 12.44a2.44 2.44 0 1 0 4.88.09l.1-18.27v-.48a5.71 5.71 0 0 0 2.52-4.73l.1-8.52a5.8 5.8 0 0 0-5.76-5.84h-4.38" fill="#afafaf"/><path d="M30.44 1124.35c2.58 0 4.69-2.68 4.69-6s-2.11-4.49-4.69-4.49-4.69 1.24-4.69 4.49 2.11 6 4.69 6z" fill="#fff"/><path d="M30.44 1124.35c2.58 0 4.69-2.68 4.69-6s-2.11-4.49-4.69-4.49" fill="#afafaf"/><path d="M32.73 1125.5h-4.3a5.79 5.79 0 0 0-5.83 5.75v.08l-.1 8.53a5.71 5.71 0 0 0 2.49 4.78c0 .19-.1.29-.1.48l-.09 18.27a2.44 2.44 0 0 0 4.87.09l.1-12.43h1.34l-.1 12.43a2.44 2.44 0 1 0 4.88.1l.1-18.27v-.48a5.76 5.76 0 0 0 2.48-4.79l.1-8.52a6 6 0 0 0-5.84-6.02z" fill="#fff"/><path d="M29.67 1163.39l.1-12.44h1.34l-.1 12.44a2.44 2.44 0 1 0 4.88.09l.1-18.27v-.48a5.85 5.85 0 0 0 2.48-4.79v-8.42a5.79 5.79 0 0 0-5.75-5.83h-4.39M46.46 1345l-23.59 19.6a1.36 1.36 0 0 1-.37-.94v-37.32a1.36 1.36 0 0 1 .37-.94zm31.04-18.66v37.32a1.36 1.36 0 0 1-.37.94L53.54 1345l23.59-19.6a1.36 1.36 0 0 1 .37.94z" fill="#afafaf"/><path d="M76.19 1325H23.81a1.29 1.29 0 0 0-1 .4L50 1354.35l27.13-28.95a1.3 1.3 0 0 0-.94-.4z" fill="#fff"/><path d="M58.78 1345l18.37 19.6a1.29 1.29 0 0 1-1 .4H23.81a1.29 1.29 0 0 1-1-.4l18.41-19.6 8.78 9.35z" fill="#c8c8c8"/><path d="M146.46 1345l-23.59 19.6a1.36 1.36 0 0 1-.37-.94v-37.32a1.36 1.36 0 0 1 .37-.94zm31.04-18.66v37.32a1.36 1.36 0 0 1-.37.94l-23.59-19.6 23.59-19.6a1.36 1.36 0 0 1 .37.94z" fill="#191919"/><path d="M176.19 1325h-52.38a1.29 1.29 0 0 0-1 .4l27.19 28.95 27.13-28.95a1.27 1.27 0 0 0-.94-.4z" fill="#646464"/><path d="M158.78 1345l18.37 19.6a1.29 1.29 0 0 1-1 .4h-52.34a1.29 1.29 0 0 1-1-.4l18.39-19.6 8.78 9.35z" fill="#323232"/><path d="M346.46 1345l-23.59 19.6a1.36 1.36 0 0 1-.37-.94v-37.32a1.36 1.36 0 0 1 .37-.94zm31.04-18.66v37.32a1.36 1.36 0 0 1-.37.94l-23.59-19.6 23.59-19.6a1.36 1.36 0 0 1 .37.94z" fill="#32007d"/><path d="M376.19 1325h-52.38a1.29 1.29 0 0 0-1 .4l27.19 28.95 27.13-28.95a1.27 1.27 0 0 0-.94-.4z" fill="#6400fa"/><path d="M358.78 1345l18.37 19.6a1.29 1.29 0 0 1-1 .4h-52.34a1.29 1.29 0 0 1-1-.4l18.39-19.6 8.78 9.35z" fill="#3200af"/><path d="M246.46 1345l-23.59 19.6a1.36 1.36 0 0 1-.37-.94v-37.32a1.36 1.36 0 0 1 .37-.94zm31.04-18.66v37.32a1.36 1.36 0 0 1-.37.94l-23.59-19.6 23.59-19.6a1.36 1.36 0 0 1 .37.94z" fill="#199619"/><path d="M276.19 1325h-52.38a1.29 1.29 0 0 0-1 .4l27.19 28.95 27.13-28.95a1.27 1.27 0 0 0-.94-.4z" fill="#32e14b"/><path d="M258.78 1345l18.37 19.6a1.29 1.29 0 0 1-1 .4h-52.34a1.29 1.29 0 0 1-1-.4l18.39-19.6 8.78 9.35z" fill="#19c819"/><path fill="#fff" d="M62.21 1935.31L50 1970l30-34.69H62.21z"/><path fill="#c8c8c8" d="M32.41 1920L20 1935.31h17.79L32.41 1920zm29.8 15.31H80L67.59 1920l-5.38 15.31zm0 0L50 1920l-12.21 15.31h24.42z"/><path fill="#afafaf" d="M50 1920H32.41l5.38 15.31L50 1920z"/><path fill="#fff" d="M67.59 1920H50l12.21 15.31 5.38-15.31z"/><path fill="#afafaf" d="M37.79 1935.31L50 1970l12.21-34.69H37.79z"/><path fill="#fff" d="M20 1935.31L50 1970l-12.21-34.69H20z"/><path fill="#4b00c8" d="M362.21 1935.31L350 1970l30-34.69h-17.79zm-29.8-15.31L320 1935.31h17.79l-5.38-15.31z"/><path fill="#32007d" d="M362.21 1935.31H380L367.59 1920l-5.38 15.31z"/><path fill="#32007d" d="M362.21 1935.31L350 1920l-12.21 15.31h24.42z"/><path fill="#6400fa" d="M350 1920h-17.59l5.38 15.31L350 1920zm17.59 0H350l12.21 15.31 5.38-15.31z"/><path fill="#3200af" d="M337.79 1935.31L350 1970l12.21-34.69h-24.42z"/><path fill="#32007d" d="M320 1935.31l30 34.69-12.21-34.69H320z"/><path fill="#32e14b" d="M262.21 1935.31L250 1970l30-34.69h-17.79z"/><path fill="#19c819" d="M232.41 1920L220 1935.31h17.79l-5.38-15.31z"/><path fill="#199619" d="M262.21 1935.31H280L267.59 1920l-5.38 15.31zm0 0L250 1920l-12.21 15.31h24.42z"/><path fill="#32e14b" d="M250 1920h-17.59l5.38 15.31L250 1920z"/><path fill="#32c864" d="M267.59 1920H250l12.21 15.31 5.38-15.31zm-29.8 15.31L250 1970l12.21-34.69h-24.42z"/><path fill="#199619" d="M220 1935.31l30 34.69-12.21-34.69H220z"/><path fill="#646464" d="M162.21 1935.31L150 1970l30-34.69h-17.79z"/><path fill="#191919" d="M132.41 1920L120 1935.31h17.79l-5.38-15.31zm29.8 15.31H180L167.59 1920l-5.38 15.31zm0 0L150 1920l-12.21 15.31h24.42z"/><path fill="#323232" d="M150 1920h-17.59l5.38 15.31L150 1920z"/><path fill="#646464" d="M167.59 1920H150l12.21 15.31 5.38-15.31z"/><path fill="#323232" d="M137.79 1935.31L150 1970l12.21-34.69h-24.42z"/><path d="M120 1935.31l30 34.69-12.21-34.69H120z"/><path d="M31.65 2020h9.64a6.62 6.62 0 0 1 6.65 6.59v9.55a6.62 6.62 0 0 1-6.65 6.59h-9.64a6.62 6.62 0 0 1-6.65-6.59v-9.55a6.62 6.62 0 0 1 6.65-6.59z" fill="#fff"/><path d="M58.71 2020h9.64a6.62 6.62 0 0 1 6.65 6.59v9.55a6.62 6.62 0 0 1-6.65 6.59h-9.64a6.62 6.62 0 0 1-6.65-6.59v-9.55a6.62 6.62 0 0 1 6.65-6.59zm-27.06 27.27h9.64a6.62 6.62 0 0 1 6.65 6.59v9.55a6.62 6.62 0 0 1-6.65 6.59h-9.64a6.62 6.62 0 0 1-6.65-6.59v-9.55a6.62 6.62 0 0 1 6.65-6.59zm27.06 0h9.64a6.62 6.62 0 0 1 6.65 6.59v9.55a6.62 6.62 0 0 1-6.65 6.59h-9.64a6.62 6.62 0 0 1-6.65-6.59v-9.55a6.62 6.62 0 0 1 6.65-6.59z" fill="#c8c8c8"/><path d="M131.65 2020h9.64a6.59 6.59 0 0 1 6.65 6.53v9.47a6.6 6.6 0 0 1-6.65 6.53h-9.64A6.6 6.6 0 0 1 125 2036v-9.47a6.59 6.59 0 0 1 6.65-6.53z" fill="#646464"/><path d="M158.71 2020h9.64a6.59 6.59 0 0 1 6.65 6.53v9.47a6.6 6.6 0 0 1-6.65 6.53h-9.64a6.6 6.6 0 0 1-6.65-6.53v-9.47a6.59 6.59 0 0 1 6.65-6.53zm-27.06 27h9.64a6.6 6.6 0 0 1 6.65 6.53v9.47a6.6 6.6 0 0 1-6.65 6.53h-9.64A6.6 6.6 0 0 1 125 2063v-9.47a6.6 6.6 0 0 1 6.65-6.53zm27.06.47h9.64A6.6 6.6 0 0 1 175 2054v9.47a6.59 6.59 0 0 1-6.65 6.53h-9.64a6.59 6.59 0 0 1-6.65-6.53V2054a6.6 6.6 0 0 1 6.65-6.53z" fill="#191919"/><path d="M331.65 2020h9.64a6.62 6.62 0 0 1 6.65 6.59v9.55a6.62 6.62 0 0 1-6.65 6.59h-9.64a6.62 6.62 0 0 1-6.65-6.59v-9.55a6.62 6.62 0 0 1 6.65-6.59z" fill="#6400fa"/><path d="M358.71 2020h9.64a6.62 6.62 0 0 1 6.65 6.59v9.55a6.62 6.62 0 0 1-6.65 6.59h-9.64a6.62 6.62 0 0 1-6.65-6.59v-9.55a6.62 6.62 0 0 1 6.65-6.59z" fill="#4b00c8"/><path d="M331.65 2047.27h9.64a6.62 6.62 0 0 1 6.65 6.59v9.55a6.62 6.62 0 0 1-6.65 6.59h-9.64a6.62 6.62 0 0 1-6.65-6.59v-9.55a6.62 6.62 0 0 1 6.65-6.59z" fill="#3200af"/><path d="M358.71 2047.27h9.64a6.62 6.62 0 0 1 6.65 6.59v9.55a6.62 6.62 0 0 1-6.65 6.59h-9.64a6.62 6.62 0 0 1-6.65-6.59v-9.55a6.62 6.62 0 0 1 6.65-6.59z" fill="#32007d"/><path d="M231.65 2020h9.64a6.62 6.62 0 0 1 6.65 6.59v9.55a6.62 6.62 0 0 1-6.65 6.59h-9.64a6.62 6.62 0 0 1-6.65-6.59v-9.55a6.62 6.62 0 0 1 6.65-6.59z" fill="#32e14b"/><path d="M258.71 2020h9.64a6.62 6.62 0 0 1 6.65 6.59v9.55a6.62 6.62 0 0 1-6.65 6.59h-9.64a6.62 6.62 0 0 1-6.65-6.59v-9.55a6.62 6.62 0 0 1 6.65-6.59zm-27.06 27.27h9.64a6.62 6.62 0 0 1 6.65 6.59v9.55a6.62 6.62 0 0 1-6.65 6.59h-9.64a6.62 6.62 0 0 1-6.65-6.59v-9.55a6.62 6.62 0 0 1 6.65-6.59z" fill="#19c819"/><path d="M258.71 2047.27h9.64a6.62 6.62 0 0 1 6.65 6.59v9.55a6.62 6.62 0 0 1-6.65 6.59h-9.64a6.62 6.62 0 0 1-6.65-6.59v-9.55a6.62 6.62 0 0 1 6.65-6.59z" fill="#199619"/><path d="M126.14 549.06a1.62 1.62 0 0 0 .71-.4l4.43-4.27a1.53 1.53 0 0 0 0-2.15 1.62 1.62 0 0 0-.75-.43l-1.29-.34A22.51 22.51 0 0 1 150 528.12a23.11 23.11 0 0 1 3.8.32h.06c.58.1 1.16.22 1.73.36l.33.09c.38.1.77.22 1.15.34l.79.27.94.37 1 .44.33.16a22 22 0 0 1 11.7 14.41 1.61 1.61 0 0 0 1.88 1.26 1.58 1.58 0 0 0 1.31-1.8v-.18c-.15-.64-.34-1.28-.55-1.9l-.09-.27c-.21-.62-.45-1.22-.7-1.8l-.08-.18a25.16 25.16 0 0 0-3.18-5.26 25.29 25.29 0 0 0-4.35-4.3l-.14-.11q-.78-.58-1.59-1.11l-.15-.1a25.72 25.72 0 0 0-3.47-1.86l-.21-.1c-.59-.25-1.19-.49-1.8-.7l-.21-.07a26.15 26.15 0 0 0-6.18-1.29q-1.06-.09-2.16-.09a26.93 26.93 0 0 0-6 .68 25.5 25.5 0 0 0-17.88 14.94l-1.61-.43a1.61 1.61 0 0 0-2 1.06 1.47 1.47 0 0 0 0 .88l1.59 5.82a1.61 1.61 0 0 0 1.88 1.09zm51.29 8.79l-1.59-5.85a1.63 1.63 0 0 0-2-1.11 1.4 1.4 0 0 0-.71.4l-4.43 4.26a1.53 1.53 0 0 0 0 2.16 1.7 1.7 0 0 0 .75.42l1.29.34c-.2.46-.42.91-.65 1.35l-.14.26A22.49 22.49 0 0 1 150 571.82a23 23 0 0 1-8.79-1.74 22 22 0 0 1-13.09-15 1.58 1.58 0 0 0-1.67-1.48 1.57 1.57 0 0 0-1.52 1.62v.16a2.13 2.13 0 0 0 .1.42c3.29 13.41 17.15 21.69 31 18.5a25.52 25.52 0 0 0 17.88-14.94l1.6.42a1.7 1.7 0 0 0 1.11-.13 1.56 1.56 0 0 0 .86-1 1.59 1.59 0 0 0-.05-.8z" fill="#191919"/><path d="M226.14 549.06a1.62 1.62 0 0 0 .71-.4l4.43-4.27a1.53 1.53 0 0 0 0-2.15 1.62 1.62 0 0 0-.75-.43l-1.29-.34A22.51 22.51 0 0 1 250 528.12a23.11 23.11 0 0 1 3.8.32h.06c.59.1 1.16.22 1.73.36l.33.09c.38.1.77.22 1.15.34l.79.27.94.37 1 .44.33.16a22 22 0 0 1 11.7 14.41 1.63 1.63 0 0 0 2 1.07 1.57 1.57 0 0 0 1.14-1.79c-.15-.64-.34-1.28-.55-1.9l-.09-.27c-.21-.62-.45-1.22-.7-1.8l-.08-.18a25.16 25.16 0 0 0-3.18-5.26 25.29 25.29 0 0 0-4.35-4.3l-.14-.11q-.78-.58-1.59-1.11l-.15-.1a25.72 25.72 0 0 0-3.47-1.86l-.21-.1c-.59-.25-1.19-.49-1.8-.7l-.21-.07a26.15 26.15 0 0 0-6.18-1.29q-1.07-.09-2.16-.09a26.93 26.93 0 0 0-6 .68 25.5 25.5 0 0 0-17.88 14.94l-1.61-.43a1.61 1.61 0 0 0-2 1.06 1.47 1.47 0 0 0 0 .88l1.59 5.82a1.61 1.61 0 0 0 1.93 1.09zm51.29 8.79l-1.59-5.85a1.63 1.63 0 0 0-2-1.11 1.4 1.4 0 0 0-.71.4l-4.43 4.26a1.53 1.53 0 0 0 0 2.16 1.7 1.7 0 0 0 .75.42l1.29.34c-.2.46-.42.91-.65 1.35l-.14.26A22.49 22.49 0 0 1 250 571.82a23 23 0 0 1-8.79-1.74 22 22 0 0 1-13.09-15 1.58 1.58 0 0 0-1.67-1.48 1.57 1.57 0 0 0-1.52 1.62v.16a2.13 2.13 0 0 0 .1.42c3.29 13.41 17.15 21.69 31 18.5a25.52 25.52 0 0 0 17.88-14.94l1.6.42a1.64 1.64 0 0 0 1.11-.13 1.56 1.56 0 0 0 .86-1 1.59 1.59 0 0 0-.05-.8z" fill="#32e14b"/><path d="M326.14 549.06a1.62 1.62 0 0 0 .71-.4l4.43-4.27a1.53 1.53 0 0 0 0-2.15 1.62 1.62 0 0 0-.75-.43l-1.29-.34A22.51 22.51 0 0 1 350 528.12a23.11 23.11 0 0 1 3.8.32h.06c.58.1 1.16.22 1.73.36l.33.09c.38.1.77.22 1.15.34l.79.27.94.37 1 .44.33.16a22 22 0 0 1 11.7 14.41 1.42 1.42 0 0 0 .08.18 1.6 1.6 0 0 0 3.18-.33v-.16a1.17 1.17 0 0 0-.1-.41c-.15-.64-.34-1.28-.55-1.9l-.09-.27c-.21-.62-.45-1.22-.7-1.8l-.08-.18a25.16 25.16 0 0 0-3.18-5.26 25.29 25.29 0 0 0-4.35-4.3l-.14-.11q-.78-.58-1.59-1.11l-.15-.1a25.72 25.72 0 0 0-3.47-1.86l-.21-.1c-.59-.25-1.19-.49-1.8-.7l-.21-.07a26.15 26.15 0 0 0-6.18-1.29q-1.07-.09-2.16-.09a26.93 26.93 0 0 0-6 .68 25.5 25.5 0 0 0-17.88 14.94l-1.61-.43a1.61 1.61 0 0 0-2 1.06 1.47 1.47 0 0 0 0 .88l1.59 5.82a1.61 1.61 0 0 0 1.91 1.09zm51.29 8.79l-1.59-5.85a1.63 1.63 0 0 0-2-1.11 1.4 1.4 0 0 0-.71.4l-4.43 4.26a1.53 1.53 0 0 0 0 2.16 1.7 1.7 0 0 0 .75.42l1.29.34c-.2.46-.42.91-.65 1.35l-.14.26A22.49 22.49 0 0 1 350 571.82a23 23 0 0 1-8.79-1.74 22 22 0 0 1-13.09-15 1.63 1.63 0 0 0-2.09-.88 1.57 1.57 0 0 0-1 1.61c3.29 13.41 17.15 21.69 31 18.5a25.52 25.52 0 0 0 17.88-14.94l1.6.42a1.7 1.7 0 0 0 1.11-.13 1.56 1.56 0 0 0 .86-1 1.59 1.59 0 0 0-.05-.81z" fill="#6400fa"/><path d="M26.14 549.06a1.62 1.62 0 0 0 .71-.4l4.43-4.27a1.53 1.53 0 0 0 0-2.15 1.62 1.62 0 0 0-.75-.43l-1.29-.34A22.51 22.51 0 0 1 50 528.12a23.11 23.11 0 0 1 3.8.32h.06c.59.1 1.16.22 1.73.36l.33.09c.38.1.77.22 1.15.34l.79.27.94.37 1 .44.33.16a22 22 0 0 1 11.7 14.41 1.61 1.61 0 0 0 1.88 1.26 1.58 1.58 0 0 0 1.31-1.8v-.18c-.15-.64-.34-1.28-.55-1.9l-.09-.27c-.21-.61-.45-1.22-.7-1.8l-.08-.18a25.16 25.16 0 0 0-3.18-5.26 25.29 25.29 0 0 0-4.35-4.3l-.14-.11q-.78-.58-1.59-1.11l-.15-.1a25.72 25.72 0 0 0-3.47-1.86l-.21-.1c-.59-.25-1.19-.49-1.79-.7l-.22-.07a26.15 26.15 0 0 0-6.18-1.29q-1.06-.09-2.16-.09a26.93 26.93 0 0 0-6 .68 25.5 25.5 0 0 0-17.88 14.94l-1.61-.43a1.61 1.61 0 0 0-2 1.06 1.47 1.47 0 0 0 0 .88l1.5 5.85a1.61 1.61 0 0 0 1.97 1.06zm51.29 8.79L75.84 552a1.63 1.63 0 0 0-2-1.11 1.4 1.4 0 0 0-.71.4l-4.43 4.26a1.53 1.53 0 0 0 0 2.16 1.7 1.7 0 0 0 .75.42l1.29.34c-.2.46-.42.91-.65 1.35l-.14.26a22.49 22.49 0 0 1-20 11.7 23 23 0 0 1-8.79-1.74 22 22 0 0 1-13.09-15 1.62 1.62 0 0 0-2.1-.84 1.56 1.56 0 0 0-1 1.57c3.29 13.41 17.15 21.69 31 18.5a25.52 25.52 0 0 0 17.93-14.9l1.6.42a1.71 1.71 0 0 0 1.32-.25 1.58 1.58 0 0 0 .64-.86 1.67 1.67 0 0 0-.03-.83z" fill="#fff"/><path d="M62.15 32.76a.92.92 0 0 0-1.14.58.87.87 0 0 0 .24.9 20.88 20.88 0 0 1 9.46 23.35.88.88 0 0 0 .64 1.07h.22a.9.9 0 0 0 .91-.65 22.59 22.59 0 0 0-10.33-25.25zm-3.97 38.89a21.68 21.68 0 0 1-24-5.28.92.92 0 0 0-1.27.17.87.87 0 0 0 0 1 23.51 23.51 0 0 0 26 5.71.87.87 0 0 0 .26-1.2.92.92 0 0 0-.99-.4zM44.9 31.74a.88.88 0 0 0 .46-1.17.92.92 0 0 0-.89-.52 22.81 22.81 0 0 0-17.62 20.53.89.89 0 0 0 .83.89h.07a.89.89 0 0 0 .9-.82A21.09 21.09 0 0 1 44.9 31.74z" fill="#afafaf"/><ellipse cx="50" cy="30.26" rx="5.35" ry="5.26" fill="#fff"/><ellipse cx="30.35" cy="62.72" rx="5.35" ry="5.26" fill="#fff"/><ellipse cx="69.65" cy="62.72" rx="5.35" ry="5.26" fill="#fff"/><path d="M362.15 32.76a.92.92 0 0 0-1.14.58.87.87 0 0 0 .24.9 20.88 20.88 0 0 1 9.46 23.35.88.88 0 0 0 .64 1.07h.22a.9.9 0 0 0 .87-.65 22.59 22.59 0 0 0-10.29-25.28zm-3.97 38.89a21.68 21.68 0 0 1-24-5.28.92.92 0 0 0-1.27.17.87.87 0 0 0 0 1 23.51 23.51 0 0 0 26 5.71.87.87 0 0 0 .3-1.19.91.91 0 0 0-1.03-.41zM344.9 31.74a.89.89 0 0 0-.13-1.77.73.73 0 0 0-.3.07 22.81 22.81 0 0 0-17.62 20.54.89.89 0 0 0 .83.89h.07a.89.89 0 0 0 .9-.82 21.09 21.09 0 0 1 16.25-18.91z" fill="#3200af"/><ellipse cx="350" cy="30.26" rx="5.35" ry="5.26" fill="#6400fa"/><ellipse cx="330.35" cy="62.72" rx="5.35" ry="5.26" fill="#6400fa"/><ellipse cx="369.65" cy="62.72" rx="5.35" ry="5.26" fill="#6400fa"/><path d="M262.15 32.76a.92.92 0 0 0-1.14.58.87.87 0 0 0 .24.9 20.88 20.88 0 0 1 9.46 23.35.88.88 0 0 0 .64 1.07h.22a.9.9 0 0 0 .87-.65 22.59 22.59 0 0 0-10.29-25.28zm-3.97 38.89a21.68 21.68 0 0 1-24-5.28.92.92 0 0 0-1.27.17.87.87 0 0 0 0 1 23.51 23.51 0 0 0 26 5.71.87.87 0 0 0 .3-1.19.91.91 0 0 0-1.03-.41zM244.9 31.74a.88.88 0 0 0 .46-1.17.92.92 0 0 0-.89-.52 22.81 22.81 0 0 0-17.62 20.54.89.89 0 0 0 .83.89h.07a.89.89 0 0 0 .9-.82 21.09 21.09 0 0 1 16.25-18.92z" fill="#199619"/><ellipse cx="250" cy="30.26" rx="5.35" ry="5.26" fill="#32e14b"/><ellipse cx="230.35" cy="62.72" rx="5.35" ry="5.26" fill="#32e14b"/><ellipse cx="269.65" cy="62.72" rx="5.35" ry="5.26" fill="#32e14b"/><path d="M50 425a25 25 0 1 0 25 25 25 25 0 0 0-25-25zm13.42 25.71l-19 12.93a.83.83 0 0 1-.48.15.87.87 0 0 1-.87-.85v-25.87a.86.86 0 0 1 1.35-.71l19 12.93a.88.88 0 0 1 .21 1.21 1 1 0 0 1-.21.21z" fill="#fff"/><path d="M150 425a25 25 0 1 0 25 25 25 25 0 0 0-25-25zm13.42 25.71l-19 12.93a.83.83 0 0 1-.48.15.87.87 0 0 1-.87-.85v-25.87a.86.86 0 0 1 1.35-.71l19 12.93a.88.88 0 0 1 .21 1.21 1 1 0 0 1-.21.21z" fill="#191919"/><path d="M250 425a25 25 0 1 0 25 25 25 25 0 0 0-25-25zm13.42 25.71l-19 12.93a.83.83 0 0 1-.48.15.87.87 0 0 1-.87-.85v-25.87a.86.86 0 0 1 1.35-.71l19 12.93a.88.88 0 0 1 .21 1.21 1 1 0 0 1-.21.21z" fill="#32e14b"/><path d="M350 425a25 25 0 1 0 25 25 25 25 0 0 0-25-25zm13.42 25.71l-19 12.93a.83.83 0 0 1-.48.15.87.87 0 0 1-.87-.85v-25.87a.86.86 0 0 1 1.35-.71l19 12.93a.88.88 0 0 1 .21 1.21 1 1 0 0 1-.21.21z" fill="#6400fa"/><path d="M71.25 625h-42.5a3.75 3.75 0 0 0-3.75 3.75v42.5a3.75 3.75 0 0 0 3.75 3.75h42.5a3.75 3.75 0 0 0 3.75-3.75v-42.5a3.75 3.75 0 0 0-3.75-3.75z" fill="#fcfcfd"/><path fill="#c8c8c8" d="M49.23 651.2l11.88-11.92 9.23 9.23v-19.33H29.66v23.8l10.68-10.67 8.89 8.89z"/><path fill="#969696" d="M61.11 639.28L49.23 651.2l-8.89-8.89-10.68 10.67v10.63h40.68v-15.1l-9.23-9.23z"/><circle cx="49.66" cy="637.5" r="3.56" fill="#fffffc"/><path d="M274 625h-42.5a3.76 3.76 0 0 0-3.75 3.75v42.5a3.76 3.76 0 0 0 3.75 3.75H274a3.75 3.75 0 0 0 3.75-3.75v-42.5A3.75 3.75 0 0 0 274 625z" fill="#32e14b"/><path fill="#199619" d="M252.03 651.2l11.87-11.92 9.23 9.23v-19.33h-40.67v23.8l10.67-10.67 8.9 8.89z"/><path fill="#32c864" d="M263.9 639.28l-11.87 11.92-8.9-8.89-10.67 10.67v10.63h40.67v-15.1l-9.23-9.23z"/><circle cx="252.46" cy="637.5" r="3.56" transform="rotate(-80.78 252.477 637.51)" fill="#32c864"/><path d="M371.39 625h-42.5a3.75 3.75 0 0 0-3.75 3.75v42.5a3.75 3.75 0 0 0 3.75 3.75h42.5a3.75 3.75 0 0 0 3.75-3.75v-42.5a3.75 3.75 0 0 0-3.75-3.75zm-.91 23.51v15.1H329.8v-34.43h40.68z" fill="#6400fa"/><path d="M329.8 653l10.68-10.67 8.89 8.89 11.88-11.92 9.23 9.23v-19.35H329.8zm20-19a3.56 3.56 0 1 1-3.55 3.57 3.56 3.56 0 0 1 3.5-3.62h.05z" fill="#32007d"/><path fill="#004bfa" d="M349.37 651.2l-8.89-8.89-10.68 10.67v10.63h40.68v-15.1l-9.23-9.23-11.88 11.92z"/><circle cx="349.8" cy="637.5" r="3.56" fill="#004bfa"/><path d="M171.25 625h-42.5a3.75 3.75 0 0 0-3.75 3.75v42.5a3.75 3.75 0 0 0 3.75 3.75h42.5a3.75 3.75 0 0 0 3.75-3.75v-42.5a3.75 3.75 0 0 0-3.75-3.75z" fill="#191919"/><path fill="#323232" d="M149.23 651.2l11.88-11.92 9.23 9.23v-19.33h-40.68v23.8l10.68-10.67 8.89 8.89z"/><path fill="#646464" d="M161.11 639.28l-11.88 11.92-8.89-8.89-10.68 10.67v10.63h40.68v-15.1l-9.23-9.23z"/><circle cx="149.66" cy="637.5" r="3.56" fill="#646464"/><path fill="none" d="M26.21 745.66H73.8v25.15H26.21z"/><path d="M79 772.9H21v-2.09a1 1 0 0 1 1-1h55.94a1 1 0 0 1 1 1v2.09zm-1.06-26.19H22.07a1 1 0 0 1-1-1v-2.25H79v2.1a1 1 0 0 1-.93 1H78z" fill="#c8c8c8"/><path d="M79 775H21a1 1 0 0 1-1-1v-1.1a1 1 0 0 1 1-1h58a1 1 0 0 1 1 1v1.1a1 1 0 0 1-1 1zm0-30.39H21a1 1 0 0 1-1-1V742a1 1 0 0 1 .53-.92L49 725.25a2.09 2.09 0 0 1 2 0l28.48 15.92a1 1 0 0 1 .53.92v1.47a1 1 0 0 1-.94 1.05zm-55.89 4.19h4.14v20.96h-4.14zm24.82 0h4.14v20.96h-4.14zm-8.27 0h4.14v20.96h-4.14zm-8.28 0h4.14v20.96h-4.14zm24.83 0h4.14v20.96h-4.14zm16.55 0h4.14v20.96h-4.14zm-8.27 0h4.14v20.96h-4.14z" fill="#fff"/><path d="M27.3 748.8h-4.19a1 1 0 0 1-1-.95v-1.05h6.21v1a1 1 0 0 1-1 1zm-4.19 18.86h4.19a1 1 0 0 1 1 1v1.05h-6.23v-1a1 1 0 0 1 .94-1.05zm28.97-18.86h-4.15a1 1 0 0 1-1-1v-1h6.2v1a1 1 0 0 1-1 1zm-4.15 18.86h4.15a1 1 0 0 1 1 1v1.05H46.9v-1a1 1 0 0 1 .94-1.05zm-4.14-18.86h-4.13a1 1 0 0 1-1-.95v-1.05h6.21v1a1 1 0 0 1-1 1zm-4.13 18.86h4.13a1 1 0 0 1 1 1v1.05h-6.17v-1a1 1 0 0 1 .94-1.05zm-4.14-18.86h-4.14a1 1 0 0 1-1-.95v-1.05h6.21v1a1 1 0 0 1-1 1zm-4.14 18.86h4.14a1 1 0 0 1 1 1v1.15h-6.17v-1a1 1 0 0 1 .93-1zm28.97-18.86h-4.14a1 1 0 0 1-1-1v-1h6.21v1a1 1 0 0 1-1 1zm-4.14 18.86h4.14a1 1 0 0 1 1 1v1.15h-6.17v-1a1 1 0 0 1 .93-1zm20.7-18.86h-4.15a1 1 0 0 1-1-1v-1H78v1a1 1 0 0 1-1 1zm-4.15 18.86h4.15a1 1 0 0 1 1 1v1.05h-6.18v-1a1 1 0 0 1 .93-1.05zm-4.14-18.86h-4.13a1 1 0 0 1-1-.95v-1.05h6.21v1a1 1 0 0 1-1 1zm-4.13 18.86h4.13a1 1 0 0 1 1 1v1.05h-6.17v-1a1 1 0 0 1 .94-1.05z" fill="#afafaf"/><path d="M50 729.49l19.56 10.93H30.45L50 729.49" fill="#c8c8c8"/><path fill="none" d="M126.17 745.66h47.63v25.15h-47.63z"/><path d="M179 772.9h-58v-2.09a1 1 0 0 1 1-1h55.9a1 1 0 0 1 1 1V773zm-1.07-26.19H122a1 1 0 0 1-1-1v-2.15h58v2.1a1 1 0 0 1-.93 1.05z" fill="#323232"/><path d="M179 775h-58a1 1 0 0 1-1-1v-1.1a1 1 0 0 1 1-1h58a1 1 0 0 1 1 1v1.1a1 1 0 0 1-1 1z" fill="#191919"/><path d="M179 744.61h-58a1 1 0 0 1-1-1v-1.52a1 1 0 0 1 .53-.92L149 725.25a2.09 2.09 0 0 1 2 0l28.5 15.92a1.06 1.06 0 0 1 .53.92v1.47a1 1 0 0 1-.94 1.05zm-55.94 4.19h4.14v20.96h-4.14zm24.84 0h4.14v20.96h-4.14zm-8.28 0h4.14v20.96h-4.14zm-8.28 0h4.14v20.96h-4.14zm24.86 0h4.14v20.96h-4.14zm16.56 0h4.14v20.96h-4.14zm-8.28 0h4.14v20.96h-4.14z" fill="#646464"/><path d="M127.25 748.8h-4.14a1 1 0 0 1-1-.95v-1.05h6.12v1a1 1 0 0 1-.98 1zm-4.19 18.86h4.19a1 1 0 0 1 1 1v1.05H122v-1a1 1 0 0 1 .93-1.05h.13zm28.99-18.86h-4.15a1 1 0 0 1-1-1v-1h6.2v1a1 1 0 0 1-1 1zm-4.15 18.86h4.15a1 1 0 0 1 1 1v1.05h-6.2v-1a1 1 0 0 1 .94-1.05h.11zm-4.14-18.86h-4.14a1 1 0 0 1-1-.95v-1.05h6.21v1a1 1 0 0 1-1 1zm-4.14 18.86h4.14a1 1 0 0 1 1 1v1.05h-6.21v-1a1 1 0 0 1 .93-1.05zm-4.14-18.86h-4.14a1 1 0 0 1-1-1v-1h6.21v1a1 1 0 0 1-1 1zm-4.14 18.86h4.14a1 1 0 0 1 1 1v1.05h-6.25v-1a1 1 0 0 1 .93-1.05zm29-18.86h-4.14a1 1 0 0 1-1-1v-1h6.21v1a1 1 0 0 1-1 1zm-4.14 18.86h4.14a1 1 0 0 1 1 1v1.15h-6.21v-1a1 1 0 0 1 .93-1zm20.7-18.86h-4.14a1 1 0 0 1-1-1v-1H178v1a1 1 0 0 1-1 1zm-4.14 18.86h4.14a1 1 0 0 1 1 1v1.05h-6.16v-1a1 1 0 0 1 .93-1.05h.09zm-4.14-18.86h-4.14a1 1 0 0 1-1-1v-1h6.25v1a1 1 0 0 1-1 1zm-4.14 18.86h4.14a1 1 0 0 1 1 1v1.05h-6.21v-1a1 1 0 0 1 .93-1.05z"/><path d="M150 729.49l19.57 10.93h-39.16L150 729.49" fill="#323232"/><path fill="none" d="M226.17 745.66h47.62v25.15h-47.62z"/><path d="M279 772.9h-58v-2.09a1 1 0 0 1 1-1h56a1 1 0 0 1 1 1zm-1.07-26.19H222a1 1 0 0 1-1-1v-2.25h58v2.1a1 1 0 0 1-.93 1z" fill="#19c819"/><path d="M279 775h-58a1 1 0 0 1-1-1v-1.1a1 1 0 0 1 1-1h58a1 1 0 0 1 1 1v1.1a1 1 0 0 1-1 1zm0-30.39h-58a1 1 0 0 1-1-1v-1.52a1 1 0 0 1 .53-.92L249 725.25a2.09 2.09 0 0 1 2 0l28.5 15.92a1.06 1.06 0 0 1 .53.92v1.47a1 1 0 0 1-.94 1.05zm-55.94 4.19h4.14v20.96h-4.14zm24.84 0h4.14v20.96h-4.14zm-8.28 0h4.14v20.96h-4.14zm-8.28 0h4.14v20.96h-4.14zm24.85 0h4.14v20.96h-4.14zm16.56 0h4.14v20.96h-4.14zm-8.28 0h4.14v20.96h-4.14z" fill="#32e14b"/><path d="M227.25 748.8h-4.14a1 1 0 0 1-1-1v-1h6.12v1a1 1 0 0 1-.98 1zm-4.19 18.86h4.19a1 1 0 0 1 1 1v1.15H222v-1a1 1 0 0 1 .93-1h.07zm28.99-18.86h-4.15a1 1 0 0 1-1-1v-1h6.21v1a1 1 0 0 1-1 1zm-4.15 18.86h4.15a1 1 0 0 1 1 1v1.05h-6.21v-1a1 1 0 0 1 .94-1.05h.12zm-4.14-18.86h-4.14a1 1 0 0 1-1-.95v-1.05h6.22v1a1 1 0 0 1-1 1zm-4.14 18.86h4.14a1 1 0 0 1 1 1v1.05h-6.22v-1a1 1 0 0 1 .93-1.05zm-4.14-18.86h-4.14a1 1 0 0 1-1-1v-1h6.22v1a1 1 0 0 1-1 1zm-4.14 18.86h4.14a1 1 0 0 1 1 1v1.05h-6.25v-1a1 1 0 0 1 .92-1.05zm28.99-18.86h-4.14a1 1 0 0 1-1-.95v-1.05h6.22v1a1 1 0 0 1-1 1zm-4.14 18.86h4.14a1 1 0 0 1 1 1v1.05h-6.23v-1a1 1 0 0 1 .93-1.05zm20.71-18.86h-4.15a1 1 0 0 1-1-1v-1H278v1a1 1 0 0 1-1 1zm-4.15 18.86h4.15a1 1 0 0 1 1 1v1.05h-6.18v-1a1 1 0 0 1 .94-1.05h.09zm-4.14-18.86h-4.14a1 1 0 0 1-1-.95v-1.05h6.22v1a1 1 0 0 1-1 1zm-4.14 18.86h4.14a1 1 0 0 1 1 1v1.1h-6.22v-1a1 1 0 0 1 .94-1zM250 729.49l19.57 10.93H230.4l19.6-10.93" fill="#199619"/><path fill="none" d="M0 0h400v2300H0z"/><path fill="none" d="M326.21 745.66h47.58v25.15h-47.58z"/><path d="M379 772.9h-58v-2.09a1 1 0 0 1 1-1h55.86a1 1 0 0 1 1 1v2.09zm-1.07-26.19h-55.86a1 1 0 0 1-1-1v-2.15H379v2.1a1 1 0 0 1-.93 1.05z" fill="#4b00c8"/><path d="M379 775h-58a1 1 0 0 1-1-1v-1.1a1 1 0 0 1 1-1h58a1 1 0 0 1 1 1v1.1a1 1 0 0 1-1 1zm0-30.39h-58a1 1 0 0 1-1-1V742a1 1 0 0 1 .53-.92L349 725.25a2.09 2.09 0 0 1 2 0l28.47 15.92a1.06 1.06 0 0 1 .53.92v1.47a1 1 0 0 1-.94 1.05zm-55.89 4.19h4.14v20.96h-4.14zm24.82 0h4.14v20.96h-4.14zm-8.28 0h4.14v20.96h-4.14zm-8.27 0h4.14v20.96h-4.14zm24.83 0h4.14v20.96h-4.14zm16.54 0h4.14v20.96h-4.14zm-8.27 0h4.14v20.96h-4.14z" fill="#6400fa"/><path d="M327.3 748.8h-4.14a1 1 0 0 1-1-.95v-1.05h6.16v1a1 1 0 0 1-1 1zm-4.19 18.86h4.19a1 1 0 0 1 1 1v1.05h-6.2v-1a1 1 0 0 1 .94-1.05h.07zm28.96-18.86h-4.14a1 1 0 0 1-1-1v-1h6.2v1a1 1 0 0 1-1 1zm-4.14 18.86h4.14a1 1 0 0 1 1 1v1.05h-6.2v-1a1 1 0 0 1 .94-1.05h.12zm-4.14-18.86h-4.14a1 1 0 0 1-1-1v-1h6.21v1a1 1 0 0 1-1 1zm-4.14 18.86h4.14a1 1 0 0 1 1 1v1.15h-6.21v-1a1 1 0 0 1 .93-1zm-4.13-18.86h-4.14a1 1 0 0 1-1-.95v-1.05h6.21v1a1 1 0 0 1-1 1zm-4.14 18.86h4.14a1 1 0 0 1 1 1v1.1h-6.21v-1a1 1 0 0 1 .93-1h.05zm28.97-18.86h-4.14a1 1 0 0 1-1-.95v-1.05h6.21v1a1 1 0 0 1-1 1zm-4.14 18.86h4.14a1 1 0 0 1 1 1v1.05h-6.21v-1a1 1 0 0 1 .93-1.05zm20.68-18.86h-4.14a1 1 0 0 1-1-1v-1H378v1a1 1 0 0 1-1 1zm-4.14 18.86h4.14a1 1 0 0 1 1 1v1.15h-6.21v-1a1 1 0 0 1 .93-1zm-4.13-18.86h-4.14a1 1 0 0 1-1-.95v-1.05h6.2v1a1 1 0 0 1-1 1zm-4.14 18.86h4.14a1 1 0 0 1 1 1v1.15h-6.2v-1a1 1 0 0 1 .93-1zM350 729.49l19.56 10.93h-39.12L350 729.49" fill="#32007d"/><path d="M30.32 841.58H41.6v-11.27a2.81 2.81 0 0 1 2.81-2.81h11.24a2.81 2.81 0 0 1 2.81 2.81v11.26h11.22a2.82 2.82 0 0 1 2.82 2.82v11.25a2.82 2.82 0 0 1-2.82 2.82H58.46v11.23a2.81 2.81 0 0 1-2.81 2.81H44.41a2.81 2.81 0 0 1-2.81-2.81v-11.23H30.32a2.82 2.82 0 0 1-2.82-2.82v-11.25a2.81 2.81 0 0 1 2.81-2.81z" fill="#fff"/><path d="M130.32 841.58h11.28v-11.27a2.81 2.81 0 0 1 2.81-2.81h11.24a2.81 2.81 0 0 1 2.81 2.81v11.26h11.22a2.82 2.82 0 0 1 2.82 2.82v11.25a2.82 2.82 0 0 1-2.82 2.82h-11.22v11.23a2.81 2.81 0 0 1-2.81 2.81h-11.24a2.81 2.81 0 0 1-2.81-2.81v-11.23h-11.28a2.82 2.82 0 0 1-2.82-2.82v-11.25a2.81 2.81 0 0 1 2.81-2.81z" fill="#191919"/><path d="M230.32 841.58h11.28v-11.27a2.81 2.81 0 0 1 2.81-2.81h11.24a2.81 2.81 0 0 1 2.81 2.81v11.26h11.22a2.82 2.82 0 0 1 2.82 2.82v11.25a2.82 2.82 0 0 1-2.82 2.82h-11.22v11.23a2.81 2.81 0 0 1-2.81 2.81h-11.24a2.81 2.81 0 0 1-2.81-2.81v-11.23h-11.28a2.82 2.82 0 0 1-2.82-2.82v-11.25a2.81 2.81 0 0 1 2.81-2.81z" fill="#32e14b"/><path d="M330.32 841.58h11.28v-11.27a2.81 2.81 0 0 1 2.81-2.81h11.24a2.81 2.81 0 0 1 2.81 2.81v11.26h11.22a2.82 2.82 0 0 1 2.82 2.82v11.25a2.82 2.82 0 0 1-2.82 2.82h-11.22v11.23a2.81 2.81 0 0 1-2.81 2.81h-11.24a2.81 2.81 0 0 1-2.81-2.81v-11.23h-11.28a2.82 2.82 0 0 1-2.82-2.82v-11.25a2.81 2.81 0 0 1 2.81-2.81z" fill="#6400fa"/><path d="M25.54 2169.46a1.32 1.32 0 0 1 0 1.87l-.47.47 7.65-2.09-7.43-7.44-2.09 7.66.47-.47a1.31 1.31 0 0 1 1.84 0z" fill="#c8c8c8"/><path d="M25.07 2171.8l.47-.47a1.33 1.33 0 0 0 0-1.87 1.32 1.32 0 0 0-1.87 0l-.47.47-.7 2.57z" fill="#969696"/><path fill="#fff" d="M68.26 2134.16l-7.46-7.47-35.5 35.53-.01.05 7.43 7.44.05-.01 35.49-35.54z"/><path d="M76.69 2122l-3.69-3.74a2.63 2.63 0 0 0-3.69 0l-4.77 4.74 7.46 7.47 4.69-4.68a2.62 2.62 0 0 0 .1-3.69z" fill="#969696"/><path fill="#f7e6a1" d="M60.8 2126.69l3.73-3.74-3.73 3.74z"/><path fill="#c8c8c8" d="M60.8 2126.69l3.73-3.74 7.48 7.48-3.74 3.75-7.47-7.49z"/><path d="M125.54 2169.46a1.32 1.32 0 0 1 0 1.87l-.47.47 7.66-2.09-7.44-7.43-2.09 7.65.47-.47a1.32 1.32 0 0 1 1.87 0z" fill="#646464"/><path d="M125.07 2171.8l.47-.47a1.32 1.32 0 0 0 0-1.87 1.33 1.33 0 0 0-1.87 0l-.47.47-.7 2.57z"/><path fill="#191919" d="M168.29 2134.19l-7.47-7.47-35.51 35.51-.02.05 7.44 7.43.05-.01 35.51-35.51z"/><path d="M176.72 2122l-3.77-3.77a2.63 2.63 0 0 0-3.69 0l-4.68 4.69 7.47 7.46 4.69-4.67a2.63 2.63 0 0 0 0-3.69z"/><path fill="#f7e6a1" d="M160.82 2126.72l3.74-3.73-3.74 3.73z"/><path fill="#646464" d="M160.835 2126.71l3.741-3.739 7.48 7.482-3.741 3.74z"/><path d="M225.54 2169.46a1.32 1.32 0 0 1 0 1.87l-.47.47 7.66-2.09-7.44-7.43-2.09 7.65.47-.47a1.32 1.32 0 0 1 1.87 0z" fill="#19c819"/><path d="M225.07 2171.8l.47-.47a1.32 1.32 0 0 0 0-1.87 1.33 1.33 0 0 0-1.87 0l-.47.47-.7 2.57z" fill="#199619"/><path fill="#32e14b" d="M268.29 2134.19l-7.47-7.47-35.51 35.51-.02.05 7.44 7.43.05-.01 35.51-35.51z"/><path d="M276.72 2122l-3.77-3.77a2.63 2.63 0 0 0-3.69 0l-4.68 4.69 7.47 7.46 4.69-4.67a2.63 2.63 0 0 0 0-3.69z" fill="#19c819"/><path fill="#32e14b" d="M260.82 2126.72l3.74-3.73-3.74 3.73z"/><path fill="#199619" d="M260.828 2126.713l3.741-3.74 7.48 7.482-3.741 3.74z"/><path d="M325.54 2169.46a1.32 1.32 0 0 1 0 1.87l-.47.47 7.66-2.09-7.44-7.43-2.09 7.65.47-.47a1.32 1.32 0 0 1 1.87 0z" fill="#0019fa"/><path d="M325.07 2171.8l.47-.47a1.32 1.32 0 0 0 0-1.87 1.33 1.33 0 0 0-1.87 0l-.47.47-.7 2.57z" fill="#00007d"/><path fill="#004bfa" d="M368.29 2134.19l-7.47-7.47-35.51 35.51-.02.05 7.44 7.43.05-.01 35.51-35.51z"/><path d="M376.72 2122l-3.77-3.77a2.63 2.63 0 0 0-3.69 0l-4.68 4.69 7.47 7.46 4.69-4.67a2.63 2.63 0 0 0 0-3.69z" fill="#0019fa"/><path fill="#004bfa" d="M360.82 2126.72l3.74-3.73-3.74 3.73z"/><path fill="#0019af" d="M360.838 2126.721l3.741-3.74 7.48 7.483-3.741 3.74z"/><path d="M162.15 32.76a.92.92 0 0 0-1.14.58.87.87 0 0 0 .24.9 20.88 20.88 0 0 1 9.46 23.35.88.88 0 0 0 .64 1.07h.22a.9.9 0 0 0 .87-.65 22.59 22.59 0 0 0-10.29-25.28zm-3.97 38.89a21.68 21.68 0 0 1-24-5.28.92.92 0 0 0-1.27.17.87.87 0 0 0 0 1 23.51 23.51 0 0 0 26 5.71.87.87 0 0 0 .3-1.19.91.91 0 0 0-1.03-.41zM144.9 31.74a.88.88 0 0 0 .46-1.17.92.92 0 0 0-.89-.52 22.81 22.81 0 0 0-17.62 20.54.89.89 0 0 0 .83.89h.07a.89.89 0 0 0 .9-.82 21.09 21.09 0 0 1 16.25-18.92z" fill="#646464"/><ellipse cx="150" cy="30.26" rx="5.35" ry="5.26"/><ellipse cx="130.35" cy="62.72" rx="5.35" ry="5.26"/><ellipse cx="169.65" cy="62.72" rx="5.35" ry="5.26"/><path d="M136.74 370.58l7.69-6.24L156.92 375l20.58-50-55 20.64 18.34 15.64z" fill="#646464"/><path d="M132.65 354.29l4.09 16.29 4.1-9.3L177.5 325z"/><path d="M236.74 370.58l7.69-6.24L256.92 375l20.58-50-55 20.64 18.34 15.64z" fill="#32e14b"/><path d="M232.65 354.29l4.09 16.29 4.1-9.3L277.5 325z" fill="#199619"/><path d="M336.74 370.58l7.69-6.24L356.92 375l20.58-50-55 20.64 18.34 15.64z" fill="#6400fa"/><path d="M332.65 354.29l4.09 16.29 4.1-9.3L377.5 325z" fill="#3200af"/><path d="M160.11 1226.09h-20.28a1 1 0 0 1-.75-.33.82.82 0 0 1-.21-.8l2.26-9.23a1 1 0 0 1 1-.73h15.72a1 1 0 0 1 1 .73l2.23 9.27a.84.84 0 0 1-.2.8 1 1 0 0 1-.77.29zm-19-1.93h17.78l-1.78-7.3h-14.26z" fill="#191919"/><path d="M172.09 1265h-44.25a2.89 2.89 0 0 1-3-2.78v-25.35a2.88 2.88 0 0 1 2.9-2.86h44.31a2.88 2.88 0 0 1 3 2.76v25.35a3 3 0 0 1-2.96 2.88z"/><path d="M171.6 1248.35h-43.27a5.86 5.86 0 0 1-5.83-5.89v-17.61a2.47 2.47 0 0 1 2.44-2.49H175a2.47 2.47 0 0 1 2.47 2.46v17.61a5.89 5.89 0 0 1-5.85 5.9z" fill="#646464"/><path d="M166.2 1254.45h-2.61a1 1 0 0 1-1-1v-3.12a1 1 0 0 1 1-1h2.61a1 1 0 0 1 1 1v3.12a1 1 0 0 1-1 1z" fill="#c8c8c8"/><path d="M167.3 1251.4h-4.8a1 1 0 0 1-1-1v-5.4a1 1 0 0 1 1-1h4.8a1 1 0 0 1 1 1v5.41a1 1 0 0 1-1 .99z" fill="#969696"/><path d="M136.34 1254.45h-2.61a1 1 0 0 1-1-1v-3.12a1 1 0 0 1 1-1h2.61a1 1 0 0 1 1 1v3.12a1 1 0 0 1-1 1z" fill="#c8c8c8"/><path d="M137.44 1251.4h-4.8a1 1 0 0 1-1-1v-5.4a1 1 0 0 1 1-1h4.8a1 1 0 0 1 1 1v5.41a1 1 0 0 1-1 .99z" fill="#969696"/><path fill="#c8c8c8" d="M163.05 1222.28h3.69v21.77h-3.69zm-29.86 0h3.69v21.77h-3.69z"/><ellipse cx="50.02" cy="1868.69" rx="6.43" ry="6.31" fill="#afafaf"/><path d="M40.16 1850.43a10.46 10.46 0 0 1 3.57 7.8v2h12.58v-2a10.13 10.13 0 0 1 3.46-7.7 14.35 14.35 0 0 0 1.59-20.22l-.23-.26a15 15 0 0 0-20.86-1.33 14.32 14.32 0 0 0-1.59 20.2l.23.27a14.63 14.63 0 0 0 1.25 1.24z" fill="#faff64"/><path d="M53.08 1839.4a4 4 0 0 0-3.06 1.38 4 4 0 0 0-5.63-.41 3.87 3.87 0 0 0-.49 5.45l.07.08a4 4 0 0 0 3 1.36 4.17 4.17 0 0 0 2-.57v16.13h2v-16.12a3.93 3.93 0 0 0 2 .54 4 4 0 0 0 4-3.91 4 4 0 0 0-3.89-3.93zm-6.08 5.92a2 2 0 1 1 2-2 2 2 0 0 1-2 2zm6.11 0a2 2 0 1 1 2-2 2 2 0 0 1-2 2z" fill="#fac800"/><path d="M57.53 1860.2h-15a.3.3 0 0 0-.29.28v9.57a.46.46 0 0 0 .45.44h14.68a.43.43 0 0 0 .45-.41v-9.59a.31.31 0 0 0-.29-.29z" fill="#fff"/><path d="M50 1821.51a1.23 1.23 0 0 1-1.24-1.22v-4.07A1.23 1.23 0 0 1 50 1815a1.23 1.23 0 0 1 1.24 1.22v4.09a1.21 1.21 0 0 1-1.22 1.2zm18.35 18.04a1.23 1.23 0 0 1 1.23-1.22h4.18a1.24 1.24 0 0 1 1.24 1.22 1.24 1.24 0 0 1-1.24 1.22h-4.18a1.23 1.23 0 0 1-1.23-1.22zm-43.35 0a1.24 1.24 0 0 1 1.24-1.22h4.18a1.23 1.23 0 0 1 1.23 1.22 1.23 1.23 0 0 1-1.23 1.22h-4.18a1.24 1.24 0 0 1-1.24-1.22zm38-12.74a1.22 1.22 0 0 1 0-1.73l3-2.89a1.24 1.24 0 0 1 1.75 0 1.2 1.2 0 0 1 0 1.7l-3 2.9a1.26 1.26 0 0 1-1.75.02zm-30.66 30.12a1.2 1.2 0 0 1 0-1.71l2.95-2.89a1.24 1.24 0 0 1 1.75 0 1.24 1.24 0 0 1 0 1.73l-3 2.89a1.23 1.23 0 0 1-1.72 0zm30.66-4.62a1.26 1.26 0 0 1 1.76 0l2.94 2.89a1.2 1.2 0 0 1 0 1.7 1.26 1.26 0 0 1-1.76 0L63 1854a1.22 1.22 0 0 1 0-1.73zm-30.66-30.12a1.24 1.24 0 0 1 1.73 0l3 2.89a1.24 1.24 0 0 1 0 1.73 1.29 1.29 0 0 1-1.77 0l-2.94-2.9a1.2 1.2 0 0 1 0-1.7z" fill="#faff64"/><ellipse cx="350.02" cy="1868.69" rx="6.43" ry="6.31" fill="#3200af"/><path d="M340.16 1850.43a10.46 10.46 0 0 1 3.57 7.8v2h12.58v-2a10.13 10.13 0 0 1 3.46-7.7 14.35 14.35 0 0 0 1.59-20.22l-.23-.26a15 15 0 0 0-20.86-1.33 14.32 14.32 0 0 0-1.59 20.2l.23.27a14.63 14.63 0 0 0 1.25 1.24z" fill="#faff64"/><path d="M353.08 1839.4a4 4 0 0 0-3.06 1.38 4 4 0 0 0-5.63-.41 3.87 3.87 0 0 0-.49 5.45l.07.08a4 4 0 0 0 3 1.36 4.17 4.17 0 0 0 2-.57v16.13h2v-16.12a3.93 3.93 0 0 0 2 .54 4 4 0 0 0 4-3.91 4 4 0 0 0-3.89-3.93zm-6.11 5.92a2 2 0 1 1 2-2 2 2 0 0 1-2 2zm6.11 0a2 2 0 1 1 2-2 2 2 0 0 1-2 2z" fill="#fac800"/><path d="M357.53 1860.2h-15a.3.3 0 0 0-.29.28v9.57a.46.46 0 0 0 .45.44h14.67a.43.43 0 0 0 .45-.41v-9.59a.3.3 0 0 0-.28-.29z" fill="#6400fa"/><path d="M350 1821.51a1.23 1.23 0 0 1-1.24-1.22v-4.07A1.23 1.23 0 0 1 350 1815a1.23 1.23 0 0 1 1.24 1.22v4.09a1.21 1.21 0 0 1-1.22 1.2zm18.35 18.04a1.23 1.23 0 0 1 1.23-1.22h4.18a1.24 1.24 0 0 1 1.24 1.22 1.24 1.24 0 0 1-1.24 1.22h-4.18a1.23 1.23 0 0 1-1.23-1.22zm-43.35 0a1.24 1.24 0 0 1 1.24-1.22h4.18a1.23 1.23 0 0 1 1.23 1.22 1.23 1.23 0 0 1-1.23 1.22h-4.18a1.24 1.24 0 0 1-1.24-1.22zm38-12.74a1.22 1.22 0 0 1 0-1.73l2.95-2.89a1.24 1.24 0 0 1 1.75 0 1.2 1.2 0 0 1 0 1.7l-3 2.9a1.26 1.26 0 0 1-1.7.02zm-30.66 30.12a1.2 1.2 0 0 1 0-1.71l3-2.89a1.24 1.24 0 0 1 1.75 0 1.24 1.24 0 0 1 0 1.73l-3 2.89a1.23 1.23 0 0 1-1.72 0zm30.66-4.62a1.26 1.26 0 0 1 1.76 0l2.94 2.89a1.2 1.2 0 0 1 0 1.7 1.26 1.26 0 0 1-1.76 0L363 1854a1.22 1.22 0 0 1 0-1.73zm-30.66-30.12a1.24 1.24 0 0 1 1.73 0l3 2.89a1.24 1.24 0 0 1 0 1.73 1.29 1.29 0 0 1-1.77 0l-2.94-2.9a1.2 1.2 0 0 1 0-1.7z" fill="#faff64"/></svg>