<svg id="_800x800" xmlns="http://www.w3.org/2000/svg" viewBox="0 0 1300 700"><style>.st0{fill:#6400fa}.st1{fill:#004bbd}.st2{fill:#32e14b}.st3{fill:#ffb24e}.st4{fill:#fa6432}.st5{fill:#fac800}.st6{fill:#00afff}.st7{fill:#ffb8ef}.st8{fill:#fff}</style><title>pattern-01</title><title>pattern-01</title><title>pattern-01</title><path class="st0" d="M511.4 460.6h-16.1v-15.8h16.1v15.8zm-13-3.1h9.9v-9.6h-9.9v9.6z"/><path class="st1" d="M171.9 197.1l-36.6 35.7-.6-7.4 36.6-35.7zm18.6 0l-36.6 35.7-.6-7.4 36.6-35.7z"/><path class="st2" d="M489 614.9l-36.6 35.6-.6-7.4 36.6-35.6z"/><path class="st3" d="M285 540.9l-36.6 35.6-.6-7.4 36.6-35.6z"/><path class="st4" d="M104 315l-36.6 35.6-.6-7.4 36.6-35.6z"/><path class="st3" d="M303.6 540.9L267 576.5l-.6-7.4 36.6-35.6z"/><path class="st0" d="M564.3 458.3L527.7 494l-.6-7.4 36.5-35.7zm18.6-362.8l-36.6 35.7-.6-7.4 36.5-35.7zm18.5 0l-36.5 35.7-.6-7.4 36.5-35.7z"/><path class="st2" d="M87.6 624.5l21.3.6 1.9-1.8-23.3-.7h-.2l-12.5-.4 2 1.9 10.7.4zm-.7 17h.2l4.9.1 1.9-1.8-6.8-.2h-.3l-15.3-.5-1.8 1.8zm-36.1-88.3l-5.2-.1-1.9 1.8 9.1.3zM88 607.4h.2l18.8.6-2-1.9-16.9-.5h-.2l-31.1-1 2 1.9zm.6-17h.3l-.1-.1-.2-.2-1.6-1.6-48.3-1.5 2 1.9zM37 571.7l33.9 1.1-2-1.9-31.9-1h-.1l-.2-.1-8-.2-1.9 1.8 10 .3zm51.3 27.2h.2l9.5.3-2-1.9-7.4-.2h-.2l-.2-.1-40.4-1.2 1.9 1.9zm-51.8-18.7h.2l43.2 1.4-2-1.9-41.3-1.3h-.2l-6.7-.3 2 2zm.8-17l24.5.8-1.9-1.9-22.6-.8h-.2l-1.8 1.8 1.8.1zM87.2 633h.2l13.1.4 1.8-1.8-15.1-.5h-.1l-7.1-.2-1.9 1.8zm-12.1 25.2l1.8-1.8-22.3-.8-1.9 1.9zm8.5-8.3l1.8-1.8-22.3-.7-1.9 1.8zm4.1-34l.2.1 28.1.8-1.9-1.9-26.1-.8h-.4l-21.8-.7 2 1.9zM37.4 674l20.8.7 1.8-1.8-22.3-.7-1.1 1zm9 8.8l3.3.1 1.9-1.8-7.1-.2zm20.2-16.4l1.9-1.8-22.4-.7-1.8 1.8zM614 630l15.5-14.2v-2.6l-17 15.6-.1.1-9.1 8.3h2.8l7.7-7.1zm11.8 12.5l.1-.1 3.6-3.3v-2.5l-4.9 4.5-.1.1-.2.1-11.1 10.2v2.5zM536.3 605l-3.8 3.5v2.6l6.6-6.1zm65.6 12.7l.1-.1 13.7-12.6h-2.8l-12.3 11.3-.2.1-22.7 20.8h2.8zm-12-12.4l.2-.2.1-.1h-2.8l-35.2 32.2h2.8zm-50 22.3l24.8-22.6h-2.8l-23.3 21.3-.1.1-.2.1-5.8 5.4v2.5l7.3-6.6zm56-16.1l.1-.2 7-6.3h-2.8l-5.5 5-.1.1-.1.1-29.5 27h2.7zM545.7 634l.2-.1 31.5-28.9h-2.8l-30.2 27.6-.1.1-4.9 4.5h2.8zm-11.8-12.6l18-16.4h-2.8l-16.5 15.1-.1.1v2.6l1.3-1.2zm85.9 14.9l.1-.1 9.6-8.7v-2.6l-11 10.1-.1.1-5.2 4.7v2.6zm9.7 26.2v-2.6l-16.3 14.9v2.6zm0-11.7v-2.6l-16.3 15v2.5zm-21.6-26.9l.1-.1 20.5-18.8h-2.8l-19 17.4-.2.1-.1.2-15.9 14.5h2.8zm6.5 75.8l15.1-13.9v-2.5l-16.3 14.9v1.5zm12.7 0l2.4-2.2v-2.6l-5.2 4.8zm2.4-25.6v-2.5l-16.3 14.9v2.6zM465.8 108.7l15.6 14.2v2.6l-17-15.6-.2-.1-9.1-8.3h2.8l7.8 7.1zm11.8-12.6l.1.2 3.7 3.3v2.5l-5-4.5-.1-.1-.1-.1L465 87.2v-2.6zm-89.4 37.6l-3.9-3.5v-2.6l6.7 6.1zm65.5-12.7l.2.1 13.7 12.6h-2.8l-12.4-11.3-.1-.2-22.7-20.7h2.8zm-11.9 12.4l.1.2.1.1h-2.8L404 101.5h2.8zM391.7 111l24.8 22.7h-2.8l-23.3-21.3-.1-.1-.1-.1-5.9-5.4v-2.5l7.3 6.6zm56.1 16.2l.1.1 6.9 6.4H452l-5.4-5-.1-.1-.2-.1-29.5-27h2.8zm-50.2-22.5l.1.1 31.6 28.9h-2.8l-30.2-27.6-.2-.2-4.8-4.4h2.8zm-11.8 12.6l17.9 16.4h-2.8l-16.4-15.1-.2-.1v-2.6l1.3 1.2zm85.8-14.9l.2.1 9.6 8.7v2.6l-11.1-10.1-.1-.1-5.2-4.7v-2.6zm9.8-26.2v2.6L465 63.9v-2.6zm0 11.7v2.5L465 75.5V73zm-21.7 26.9l.1.1 20.6 18.8h-2.8l-19.1-17.4-.1-.2-.1-.1-16-14.5h2.8zm6.5-75.8l15.2 13.9v2.5L465 40.5V39zm12.8 0l2.4 2.2v2.5l-5.2-4.7zm2.4 25.5v2.6L465 52.2v-2.6z"/><path class="st4" d="M81.5 143.1L97 128.9v-2.6l-17 15.5-.1.2-9.1 8.3h2.8l7.7-7.1zm11.8 12.5l.1-.1 3.6-3.3v-2.6l-4.9 4.5-.1.2-.2.1-11.1 10.2v2.5zM3.8 118.1L0 121.6v2.6l6.6-6.1zm65.6 12.7l.1-.2 13.7-12.5h-2.7l-12.4 11.3-.1.1-22.8 20.8H48zm-11.9-12.5l.1-.1.1-.1h-2.8l-35.2 32.2h2.8zM7.4 140.7l24.8-22.6h-2.8L6.1 139.4l-.1.1-.2.1-5.8 5.3v2.6l7.3-6.7zm56-16.2l.2-.1 6.9-6.3h-2.8l-5.4 5-.2.1-.1.1-29.5 27h2.8zm-50.1 22.6l.1-.2 31.5-28.8h-2.8l-30.2 27.6-.1.1-4.9 4.5h2.8zM1.4 134.5l18-16.4h-2.8l-16.5 15-.1.2v2.5l1.3-1.2zm85.9 14.9l.1-.1 9.6-8.8V138l-11 10-.1.2-5.2 4.7v2.5zm9.7 26.1V173l-16.3 14.9v2.6zm0-11.6v-2.6l-16.3 14.9v2.6zM75.4 137l.1-.1L96 118.1h-2.8l-19 17.4-.1.1-.2.1L58 150.3h2.8zm6.5 75.7L97 198.9v-2.6l-16.3 15v1.4zm12.7 0l2.4-2.1V208l-5.1 4.7zm2.4-25.5v-2.5l-16.3 14.9v2.5z"/><path class="st3" d="M414.6 568.2l.1.1 1.1 1.1v-2.8L401 551.3h-2.6zm-95.8-.2l3.5 3.8h2.7l-6.2-6.5zm75.3 3.8h2.7l-19.7-20.5h-2.6zm-40.7-17.5l.1.1 16.7 17.4h2.6l-18-18.8-.1-.1-1.5-1.6h-2.7zm-12.8 11.5l.1.1.1.2 5.5 5.7h2.6l-6.8-7.1-.2-.2-12.7-13.2h-2.6zm41.6 6h2.6l-19.7-20.5h-2.6zM347 560.1l.2.1 11 11.6h2.7l-12.5-13-.1-.1-7.1-7.4h-2.6zm-11.4 10.3l-16.8-17.5v2.7l15.4 16 .1.2h2.6l-1.2-1.3zm70.5 1.4h2.6l-19.6-20.5h-2.7z"/><path class="st2" d="M602.7 455.9l-.1.1-1.1 1.1h2.7l15.8-14.4v-2.6zm.1-93.5l-3.8 3.5v2.6l6.6-6.1zm-3.8 73.5v2.6l21-19.2v-2.6zm17.9-39.7l-.1.1-17.8 16.3v2.6l19.2-17.6.2-.1 1.6-1.5v-2.6zm-11.8-12.5l-.1.1-.2.1-5.8 5.4v2.5l7.3-6.7.1-.1 13.6-12.4v-2.5zm-6.1 40.6v2.5l21-19.2v-2.5zm11.9-34.3l-.1.1-11.8 10.8v2.6l13.3-12.1.1-.2 7.6-6.9v-2.6zm-10.5-11.2l18-16.4h-2.8l-16.5 15.1-.1.1v2.5l1.3-1.2zm-1.4 68.8v2.6l21-19.2v-2.6z"/><path class="st0" d="M352.3 270.9c-5.6 0-10.2-4.5-10.2-10s4.6-10 10.2-10 10.2 4.5 10.2 10-4.6 10-10.2 10zm0-16.9c-3.9 0-7.1 3.1-7.1 6.9 0 3.8 3.2 6.9 7.1 6.9s7.1-3.1 7.1-6.9c-.1-3.8-3.2-6.9-7.1-6.9z"/><ellipse class="st0" cx="264.4" cy="178.8" rx="8.6" ry="8.4"/><path class="st0" d="M581 330.9c-5.6 0-10.2-4.5-10.2-10s4.6-10 10.2-10 10.2 4.5 10.2 10-4.6 10-10.2 10zm0-16.9c-3.9 0-7.1 3.1-7.1 6.9 0 3.8 3.2 6.9 7.1 6.9s7.1-3.1 7.1-6.9c0-3.8-3.2-6.9-7.1-6.9z"/><ellipse class="st2" cx="399.5" cy="280.8" rx="8.6" ry="8.4"/><path class="st4" d="M519.1 190.5c0 3.9-3.2 7.1-7.3 7.1-4 0-7.3-3.2-7.3-7.1s3.2-7.1 7.3-7.1 7.3 3.2 7.3 7.1z"/><ellipse class="st1" cx="245.1" cy="528.5" rx="8.6" ry="8.4"/><path class="st2" d="M584 480.4c0 2.3-1.9 4.2-4.3 4.2s-4.3-1.9-4.3-4.2c0-2.3 1.9-4.2 4.3-4.2 2.3 0 4.3 1.8 4.3 4.2z"/><ellipse class="st0" cx="136.3" cy="260.9" rx="8.6" ry="8.4"/><path class="st5" d="M278 295.8c1.6 3.9 4.8 7 8.8 8.6-4 1.6-7.2 4.7-8.8 8.6-1.6-3.9-4.8-7-8.8-8.6 4-1.5 7.2-4.6 8.8-8.6zm278 257.5c1.6 3.9 4.8 7 8.8 8.6-4 1.6-7.2 4.7-8.8 8.6-1.6-3.9-4.8-7-8.8-8.6 4-1.6 7.2-4.7 8.8-8.6z"/><path class="st2" d="M412.4 234.7c1 2.5 3.1 4.5 5.7 5.6-2.6 1-4.7 3-5.7 5.6-1-2.5-3.1-4.5-5.7-5.6 2.7-1 4.7-3 5.7-5.6z"/><path class="st6" d="M575.3 187.8c1 2.5 3.1 4.5 5.7 5.6-2.6 1-4.7 3-5.7 5.6-1-2.5-3.1-4.5-5.7-5.6 2.6-1 4.7-3 5.7-5.6z"/><path class="st1" d="M151.6 364.3c1 2.5 3.1 4.5 5.7 5.6-2.6 1-4.7 3-5.7 5.6-1-2.5-3.1-4.5-5.7-5.6 2.6-1.1 4.6-3.1 5.7-5.6z"/><path class="st5" d="M451.9 437.3c1.3 3.1 3.8 5.6 7 6.9-3.2 1.2-5.8 3.7-7 6.9-1.3-3.1-3.8-5.6-7-6.9 3.2-1.3 5.7-3.8 7-6.9zm-294.6-277c1.3 3.1 3.8 5.6 7 6.9-3.2 1.2-5.8 3.7-7 6.9-1.3-3.1-3.8-5.6-7-6.9 3.2-1.3 5.7-3.8 7-6.9zm65.9 428.3c1.3 3.1 3.8 5.6 7 6.9-3.2 1.2-5.8 3.7-7 6.9-1.3-3.1-3.8-5.6-7-6.9 3.1-1.3 5.7-3.7 7-6.9z"/><path class="st0" d="M444.4 186.7h-16.1v-15.8h16.1v15.8zm-13-3.1h9.9V174h-9.9v9.6z"/><path class="st2" d="M162.7 569.8h-16.1V554h16.1v15.8zm-13-3.1h9.9v-9.6h-9.9v9.6zm75-316h-12.4v-12.2h12.4v12.2zm-9.3-3.1h6.2v-6h-6.2v6z"/><ellipse class="st4" cx="160.2" cy="331.1" rx="4.3" ry="4.2"/><path class="st0" d="M363.8 435.6c1.6 3.9 4.8 7 8.8 8.6-4 1.6-7.2 4.7-8.8 8.6-1.6-3.9-4.8-7-8.8-8.6 4-1.6 7.2-4.7 8.8-8.6z"/><path class="st5" d="M548.9 363c1.3 3.1 3.8 5.6 7 6.9-3.2 1.2-5.8 3.7-7 6.9-1.3-3.1-3.8-5.6-7-6.9 3.2-1.3 5.8-3.8 7-6.9z"/><path class="st0" d="M521 536.6c-.8 0-1.5.7-1.5 1.5s.7 1.5 1.5 1.5 1.5-.7 1.5-1.5-.7-1.5-1.5-1.5zm-6.7 7.7c-.2-.2-.5-.3-.8-.3-.7 0-1.3.5-1.5 1.2v.3c0 .8.7 1.5 1.5 1.5.3 0 .6-.1.8-.3.4-.3.7-.7.7-1.2v-.3c-.2-.4-.4-.7-.7-.9zm0-14.8c-.2-.2-.5-.3-.8-.3-.8 0-1.5.7-1.5 1.5s.7 1.5 1.5 1.5c.3 0 .6-.1.8-.3.4-.3.7-.7.7-1.2-.1-.5-.3-1-.7-1.2zm-16.1-15.1c-.5 0-1 .3-1.3.7-.2.2-.3.5-.3.8 0 .2 0 .4.1.6.2.5.8.9 1.4.9.6 0 1.2-.4 1.4-.9.1-.2.1-.4.1-.6 0-.3-.1-.6-.3-.8-.1-.5-.6-.7-1.1-.7zm-7.6-7.4c-.8 0-1.5.7-1.5 1.5s.7 1.5 1.5 1.5 1.5-.7 1.5-1.5c0-.9-.7-1.5-1.5-1.5zm-7.3 7.4h-.3c-.2 0-.4 0-.6.1-.3.1-.5.3-.7.5-.2.2-.3.5-.3.8 0 .2 0 .4.1.6.2.4.4.6.8.8.2.1.4.1.6.1h.3c.5-.1.9-.4 1.1-.9.1-.2.1-.4.1-.6 0-.3-.1-.6-.3-.8-.1-.3-.4-.5-.8-.6zm0-14.8h-.3c-.2 0-.4 0-.6.1-.5.2-.9.8-.9 1.4 0 .6.4 1.1.9 1.4.2.1.4.1.6.1h.3c.7-.1 1.2-.7 1.2-1.5s-.5-1.4-1.2-1.5zm14.9 44.4c-.7 0-1.3.5-1.5 1.2v.3c0 .8.7 1.5 1.5 1.5s1.5-.7 1.5-1.5v-.3c-.2-.6-.8-1.2-1.5-1.2zm0-14.8c-.8 0-1.5.7-1.5 1.5s.7 1.5 1.5 1.5 1.5-.7 1.5-1.5-.7-1.5-1.5-1.5zm-7.6 7.4c-.8 0-1.5.7-1.5 1.5s.7 1.5 1.5 1.5 1.5-.7 1.5-1.5-.7-1.5-1.5-1.5zm15.2 0c-.8 0-1.5.7-1.5 1.5s.7 1.5 1.5 1.5 1.5-.7 1.5-1.5-.7-1.5-1.5-1.5zm-15.2-14.8c-.8 0-1.5.7-1.5 1.5s.7 1.5 1.5 1.5 1.5-.7 1.5-1.5-.7-1.5-1.5-1.5zm15.2 0c-.8 0-1.5.7-1.5 1.5s.7 1.5 1.5 1.5 1.5-.7 1.5-1.5-.7-1.5-1.5-1.5zm-22.5 22.3h-.3c-.2 0-.4 0-.6.1-.5.2-.8.6-.9 1.1v.3c0 .6.4 1.1.9 1.4.2.1.4.1.6.1h.3c.7-.1 1.2-.7 1.2-1.5v-.3c-.1-.6-.6-1.1-1.2-1.2zm0-14.9h-.3c-.2 0-.4 0-.6.1-.5.2-.9.8-.9 1.4 0 .6.4 1.1.9 1.4.2.1.4.1.6.1h.3c.7-.1 1.2-.7 1.2-1.5s-.5-1.3-1.2-1.5zm14.9 29.7c-.8 0-1.5.7-1.5 1.5s.7 1.5 1.5 1.5 1.5-.7 1.5-1.5c0-.9-.7-1.5-1.5-1.5zm-7.6 7.4c-.8 0-1.5.7-1.5 1.5s.7 1.5 1.5 1.5 1.5-.7 1.5-1.5-.7-1.5-1.5-1.5zm0-14.8c-.8 0-1.5.7-1.5 1.5s.7 1.5 1.5 1.5 1.5-.7 1.5-1.5c0-.9-.7-1.5-1.5-1.5zm15.2 0c-.8 0-1.5.7-1.5 1.5s.7 1.5 1.5 1.5 1.5-.7 1.5-1.5c0-.9-.7-1.5-1.5-1.5zm-22.5 22.2h-.3c-.2 0-.4 0-.6.1-.3.1-.5.3-.7.5-.2.2-.3.5-.3.8 0 .2 0 .4.1.6.2.4.4.6.8.8.2.1.4.1.6.1h.3c.5-.1.9-.4 1.1-.9.1-.2.1-.4.1-.6 0-.3-.1-.6-.3-.8-.1-.3-.4-.5-.8-.6zm0-14.8h-.3c-.2 0-.4 0-.6.1-.5.2-.9.8-.9 1.4 0 .6.4 1.1.9 1.4.2.1.4.1.6.1h.3c.7-.1 1.2-.7 1.2-1.5s-.5-1.4-1.2-1.5zm-15.5-44.5c-.5 0-1 .3-1.3.7-.2.2-.3.5-.3.8 0 .2 0 .4.1.6.2.5.8.9 1.4.9.6 0 1.2-.4 1.4-.9.1-.2.1-.4.1-.6 0-.3-.1-.6-.3-.8-.1-.5-.6-.7-1.1-.7zm7.6-7.4c-.8 0-1.5.7-1.5 1.5s.7 1.5 1.5 1.5 1.5-.7 1.5-1.5c0-.9-.7-1.5-1.5-1.5zm-7.6 37c-.7 0-1.3.5-1.5 1.2v.3c0 .8.7 1.5 1.5 1.5s1.5-.7 1.5-1.5v-.3c-.2-.6-.8-1.2-1.5-1.2zm0-14.8c-.8 0-1.5.7-1.5 1.5s.7 1.5 1.5 1.5 1.5-.7 1.5-1.5-.7-1.5-1.5-1.5zm-7.6 7.4c-.8 0-1.5.7-1.5 1.5s.7 1.5 1.5 1.5 1.5-.7 1.5-1.5-.7-1.5-1.5-1.5zm15.2 0c-.8 0-1.5.7-1.5 1.5s.7 1.5 1.5 1.5 1.5-.7 1.5-1.5-.7-1.5-1.5-1.5zm-15.2-14.8c-.8 0-1.5.7-1.5 1.5s.7 1.5 1.5 1.5 1.5-.7 1.5-1.5-.7-1.5-1.5-1.5zm15.2 0c-.8 0-1.5.7-1.5 1.5s.7 1.5 1.5 1.5 1.5-.7 1.5-1.5-.7-1.5-1.5-1.5zm-22 22.5c-.2-.2-.5-.3-.8-.3-.7 0-1.3.5-1.5 1.2v.3c0 .8.7 1.5 1.5 1.5.3 0 .6-.1.8-.3.4-.3.7-.7.7-1.2v-.3c-.1-.4-.3-.7-.7-.9zm0-14.8c-.2-.2-.5-.3-.8-.3-.8 0-1.5.7-1.5 1.5s.7 1.5 1.5 1.5c.3 0 .6-.1.8-.3.4-.3.7-.7.7-1.2s-.3-1-.7-1.2zm14.4 29.4c-.8 0-1.5.7-1.5 1.5s.7 1.5 1.5 1.5 1.5-.7 1.5-1.5c0-.9-.7-1.5-1.5-1.5zm7.6 7.4c-.8 0-1.5.7-1.5 1.5s.7 1.5 1.5 1.5 1.5-.7 1.5-1.5-.7-1.5-1.5-1.5zm-15.2-14.8c-.8 0-1.5.7-1.5 1.5s.7 1.5 1.5 1.5 1.5-.7 1.5-1.5c0-.9-.7-1.5-1.5-1.5zm15.2 0c-.8 0-1.5.7-1.5 1.5s.7 1.5 1.5 1.5 1.5-.7 1.5-1.5c0-.9-.7-1.5-1.5-1.5zM445 536.6c-.8 0-1.5.7-1.5 1.5s.7 1.5 1.5 1.5 1.5-.7 1.5-1.5-.7-1.5-1.5-1.5z"/><path class="st1" d="M648 246.2c-.8 0-1.5.7-1.5 1.5s.7 1.5 1.5 1.5 1.5-.7 1.5-1.5c.1-.8-.6-1.5-1.5-1.5zm-6.7 7.7c-.2-.2-.5-.3-.8-.3-.7 0-1.3.5-1.5 1.2v.3c0 .8.7 1.5 1.5 1.5.3 0 .6-.1.8-.3.4-.3.7-.7.7-1.2v-.3c-.2-.4-.4-.7-.7-.9zm0-14.8c-.2-.2-.5-.3-.8-.3-.8 0-1.5.7-1.5 1.5s.7 1.5 1.5 1.5c.3 0 .6-.1.8-.3.4-.3.7-.7.7-1.2s-.3-1-.7-1.2zM625.2 224c-.5 0-1 .3-1.3.7-.2.2-.3.5-.3.8 0 .2 0 .4.1.6.2.5.8.9 1.4.9.6 0 1.2-.4 1.4-.9.1-.2.1-.4.1-.6 0-.3-.1-.6-.3-.8-.1-.4-.5-.7-1.1-.7zm-7.6-7.4c-.8 0-1.5.7-1.5 1.5s.7 1.5 1.5 1.5 1.5-.7 1.5-1.5c.1-.9-.6-1.5-1.5-1.5zm-7.3 7.4h-.3c-.2 0-.4 0-.6.1-.3.1-.5.3-.7.5-.2.2-.3.5-.3.8 0 .2 0 .4.1.6.2.4.4.6.8.8.2.1.4.1.6.1h.3c.5-.1.9-.4 1.1-.9.1-.2.1-.4.1-.6 0-.3-.1-.6-.3-.8 0-.3-.4-.5-.8-.6zm0-14.8h-.3c-.2 0-.4 0-.6.1-.5.2-.9.8-.9 1.4 0 .6.4 1.1.9 1.4.2.1.4.1.6.1h.3c.7-.1 1.2-.7 1.2-1.5.1-.8-.5-1.4-1.2-1.5zm14.9 44.4c-.7 0-1.3.5-1.5 1.2v.3c0 .8.7 1.5 1.5 1.5s1.5-.7 1.5-1.5v-.3c-.1-.6-.7-1.2-1.5-1.2zm0-14.8c-.8 0-1.5.7-1.5 1.5s.7 1.5 1.5 1.5 1.5-.7 1.5-1.5c.1-.8-.6-1.5-1.5-1.5zm-7.6 7.4c-.8 0-1.5.7-1.5 1.5s.7 1.5 1.5 1.5 1.5-.7 1.5-1.5c.1-.8-.6-1.5-1.5-1.5zm15.2 0c-.8 0-1.5.7-1.5 1.5s.7 1.5 1.5 1.5 1.5-.7 1.5-1.5c.1-.8-.6-1.5-1.5-1.5zm-15.2-14.8c-.8 0-1.5.7-1.5 1.5s.7 1.5 1.5 1.5 1.5-.7 1.5-1.5c.1-.8-.6-1.5-1.5-1.5zm15.2 0c-.8 0-1.5.7-1.5 1.5s.7 1.5 1.5 1.5 1.5-.7 1.5-1.5c.1-.8-.6-1.5-1.5-1.5zm-22.5 22.3h-.3c-.2 0-.4 0-.6.1-.5.2-.8.6-.9 1.1v.3c0 .6.4 1.1.9 1.4.2.1.4.1.6.1h.3c.7-.1 1.2-.7 1.2-1.5v-.3c-.1-.6-.6-1.1-1.2-1.2zm0-14.8h-.3c-.2 0-.4 0-.6.1-.5.2-.9.8-.9 1.4 0 .6.4 1.1.9 1.4.2.1.4.1.6.1h.3c.7-.1 1.2-.7 1.2-1.5.1-.8-.5-1.4-1.2-1.5zm14.9 29.6c-.8 0-1.5.7-1.5 1.5s.7 1.5 1.5 1.5 1.5-.7 1.5-1.5c.1-.9-.6-1.5-1.5-1.5zm-7.6 7.4c-.8 0-1.5.7-1.5 1.5s.7 1.5 1.5 1.5 1.5-.7 1.5-1.5c.1-.8-.6-1.5-1.5-1.5zm0-14.8c-.8 0-1.5.7-1.5 1.5s.7 1.5 1.5 1.5 1.5-.7 1.5-1.5c.1-.9-.6-1.5-1.5-1.5zm15.2 0c-.8 0-1.5.7-1.5 1.5s.7 1.5 1.5 1.5 1.5-.7 1.5-1.5c.1-.9-.6-1.5-1.5-1.5zm-22.5 22.2h-.3c-.2 0-.4 0-.6.1-.3.1-.5.3-.7.5-.2.2-.3.5-.3.8 0 .2 0 .4.1.6.2.4.4.6.8.8.2.1.4.1.6.1h.3c.5-.1.9-.4 1.1-.9.1-.2.1-.4.1-.6 0-.3-.1-.6-.3-.8 0-.3-.4-.5-.8-.6zm0-14.8h-.3c-.2 0-.4 0-.6.1-.5.2-.9.8-.9 1.4 0 .6.4 1.1.9 1.4.2.1.4.1.6.1h.3c.7-.1 1.2-.7 1.2-1.5.1-.8-.5-1.4-1.2-1.5zM594.8 224c-.5 0-1 .3-1.3.7-.2.2-.3.5-.3.8 0 .2 0 .4.1.6.2.5.8.9 1.4.9.6 0 1.2-.4 1.4-.9.1-.2.1-.4.1-.6 0-.3-.1-.6-.3-.8-.1-.4-.5-.7-1.1-.7zm7.6-7.4c-.8 0-1.5.7-1.5 1.5s.7 1.5 1.5 1.5 1.5-.7 1.5-1.5c.1-.9-.6-1.5-1.5-1.5zm-7.6 37c-.7 0-1.3.5-1.5 1.2v.3c0 .8.7 1.5 1.5 1.5s1.5-.7 1.5-1.5v-.3c-.1-.6-.7-1.2-1.5-1.2zm0-14.8c-.8 0-1.5.7-1.5 1.5s.7 1.5 1.5 1.5 1.5-.7 1.5-1.5c.1-.8-.6-1.5-1.5-1.5zm-7.6 7.4c-.8 0-1.5.7-1.5 1.5s.7 1.5 1.5 1.5 1.5-.7 1.5-1.5c.1-.8-.6-1.5-1.5-1.5zm15.2 0c-.8 0-1.5.7-1.5 1.5s.7 1.5 1.5 1.5 1.5-.7 1.5-1.5c.1-.8-.6-1.5-1.5-1.5zm-15.2-14.8c-.8 0-1.5.7-1.5 1.5s.7 1.5 1.5 1.5 1.5-.7 1.5-1.5c.1-.8-.6-1.5-1.5-1.5zm15.2 0c-.8 0-1.5.7-1.5 1.5s.7 1.5 1.5 1.5 1.5-.7 1.5-1.5c.1-.8-.6-1.5-1.5-1.5zm-21.9 22.5c-.2-.2-.5-.3-.8-.3-.7 0-1.3.5-1.5 1.2v.3c0 .8.7 1.5 1.5 1.5.3 0 .6-.1.8-.3.4-.3.7-.7.7-1.2v-.3c-.2-.4-.4-.7-.7-.9zm0-14.8c-.2-.2-.5-.3-.8-.3-.8 0-1.5.7-1.5 1.5s.7 1.5 1.5 1.5c.3 0 .6-.1.8-.3.4-.3.7-.7.7-1.2s-.3-1-.7-1.2zm14.3 29.4c-.8 0-1.5.7-1.5 1.5s.7 1.5 1.5 1.5 1.5-.7 1.5-1.5c.1-.9-.6-1.5-1.5-1.5zm7.6 7.4c-.8 0-1.5.7-1.5 1.5s.7 1.5 1.5 1.5 1.5-.7 1.5-1.5c.1-.8-.6-1.5-1.5-1.5zm-15.2-14.8c-.8 0-1.5.7-1.5 1.5s.7 1.5 1.5 1.5 1.5-.7 1.5-1.5c.1-.9-.6-1.5-1.5-1.5zm15.2 0c-.8 0-1.5.7-1.5 1.5s.7 1.5 1.5 1.5 1.5-.7 1.5-1.5c.1-.9-.6-1.5-1.5-1.5zM572 246.2c-.8 0-1.5.7-1.5 1.5s.7 1.5 1.5 1.5 1.5-.7 1.5-1.5c.1-.8-.6-1.5-1.5-1.5z"/><path class="st3" d="M376.1 213.6c-.6-.6-1.6-.6-2.2 0-.6.6-.6 1.5 0 2.1.6.6 1.6.6 2.1 0 .7-.6.7-1.6.1-2.1zm-10.4.7c-.1-.3-.2-.5-.4-.8-.5-.5-1.3-.6-1.9-.2-.1.1-.2.1-.2.2-.6.6-.6 1.5 0 2.1.2.2.5.4.8.4.5.1 1 0 1.4-.4.1-.1.1-.2.2-.2.1-.3.2-.7.1-1.1zm10.8-10.5c-.1-.3-.2-.5-.4-.8-.6-.6-1.6-.6-2.1 0-.6.6-.6 1.5 0 2.1.2.2.5.4.8.4.5.1 1 0 1.4-.4.2-.3.4-.8.3-1.3zm-.4-21.7c-.4-.4-.9-.5-1.4-.4-.3.1-.6.2-.8.4-.1.1-.3.3-.3.5-.2.5-.1 1.2.3 1.6.4.4 1.1.5 1.6.3.2-.1.4-.2.5-.3.2-.2.4-.5.4-.8.2-.4 0-.9-.3-1.3zm0-10.5c-.6-.6-1.6-.6-2.2 0-.6.6-.6 1.5 0 2.1.6.6 1.6.6 2.1 0 .7-.6.7-1.5.1-2.1zm-10.6.3c-.1-.1-.1-.2-.2-.2-.1-.1-.3-.3-.5-.3-.3-.1-.6-.1-.9-.1-.3.1-.6.2-.8.4-.1.1-.3.3-.3.5-.1.4-.1.8 0 1.1.1.2.2.3.3.5.1.1.2.1.2.2.4.3 1 .3 1.4.1.2-.1.4-.2.5-.3.2-.2.4-.5.4-.8.2-.4.1-.8-.1-1.1zm10.8-10.5c-.1-.1-.1-.2-.2-.2-.1-.1-.3-.3-.5-.3-.5-.2-1.2-.1-1.6.3-.4.4-.6 1.1-.3 1.6.1.2.2.3.3.5.1.1.2.1.2.2.6.4 1.4.3 1.9-.2.5-.6.6-1.4.2-1.9zm-21.7 41.7c-.5-.5-1.3-.6-1.9-.2-.1.1-.2.1-.2.2-.6.6-.6 1.5 0 2.1.6.6 1.6.6 2.1 0 .1-.1.1-.2.2-.2.4-.6.3-1.4-.2-1.9zm10.7-10.5c-.6-.6-1.6-.6-2.1 0-.6.6-.6 1.5 0 2.1.6.6 1.6.6 2.2 0 .5-.6.5-1.5-.1-2.1zm-10.7 0c-.6-.6-1.6-.6-2.2 0-.6.6-.6 1.5 0 2.1.6.6 1.6.6 2.1 0 .7-.6.7-1.5.1-2.1zm10.7 10.5c-.6-.6-1.6-.6-2.2 0-.6.6-.6 1.5 0 2.1.6.6 1.6.6 2.1 0 .7-.6.7-1.5.1-2.1zm0-21c-.6-.6-1.6-.6-2.2 0-.6.6-.6 1.5 0 2.1.6.6 1.6.6 2.1 0 .7-.6.7-1.5.1-2.1zm10.8 10.5c-.6-.6-1.6-.6-2.2 0-.6.6-.6 1.5 0 2.1.6.6 1.6.6 2.1 0 .7-.6.7-1.5.1-2.1zm-32.1.2c-.1-.1-.1-.2-.2-.2-.1-.1-.3-.3-.5-.3-.5-.2-1-.1-1.4.1-.1.1-.2.1-.2.2-.4.4-.6 1.1-.3 1.6.1.2.2.3.3.5.1.1.2.1.2.2.6.4 1.4.3 1.9-.2.1-.1.1-.2.2-.2.4-.5.4-1.2 0-1.7zm10.8-10.5c-.1-.1-.1-.2-.2-.2-.1-.1-.3-.3-.5-.3-.5-.2-1.2-.1-1.6.3-.4.4-.6 1.1-.3 1.6.1.2.2.3.3.5.1.1.2.1.2.2.6.4 1.4.3 1.9-.2s.6-1.3.2-1.9zm-11 31.3c-.6-.6-1.6-.6-2.1 0-.6.6-.6 1.5 0 2.1.6.6 1.6.6 2.2 0 .5-.6.5-1.6-.1-2.1zm-10.7 0c-.6-.6-1.6-.6-2.2 0-.6.6-.6 1.5 0 2.1.6.6 1.6.6 2.1 0 .7-.6.7-1.6.1-2.1zm10.7-10.5c-.6-.6-1.6-.6-2.2 0-.6.6-.6 1.5 0 2.1.6.6 1.6.6 2.1 0 .7-.6.7-1.5.1-2.1zm10.8 10.5c-.6-.6-1.6-.6-2.2 0-.6.6-.6 1.5 0 2.1.6.6 1.6.6 2.1 0 .7-.6.7-1.6.1-2.1zm-32.1.2c-.1-.1-.1-.2-.2-.2-.1-.1-.3-.3-.5-.3-.3-.1-.6-.1-.9-.1-.3.1-.6.2-.8.4-.1.1-.3.3-.3.5-.1.4-.1.8 0 1.1.1.2.2.3.3.5.1.1.2.1.2.2.4.3 1 .3 1.4.1.2-.1.4-.2.5-.3.2-.2.4-.5.4-.8.2-.4.1-.8-.1-1.1zm10.8-10.5c-.1-.1-.1-.2-.2-.2-.1-.1-.3-.3-.5-.3-.5-.2-1.2-.1-1.6.3-.4.4-.6 1.1-.3 1.6.1.2.2.3.3.5.1.1.2.1.2.2.6.4 1.4.3 1.9-.2s.6-1.3.2-1.9zm21.3-42.2c-.4-.4-.9-.5-1.4-.4-.3.1-.6.2-.8.4-.1.1-.3.3-.3.5-.2.5-.1 1.2.3 1.6.4.4 1.1.5 1.6.3.2-.1.4-.2.5-.3.2-.2.4-.5.4-.8.2-.4 0-.9-.3-1.3zm10.7 0c-.6-.6-1.6-.6-2.2 0-.6.6-.6 1.5 0 2.1.6.6 1.6.6 2.1 0 .7-.5.7-1.5.1-2.1zm-32.2 21c-.5-.5-1.3-.6-1.9-.2-.1.1-.2.1-.2.2-.6.6-.6 1.5 0 2.1.6.6 1.6.6 2.1 0 .1-.1.1-.2.2-.2.4-.6.3-1.4-.2-1.9zm10.7-10.5c-.6-.6-1.6-.6-2.1 0-.6.6-.6 1.5 0 2.1.6.6 1.6.6 2.2 0 .5-.6.5-1.5-.1-2.1zm-10.7 0c-.6-.6-1.6-.6-2.2 0-.6.6-.6 1.5 0 2.1.6.6 1.6.6 2.1 0 .7-.6.7-1.5.1-2.1zm10.7 10.5c-.6-.6-1.6-.6-2.2 0-.6.6-.6 1.5 0 2.1.6.6 1.6.6 2.1 0 .7-.6.7-1.5.1-2.1zm0-21c-.6-.6-1.6-.6-2.2 0-.6.6-.6 1.5 0 2.1.6.6 1.6.6 2.1 0 .7-.5.7-1.5.1-2.1zm10.8 10.5c-.6-.6-1.6-.6-2.2 0-.6.6-.6 1.5 0 2.1.6.6 1.6.6 2.1 0 .7-.6.7-1.5.1-2.1zm-31.9.8c-.1-.3-.2-.5-.4-.8-.5-.5-1.3-.6-1.9-.2-.1.1-.2.1-.2.2-.6.6-.6 1.5 0 2.1.2.2.5.4.8.4.5.1 1 0 1.4-.4.1-.1.1-.2.2-.2.1-.3.2-.7.1-1.1zm10.8-10.5c-.1-.3-.2-.5-.4-.8-.6-.6-1.6-.6-2.1 0-.6.6-.6 1.5 0 2.1.2.2.5.4.8.4.5.1 1 0 1.4-.4.2-.3.4-.8.3-1.3zm-11.2 30.7c-.6-.6-1.6-.6-2.1 0-.6.6-.6 1.5 0 2.1.6.6 1.6.6 2.2 0 .5-.6.5-1.5-.1-2.1zm0 10.5c-.6-.6-1.6-.6-2.2 0-.6.6-.6 1.5 0 2.1.6.6 1.6.6 2.1 0 .7-.6.7-1.5.1-2.1zm0-21c-.6-.6-1.6-.6-2.2 0-.6.6-.6 1.5 0 2.1.6.6 1.6.6 2.1 0 .7-.6.7-1.5.1-2.1zm10.8 10.5c-.6-.6-1.6-.6-2.2 0-.6.6-.6 1.5 0 2.1.6.6 1.6.6 2.1 0 .7-.6.7-1.5.1-2.1zm-10.8-31.5c-.6-.6-1.6-.6-2.2 0-.6.6-.6 1.5 0 2.1.6.6 1.6.6 2.1 0 .7-.5.7-1.5.1-2.1z"/><path class="st1" d="M130.2 453.2c-.8 0-1.5.7-1.5 1.5s.7 1.5 1.5 1.5 1.5-.7 1.5-1.5c.1-.8-.6-1.5-1.5-1.5zm-6.7 7.7c-.2-.2-.5-.3-.8-.3-.7 0-1.3.5-1.5 1.2v.3c0 .8.7 1.5 1.5 1.5.3 0 .6-.1.8-.3.4-.3.7-.7.7-1.2v-.3c-.2-.4-.4-.7-.7-.9zm0-14.8c-.2-.2-.5-.3-.8-.3-.8 0-1.5.7-1.5 1.5s.7 1.5 1.5 1.5c.3 0 .6-.1.8-.3.4-.3.7-.7.7-1.2s-.3-1-.7-1.2zM107.4 431c-.5 0-1 .3-1.3.7-.2.2-.3.5-.3.8 0 .2 0 .4.1.6.2.5.8.9 1.4.9.6 0 1.2-.4 1.4-.9.1-.2.1-.4.1-.6 0-.3-.1-.6-.3-.8-.1-.5-.5-.7-1.1-.7zm-7.6-7.4c-.8 0-1.5.7-1.5 1.5s.7 1.5 1.5 1.5 1.5-.7 1.5-1.5c.1-.9-.6-1.5-1.5-1.5zm-7.3 7.4h-.3c-.2 0-.4 0-.6.1-.3.1-.5.3-.7.5-.2.2-.3.5-.3.8 0 .2 0 .4.1.6.2.4.4.6.8.8.2.1.4.1.6.1h.3c.5-.1.9-.4 1.1-.9.1-.2.1-.4.1-.6 0-.3-.1-.6-.3-.8 0-.3-.4-.5-.8-.6zm0-14.8h-.3c-.2 0-.4 0-.6.1-.5.2-.9.8-.9 1.4 0 .6.4 1.1.9 1.4.2.1.4.1.6.1h.3c.7-.1 1.2-.7 1.2-1.5.1-.8-.5-1.4-1.2-1.5zm14.9 44.4c-.7 0-1.3.5-1.5 1.2v.3c0 .8.7 1.5 1.5 1.5s1.5-.7 1.5-1.5v-.3c-.1-.7-.7-1.2-1.5-1.2zm0-14.8c-.8 0-1.5.7-1.5 1.5s.7 1.5 1.5 1.5 1.5-.7 1.5-1.5c.1-.8-.6-1.5-1.5-1.5zm-7.6 7.4c-.8 0-1.5.7-1.5 1.5s.7 1.5 1.5 1.5 1.5-.7 1.5-1.5c.1-.8-.6-1.5-1.5-1.5zm15.2 0c-.8 0-1.5.7-1.5 1.5s.7 1.5 1.5 1.5 1.5-.7 1.5-1.5c.1-.8-.6-1.5-1.5-1.5zm-15.2-14.8c-.8 0-1.5.7-1.5 1.5s.7 1.5 1.5 1.5 1.5-.7 1.5-1.5c.1-.8-.6-1.5-1.5-1.5zm15.2 0c-.8 0-1.5.7-1.5 1.5s.7 1.5 1.5 1.5 1.5-.7 1.5-1.5c.1-.8-.6-1.5-1.5-1.5zm-22.5 22.3h-.3c-.2 0-.4 0-.6.1-.5.2-.8.6-.9 1.1v.3c0 .6.4 1.1.9 1.4.2.1.4.1.6.1h.3c.7-.1 1.2-.7 1.2-1.5v-.3c-.1-.7-.6-1.1-1.2-1.2zm0-14.9h-.3c-.2 0-.4 0-.6.1-.5.2-.9.8-.9 1.4 0 .6.4 1.1.9 1.4.2.1.4.1.6.1h.3c.7-.1 1.2-.7 1.2-1.5.1-.7-.5-1.3-1.2-1.5zm14.9 29.7c-.8 0-1.5.7-1.5 1.5s.7 1.5 1.5 1.5 1.5-.7 1.5-1.5c.1-.9-.6-1.5-1.5-1.5zm-7.6 7.4c-.8 0-1.5.7-1.5 1.5s.7 1.5 1.5 1.5 1.5-.7 1.5-1.5c.1-.9-.6-1.5-1.5-1.5zm0-14.9c-.8 0-1.5.7-1.5 1.5s.7 1.5 1.5 1.5 1.5-.7 1.5-1.5c.1-.8-.6-1.5-1.5-1.5zm15.2 0c-.8 0-1.5.7-1.5 1.5s.7 1.5 1.5 1.5 1.5-.7 1.5-1.5c.1-.8-.6-1.5-1.5-1.5zm-22.5 22.3h-.3c-.2 0-.4 0-.6.1-.3.1-.5.3-.7.5-.2.2-.3.5-.3.8 0 .2 0 .4.1.6.2.4.4.6.8.8.2.1.4.1.6.1h.3c.5-.1.9-.4 1.1-.9.1-.2.1-.4.1-.6 0-.3-.1-.6-.3-.8 0-.3-.4-.5-.8-.6zm0-14.8h-.3c-.2 0-.4 0-.6.1-.5.2-.9.8-.9 1.4 0 .6.4 1.1.9 1.4.2.1.4.1.6.1h.3c.7-.1 1.2-.7 1.2-1.5.1-.8-.5-1.4-1.2-1.5zM77 431c-.5 0-1 .3-1.3.7-.2.2-.3.5-.3.8 0 .2 0 .4.1.6.2.5.8.9 1.4.9.6 0 1.2-.4 1.4-.9.1-.2.1-.4.1-.6 0-.3-.1-.6-.3-.8-.1-.5-.5-.7-1.1-.7zm7.6-7.4c-.8 0-1.5.7-1.5 1.5s.7 1.5 1.5 1.5 1.5-.7 1.5-1.5c.1-.9-.6-1.5-1.5-1.5zm-7.6 37c-.7 0-1.3.5-1.5 1.2v.3c0 .8.7 1.5 1.5 1.5s1.5-.7 1.5-1.5v-.3c-.1-.7-.7-1.2-1.5-1.2zm0-14.8c-.8 0-1.5.7-1.5 1.5s.7 1.5 1.5 1.5 1.5-.7 1.5-1.5c.1-.8-.6-1.5-1.5-1.5zm-7.6 7.4c-.8 0-1.5.7-1.5 1.5s.7 1.5 1.5 1.5 1.5-.7 1.5-1.5c.1-.8-.6-1.5-1.5-1.5zm15.2 0c-.8 0-1.5.7-1.5 1.5s.7 1.5 1.5 1.5 1.5-.7 1.5-1.5c.1-.8-.6-1.5-1.5-1.5zm-15.2-14.8c-.8 0-1.5.7-1.5 1.5s.7 1.5 1.5 1.5 1.5-.7 1.5-1.5c.1-.8-.6-1.5-1.5-1.5zm15.2 0c-.8 0-1.5.7-1.5 1.5s.7 1.5 1.5 1.5 1.5-.7 1.5-1.5c.1-.8-.6-1.5-1.5-1.5zm-21.9 22.5c-.2-.2-.5-.3-.8-.3-.7 0-1.3.5-1.5 1.2v.3c0 .8.7 1.5 1.5 1.5.3 0 .6-.1.8-.3.4-.3.7-.7.7-1.2v-.3c-.2-.4-.4-.7-.7-.9zm0-14.8c-.2-.2-.5-.3-.8-.3-.8 0-1.5.7-1.5 1.5s.7 1.5 1.5 1.5c.3 0 .6-.1.8-.3.4-.3.7-.7.7-1.2s-.3-1-.7-1.2zM77 475.5c-.8 0-1.5.7-1.5 1.5s.7 1.5 1.5 1.5 1.5-.7 1.5-1.5c.1-.9-.6-1.5-1.5-1.5zm7.6 7.4c-.8 0-1.5.7-1.5 1.5s.7 1.5 1.5 1.5 1.5-.7 1.5-1.5c.1-.9-.6-1.5-1.5-1.5zM69.4 468c-.8 0-1.5.7-1.5 1.5s.7 1.5 1.5 1.5 1.5-.7 1.5-1.5c.1-.8-.6-1.5-1.5-1.5zm15.2 0c-.8 0-1.5.7-1.5 1.5s.7 1.5 1.5 1.5 1.5-.7 1.5-1.5c.1-.8-.6-1.5-1.5-1.5zm-30.4-14.8c-.8 0-1.5.7-1.5 1.5s.7 1.5 1.5 1.5 1.5-.7 1.5-1.5c.1-.8-.6-1.5-1.5-1.5z"/><path class="st2" d="M250.3 101.7c-.8 0-1.5.7-1.5 1.5s.7 1.5 1.5 1.5 1.5-.7 1.5-1.5c.1-.8-.6-1.5-1.5-1.5zm-6.7 7.7c-.2-.2-.5-.3-.8-.3-.7 0-1.3.5-1.5 1.2v.3c0 .8.7 1.5 1.5 1.5.3 0 .6-.1.8-.3.4-.3.7-.7.7-1.2v-.3c-.2-.4-.4-.7-.7-.9zm0-14.9c-.2-.2-.5-.3-.8-.3-.8 0-1.5.7-1.5 1.5s.7 1.5 1.5 1.5c.3 0 .6-.1.8-.3.4-.3.7-.7.7-1.2 0-.4-.3-.9-.7-1.2zm-16.1-15c-.5 0-1 .3-1.3.7-.2.2-.3.5-.3.8 0 .2 0 .4.1.6.2.5.8.9 1.4.9.6 0 1.2-.4 1.4-.9.1-.2.1-.4.1-.6 0-.3-.1-.6-.3-.8-.1-.5-.5-.7-1.1-.7zm-7.6-7.5c-.8 0-1.5.7-1.5 1.5s.7 1.5 1.5 1.5 1.5-.7 1.5-1.5c.1-.8-.6-1.5-1.5-1.5zm-7.3 7.5h-.3c-.2 0-.4 0-.6.1-.3.1-.5.3-.7.5-.2.2-.3.5-.3.8 0 .2 0 .4.1.6.2.4.4.6.8.8.2.1.4.1.6.1h.3c.5-.1.9-.4 1.1-.9.1-.2.1-.4.1-.6 0-.3-.1-.6-.3-.8 0-.3-.4-.5-.8-.6zm0-14.8h-.3c-.2 0-.4 0-.6.1-.5.2-.9.8-.9 1.4s.4 1.1.9 1.4c.2.1.4.1.6.1h.3c.7-.1 1.2-.7 1.2-1.5s-.5-1.4-1.2-1.5zm14.9 44.4c-.7 0-1.3.5-1.5 1.2v.3c0 .8.7 1.5 1.5 1.5s1.5-.7 1.5-1.5v-.3c-.1-.7-.7-1.2-1.5-1.2zm0-14.8c-.8 0-1.5.7-1.5 1.5s.7 1.5 1.5 1.5 1.5-.7 1.5-1.5c.1-.9-.6-1.5-1.5-1.5zm-7.6 7.4c-.8 0-1.5.7-1.5 1.5s.7 1.5 1.5 1.5 1.5-.7 1.5-1.5c.1-.8-.6-1.5-1.5-1.5zm15.2 0c-.8 0-1.5.7-1.5 1.5s.7 1.5 1.5 1.5 1.5-.7 1.5-1.5c.1-.8-.6-1.5-1.5-1.5zm-15.2-14.8c-.8 0-1.5.7-1.5 1.5s.7 1.5 1.5 1.5 1.5-.7 1.5-1.5c.1-.9-.6-1.5-1.5-1.5zm15.2 0c-.8 0-1.5.7-1.5 1.5s.7 1.5 1.5 1.5 1.5-.7 1.5-1.5c.1-.9-.6-1.5-1.5-1.5zm-22.5 22.2h-.3c-.2 0-.4 0-.6.1-.5.2-.8.6-.9 1.1v.3c0 .6.4 1.1.9 1.4.2.1.4.1.6.1h.3c.7-.1 1.2-.7 1.2-1.5v-.3c-.1-.6-.6-1-1.2-1.2zm0-14.8h-.3c-.2 0-.4 0-.6.1-.5.2-.9.8-.9 1.4 0 .6.4 1.1.9 1.4.2.1.4.1.6.1h.3c.7-.1 1.2-.7 1.2-1.5s-.5-1.3-1.2-1.5zm14.9 29.6c-.8 0-1.5.7-1.5 1.5s.7 1.5 1.5 1.5 1.5-.7 1.5-1.5c.1-.8-.6-1.5-1.5-1.5zm-7.6 7.5c-.8 0-1.5.7-1.5 1.5s.7 1.5 1.5 1.5 1.5-.7 1.5-1.5c.1-.9-.6-1.5-1.5-1.5zm0-14.9c-.8 0-1.5.7-1.5 1.5s.7 1.5 1.5 1.5 1.5-.7 1.5-1.5c.1-.8-.6-1.5-1.5-1.5zm15.2 0c-.8 0-1.5.7-1.5 1.5s.7 1.5 1.5 1.5 1.5-.7 1.5-1.5c.1-.8-.6-1.5-1.5-1.5zm-22.5 22.3h-.3c-.2 0-.4 0-.6.1-.3.1-.5.3-.7.5-.2.2-.3.5-.3.8 0 .2 0 .4.1.6.2.4.4.6.8.8.2.1.4.1.6.1h.3c.5-.1.9-.4 1.1-.9.1-.2.1-.4.1-.6 0-.3-.1-.6-.3-.8 0-.3-.4-.5-.8-.6zm0-14.8h-.3c-.2 0-.4 0-.6.1-.5.2-.9.8-.9 1.4 0 .6.4 1.1.9 1.4.2.1.4.1.6.1h.3c.7-.1 1.2-.7 1.2-1.5s-.5-1.4-1.2-1.5zm-15.5-44.5c-.5 0-1 .3-1.3.7-.2.2-.3.5-.3.8 0 .2 0 .4.1.6.2.5.8.9 1.4.9.6 0 1.2-.4 1.4-.9.1-.2.1-.4.1-.6 0-.3-.1-.6-.3-.8-.1-.5-.5-.7-1.1-.7zm7.6-7.5c-.8 0-1.5.7-1.5 1.5s.7 1.5 1.5 1.5 1.5-.7 1.5-1.5-.6-1.5-1.5-1.5zm-7.6 37.1c-.7 0-1.3.5-1.5 1.2v.3c0 .8.7 1.5 1.5 1.5s1.5-.7 1.5-1.5v-.3c-.1-.7-.7-1.2-1.5-1.2zm0-14.8c-.8 0-1.5.7-1.5 1.5s.7 1.5 1.5 1.5 1.5-.7 1.5-1.5c0-.9-.6-1.5-1.5-1.5zm-7.6 7.4c-.8 0-1.5.7-1.5 1.5s.7 1.5 1.5 1.5 1.5-.7 1.5-1.5-.6-1.5-1.5-1.5zm15.2 0c-.8 0-1.5.7-1.5 1.5s.7 1.5 1.5 1.5 1.5-.7 1.5-1.5-.6-1.5-1.5-1.5zm-15.2-14.8c-.8 0-1.5.7-1.5 1.5s.7 1.5 1.5 1.5 1.5-.7 1.5-1.5c0-.9-.6-1.5-1.5-1.5zm15.2 0c-.8 0-1.5.7-1.5 1.5s.7 1.5 1.5 1.5 1.5-.7 1.5-1.5c0-.9-.6-1.5-1.5-1.5zm-21.9 22.5c-.2-.2-.5-.3-.8-.3-.7 0-1.3.5-1.5 1.2v.3c0 .8.7 1.5 1.5 1.5.3 0 .6-.1.8-.3.4-.3.7-.7.7-1.2v-.3c-.2-.4-.4-.7-.7-.9zm0-14.9c-.2-.2-.5-.3-.8-.3-.8 0-1.5.7-1.5 1.5s.7 1.5 1.5 1.5c.3 0 .6-.1.8-.3.4-.3.7-.7.7-1.2-.1-.4-.3-.9-.7-1.2zm14.3 29.4c-.8 0-1.5.7-1.5 1.5s.7 1.5 1.5 1.5 1.5-.7 1.5-1.5-.6-1.5-1.5-1.5zm7.6 7.5c-.8 0-1.5.7-1.5 1.5s.7 1.5 1.5 1.5 1.5-.7 1.5-1.5c0-.9-.6-1.5-1.5-1.5zm-15.2-14.9c-.8 0-1.5.7-1.5 1.5s.7 1.5 1.5 1.5 1.5-.7 1.5-1.5-.6-1.5-1.5-1.5zm15.2 0c-.8 0-1.5.7-1.5 1.5s.7 1.5 1.5 1.5 1.5-.7 1.5-1.5-.6-1.5-1.5-1.5zm-30.4-14.8c-.8 0-1.5.7-1.5 1.5s.7 1.5 1.5 1.5 1.5-.7 1.5-1.5-.6-1.5-1.5-1.5z"/><path class="st1" d="M312.4 256.4l.1-.1.2-.1h-2.8l-10.3 9.4h2.8zm6 6.2l.1-.1 6.9-6.3h-2.8l-5.4 4.9-.1.1-.2.2-4.6 4.2h2.8zm-18.5-6.4h-2.8l-10.3 9.4h2.8zm198.9 167.2l-.1.2-.1.1V421l9.6-10.1v2.7zm6.4 5.9l-.2.1-6.4 6.7v-2.7l5-5.3.2-.1.1-.1 4.3-4.5v2.7zm-6.6-18.1v-2.7l9.6-10v2.7z"/><path class="st0" d="M804.7 254.5h-16.1v-15.8h16.1v15.8zm-13-3.1h9.9v-9.6h-9.9v9.6z"/><path class="st1" d="M1128.1 502.2l36.6-35.7.6 7.4-36.6 35.7zm-18.6 0l36.6-35.7.6 7.4-36.6 35.7zM811 84.5l36.6-35.7.6 7.4-36.6 35.7z"/><path class="st4" d="M1015 158.5l36.6-35.7.6 7.4-36.6 35.7zm181 225.9l36.6-35.7.6 7.4-36.6 35.7zM996.4 158.5l36.6-35.7.6 7.4-36.6 35.7z"/><path class="st0" d="M735.7 241l36.6-35.6.6 7.4-36.5 35.6z"/><path class="st2" d="M717.1 603.9l36.6-35.7.6 7.4-36.5 35.7zm-18.5 0l36.5-35.7.6 7.4-36.5 35.7z"/><path class="st1" d="M1212.4 74.9l-21.3-.7-1.9 1.8 23.3.8h.2l12.5.4-2-2-10.7-.3zm.7-17h-.2l-4.9-.2-1.9 1.8 6.8.2h.3l15.3.5 1.8-1.8zm36.1 88.2l5.2.2 1.9-1.8-9.1-.3zM1212 91.9h-.2l-18.8-.6 2 1.9 16.9.6h.2l31.1 1-2-2zm-.6 17h-.3l.1.2.2.2 1.6 1.6 48.3 1.5-2-1.9zm51.6 18.7l-33.9-1 2 1.9 31.9 1h.3l8 .3 1.9-1.9-10-.3zm-51.3-27.2h-.2l-9.5-.3 2 2 7.4.2h.4l40.4 1.3-1.9-1.9zm51.8 18.7h-.2l-43.2-1.4 2 2 41.3 1.3h.2l6.7.2-2-1.9zm-.8 17l-24.5-.7 1.9 1.9 22.6.7h.2l1.8-1.8-1.8-.1zm-49.9-69.7h-.2l-13.1-.4-1.8 1.8 15.1.4h.1l7.1.3 1.9-1.8zm12.1-25.2l-1.8 1.8 22.3.7 1.9-1.8zm-8.5 8.2l-1.8 1.8 22.3.8 1.9-1.8zm-4.1 34h-.2l-28.1-.9 1.9 1.9 26.1.9h.4l21.8.7-2-2zm50.3-58.1l-20.8-.6-1.8 1.8 22.3.7 1.1-1.1zm-9-8.8l-3.3-.1-1.9 1.8 7.1.3zm-20.2 16.4l-1.9 1.8 22.4.7 1.8-1.8z"/><path class="st0" d="M686 69.4l-15.5 14.2v2.5l17-15.5.1-.1 9.1-8.4h-2.8l-7.7 7.1zm-11.8-12.6l-.1.1-3.6 3.3v2.6l4.9-4.5.1-.1.2-.2 11.1-10.1v-2.6zm89.5 37.5l3.8-3.5v-2.5l-6.6 6zm-65.6-12.6l-.1.1-13.7 12.5h2.8L699.4 83l.2-.1 22.7-20.8h-2.8zm12 12.4l-.2.1-.1.1h2.8l35.2-32.2H745zm50-22.4l-24.8 22.6h2.8l23.3-21.2.1-.2.2-.1 5.8-5.3v-2.6l-7.3 6.7zm-56 16.2l-.1.1-7 6.3h2.8l5.5-4.9.1-.2.1-.1 29.5-27h-2.7zm50.2-22.5l-.2.1-31.5 28.8h2.8l30.2-27.6.1-.1 4.9-4.5h-2.8zm11.8 12.5l-18 16.4h2.8l16.5-15 .1-.1v-2.6l-1.3 1.2zM680.2 63l-.1.1-9.6 8.8v2.6l11-10.1.1-.1 5.2-4.8V57zm-9.7-26.1v2.5l16.3-14.9V22zm0 11.6v2.6l16.3-14.9v-2.6zm21.6 26.9l-.1.2-20.5 18.7h2.8l19-17.4.2-.1.1-.1 15.9-14.6h-2.8zM685.6-.3l-15.1 13.8v2.6l16.3-14.9V-.3zm-12.7 0l-2.4 2.2v2.5l5.2-4.7zm-2.4 25.5v2.6l16.3-15v-2.5z"/><path class="st4" d="M834.2 590.7l-15.6-14.3v-2.5l17 15.5.2.1 9.1 8.4h-2.8l-7.8-7.1zm-11.8 12.5l-.1-.1-3.7-3.3v-2.6l5 4.5.1.1.1.2 11.2 10.1v2.6zm89.4-37.5l3.9 3.5v2.5l-6.7-6zm-65.5 12.6l-.2-.1-13.7-12.5h2.8l12.4 11.3.1.1 22.7 20.8h-2.8zm11.9-12.4l-.1-.1-.1-.1h2.8l35.2 32.2h-2.8zm50.1 22.4l-24.8-22.6h2.8l23.3 21.2.1.2.1.1 5.9 5.3v2.6l-7.3-6.7zm-56.1-16.2l-.1-.1-6.9-6.3h2.8l5.4 4.9.1.2.2.1 29.5 27h-2.8zm50.2 22.5l-.1-.1-31.6-28.8h2.8l30.2 27.6.2.1 4.8 4.5h-2.8zm11.8-12.5l-17.9-16.4h2.8l16.4 15 .2.2v2.5l-1.3-1.2zM828.4 597l-.2-.1-9.6-8.8v-2.5l11.1 10 .1.2 5.2 4.7v2.5zm-9.8 26.1v-2.5l16.4 14.9v2.5zm0-11.6v-2.6l16.4 14.9v2.6zm21.7-26.9l-.1-.2-20.6-18.7h2.8l19.1 17.4.1.1.1.1 16 14.6h-2.8zm-6.5 75.7l-15.2-13.8v-2.6l16.4 14.9v1.5zm-12.8 0l-2.4-2.1v-2.6l5.2 4.7zm-2.4-25.5v-2.5l16.4 14.9v2.5zm399.9-78.5l-15.5 14.2v2.5l17-15.5.1-.1 9.1-8.3h-2.8l-7.7 7.1zm-11.8-12.6l-.1.1-3.6 3.3v2.6l4.9-4.5.1-.1.2-.1 11.1-10.2v-2.6zm89.5 37.5l3.8-3.5v-2.5l-6.6 6zm-65.6-12.6l-.1.1-13.7 12.5h2.7l12.4-11.3.1-.1 22.8-20.7h-2.8zm11.9 12.4l-.1.1-.1.1h2.8l35.2-32.1h-2.8zm50.1-22.4l-24.8 22.6h2.8l23.3-21.2.1-.1.2-.2 5.8-5.3v-2.6l-7.3 6.7zm-56 16.2l-.2.1-6.9 6.3h2.8l5.4-4.9.2-.1.1-.2 29.5-26.9h-2.8zm50.1-22.5l-.1.1-31.5 28.8h2.8l30.2-27.6.1-.1 4.9-4.4h-2.8zm11.9 12.5l-18 16.4h2.8l16.5-15 .1-.1v-2.6l-1.3 1.2zm-85.9-14.9l-.1.2-9.6 8.7v2.6l11-10.1.1-.1 5.2-4.7v-2.6zm-9.7-26.1v2.6l16.3-15v-2.5zm0 11.7v2.5l16.3-14.9v-2.5zm21.6 26.9l-.1.1-20.5 18.7h2.8l19-17.3.1-.2.2-.1 15.9-14.5h-2.8zm-6.5-75.8l-15.1 13.8v2.6l16.3-14.9v-1.5zm-12.7 0l-2.4 2.2v2.5l5.1-4.7zm-2.4 25.5v2.6l16.3-14.9v-2.6zM885.4 131.2l-.1-.1-1.1-1.1v2.7l14.8 15.4h2.6zm95.8.1l-3.5-3.7H975l6.2 6.4zm-75.3-3.7h-2.7l19.7 20.5h2.6zm40.7 17.5l-.1-.2-16.7-17.3h-2.6l18 18.7.1.2 1.5 1.6h2.7zm12.8-11.6l-.1-.1-.1-.1-5.5-5.7h-2.6l6.8 7.1.2.1 12.7 13.3h2.6zm-41.6-5.9h-2.6l19.7 20.5h2.6zm35.2 11.6l-.2-.1-11-11.5h-2.7l12.5 12.9.1.1 7.1 7.5h2.6zm11.4-10.2l16.8 17.5v-2.7l-15.4-16.1-.1-.1h-2.6l1.2 1.3zm-70.5-1.4h-2.6l19.6 20.5h2.7zM697.3 243.4l.1-.1 1.1-1h-2.7L680 256.7v2.5zm-.1 93.5l3.8-3.5v-2.5l-6.6 6zm3.8-73.5v-2.6L680 280v2.6zm-17.9 39.7l.1-.1 17.8-16.3v-2.5l-19.2 17.6-.2.1-1.6 1.5v2.5zm11.8 12.6l.1-.1.2-.2 5.8-5.3v-2.6l-7.3 6.7-.1.1-13.6 12.4v2.6zm6.1-40.6v-2.6l-21 19.2v2.6zm-11.9 34.2l.1-.1 11.8-10.8v-2.5L687.7 308l-.1.1-7.6 7v2.5zm10.5 11.2l-18 16.4h2.8l16.5-15 .1-.1v-2.6l-1.3 1.2zm1.4-68.8v-2.5l-21 19.2v2.5z"/><path class="st2" d="M947.7 448.5c-5.6 0-10.2-4.5-10.2-10s4.6-10 10.2-10 10.2 4.5 10.2 10-4.5 10-10.2 10zm0-16.9c-3.9 0-7.1 3.1-7.1 6.9 0 3.8 3.2 6.9 7.1 6.9 3.9 0 7.1-3.1 7.1-6.9 0-3.8-3.2-6.9-7.1-6.9z"/><path class="st0" d="M1035.6 530.5c-5.6 0-10.2-4.5-10.2-10s4.6-10 10.2-10 10.2 4.5 10.2 10-4.6 10-10.2 10zm0-16.8c-3.9 0-7.1 3.1-7.1 6.9 0 3.8 3.2 6.9 7.1 6.9 3.9 0 7.1-3.1 7.1-6.9-.1-3.8-3.2-6.9-7.1-6.9zM719 388.4c-5.6 0-10.2-4.5-10.2-10s4.6-10 10.2-10 10.2 4.5 10.2 10-4.6 10-10.2 10zm0-16.8c-3.9 0-7.1 3.1-7.1 6.9 0 3.8 3.2 6.9 7.1 6.9s7.1-3.1 7.1-6.9c0-3.9-3.2-6.9-7.1-6.9z"/><ellipse class="st4" cx="900.5" cy="418.6" rx="8.6" ry="8.4"/><path class="st4" d="M780.9 508.9c0-3.9 3.2-7.1 7.3-7.1 4 0 7.3 3.2 7.3 7.1 0 3.9-3.2 7.1-7.3 7.1s-7.3-3.2-7.3-7.1z"/><ellipse class="st1" cx="1054.9" cy="170.9" rx="8.6" ry="8.4"/><path class="st1" d="M716 219c0-2.3 1.9-4.2 4.3-4.2s4.3 1.9 4.3 4.2c0 2.3-1.9 4.2-4.3 4.2-2.3 0-4.3-1.9-4.3-4.2z"/><ellipse class="st0" cx="1163.7" cy="438.5" rx="8.6" ry="8.4"/><path class="st1" d="M1022 403.5c-1.6-3.9-4.8-7-8.8-8.6 4-1.6 7.2-4.7 8.8-8.6 1.6 3.9 4.8 7 8.8 8.6-4 1.6-7.2 4.7-8.8 8.6z"/><path class="st4" d="M744 146c-1.6-3.9-4.8-7-8.8-8.6 4-1.6 7.2-4.7 8.8-8.6 1.6 3.9 4.8 7 8.8 8.6-4 1.6-7.2 4.7-8.8 8.6z"/><path class="st0" d="M887.6 464.6c-1-2.5-3.1-4.5-5.7-5.6 2.6-1 4.7-3 5.7-5.6 1 2.5 3.1 4.5 5.7 5.6-2.7 1.1-4.7 3.1-5.7 5.6z"/><path class="st2" d="M724.7 511.5c-1-2.5-3.1-4.5-5.7-5.6 2.6-1 4.7-3 5.7-5.6 1 2.5 3.1 4.5 5.7 5.6-2.6 1.1-4.7 3.1-5.7 5.6z"/><path class="st1" d="M1148.4 335.1c-1-2.5-3.1-4.5-5.7-5.6 2.6-1 4.7-3 5.7-5.6 1 2.5 3.1 4.5 5.7 5.6-2.6 1-4.6 3-5.7 5.6z"/><path class="st4" d="M848.1 262.1c-1.3-3.1-3.8-5.6-7-6.9 3.2-1.2 5.8-3.7 7-6.9 1.3 3.1 3.8 5.6 7 6.9-3.2 1.2-5.7 3.7-7 6.9z"/><path class="st5" d="M1142.7 539.1c-1.3-3.1-3.8-5.6-7-6.9 3.2-1.2 5.8-3.7 7-6.9 1.3 3.1 3.8 5.6 7 6.9-3.2 1.3-5.7 3.8-7 6.9zm-65.9-428.4c-1.3-3.1-3.8-5.6-7-6.9 3.2-1.2 5.8-3.7 7-6.9 1.3 3.1 3.8 5.6 7 6.9-3.1 1.3-5.7 3.8-7 6.9z"/><path class="st0" d="M871.8 528.5h-16.1v-15.8h16.1v15.8zm-13-3.2h9.9v-9.6h-9.9v9.6zm294.6-379.9h-16.1v-15.8h16.1v15.8zm-13-3.2h9.9v-9.6h-9.9v9.6z"/><path class="st1" d="M1087.7 460.9h-12.4v-12.2h12.4v12.2zm-9.3-3.2h6.2v-6h-6.2v6z"/><ellipse class="st4" cx="1139.8" cy="368.3" rx="4.3" ry="4.2"/><path class="st5" d="M936.2 263.8c-1.6-3.9-4.8-7-8.8-8.6 4-1.6 7.2-4.7 8.8-8.6 1.6 3.9 4.8 7 8.8 8.6-4 1.6-7.2 4.7-8.8 8.6z"/><path class="st4" d="M751.1 336.4c-1.3-3.1-3.8-5.6-7-6.9 3.2-1.2 5.8-3.7 7-6.9 1.3 3.1 3.8 5.6 7 6.9-3.2 1.3-5.8 3.7-7 6.9z"/><path class="st7" d="M779 162.7c.8 0 1.5-.7 1.5-1.5s-.7-1.5-1.5-1.5-1.5.7-1.5 1.5c0 .9.7 1.5 1.5 1.5z"/><path class="st0" d="M785.7 155c.2.2.5.3.8.3.7 0 1.3-.5 1.5-1.2v-.3c0-.8-.7-1.5-1.5-1.5-.3 0-.6.1-.8.3-.4.3-.7.7-.7 1.2v.3c.2.4.4.7.7.9zm0 14.9c.2.2.5.3.8.3.8 0 1.5-.7 1.5-1.5s-.7-1.5-1.5-1.5c-.3 0-.6.1-.8.3-.4.3-.7.7-.7 1.2.1.5.3.9.7 1.2zm16.1 15.1c.5 0 1-.3 1.3-.7.2-.2.3-.5.3-.8 0-.2 0-.4-.1-.6-.2-.5-.8-.9-1.4-.9-.6 0-1.2.4-1.4.9-.1.2-.1.4-.1.6 0 .3.1.6.3.8.1.4.6.7 1.1.7zm7.6 7.4c.8 0 1.5-.7 1.5-1.5s-.7-1.5-1.5-1.5-1.5.7-1.5 1.5.7 1.5 1.5 1.5zm7.3-7.5h.3c.2 0 .4 0 .6-.1.3-.1.5-.3.7-.5.2-.2.3-.5.3-.8 0-.2 0-.4-.1-.6-.2-.4-.4-.6-.8-.8-.2-.1-.4-.1-.6-.1h-.3c-.5.1-.9.4-1.1.9-.1.2-.1.4-.1.6 0 .3.1.6.3.8.1.3.4.5.8.6zm0 14.9h.3c.2 0 .4 0 .6-.1.5-.2.9-.8.9-1.4 0-.6-.4-1.1-.9-1.4-.2-.1-.4-.1-.6-.1h-.3c-.7.1-1.2.7-1.2 1.5 0 .7.5 1.3 1.2 1.5zm-14.9-44.5c.7 0 1.3-.5 1.5-1.2v-.3c0-.8-.7-1.5-1.5-1.5s-1.5.7-1.5 1.5v.3c.2.7.8 1.2 1.5 1.2zm0 14.8c.8 0 1.5-.7 1.5-1.5s-.7-1.5-1.5-1.5-1.5.7-1.5 1.5c0 .9.7 1.5 1.5 1.5zm7.6-7.4c.8 0 1.5-.7 1.5-1.5s-.7-1.5-1.5-1.5-1.5.7-1.5 1.5c0 .9.7 1.5 1.5 1.5zm-15.2 0c.8 0 1.5-.7 1.5-1.5s-.7-1.5-1.5-1.5-1.5.7-1.5 1.5c0 .9.7 1.5 1.5 1.5zm15.2 14.8c.8 0 1.5-.7 1.5-1.5s-.7-1.5-1.5-1.5-1.5.7-1.5 1.5c0 .9.7 1.5 1.5 1.5zm-15.2 0c.8 0 1.5-.7 1.5-1.5s-.7-1.5-1.5-1.5-1.5.7-1.5 1.5c0 .9.7 1.5 1.5 1.5zm22.5-22.2h.3c.2 0 .4 0 .6-.1.5-.2.8-.6.9-1.1v-.3c0-.6-.4-1.1-.9-1.4-.2-.1-.4-.1-.6-.1h-.3c-.7.1-1.2.7-1.2 1.5v.3c.1.6.6 1.1 1.2 1.2zm0 14.8h.3c.2 0 .4 0 .6-.1.5-.2.9-.8.9-1.4 0-.6-.4-1.1-.9-1.4-.2-.1-.4-.1-.6-.1h-.3c-.7.1-1.2.7-1.2 1.5s.5 1.4 1.2 1.5zm-14.9-29.6c.8 0 1.5-.7 1.5-1.5s-.7-1.5-1.5-1.5-1.5.7-1.5 1.5.7 1.5 1.5 1.5zm7.6-7.4c.8 0 1.5-.7 1.5-1.5s-.7-1.5-1.5-1.5-1.5.7-1.5 1.5.7 1.5 1.5 1.5zm0 14.8c.8 0 1.5-.7 1.5-1.5s-.7-1.5-1.5-1.5-1.5.7-1.5 1.5.7 1.5 1.5 1.5zm-15.2 0c.8 0 1.5-.7 1.5-1.5s-.7-1.5-1.5-1.5-1.5.7-1.5 1.5.7 1.5 1.5 1.5zm22.5-22.3h.3c.2 0 .4 0 .6-.1.3-.1.5-.3.7-.5.2-.2.3-.5.3-.8 0-.2 0-.4-.1-.6-.2-.4-.4-.6-.8-.8-.2-.1-.4-.1-.6-.1h-.3c-.5.1-.9.4-1.1.9-.1.2-.1.4-.1.6 0 .3.1.6.3.8.1.3.4.5.8.6zm0 14.8h.3c.2 0 .4 0 .6-.1.5-.2.9-.8.9-1.4 0-.6-.4-1.1-.9-1.4-.2-.1-.4-.1-.6-.1h-.3c-.7.1-1.2.7-1.2 1.5s.5 1.4 1.2 1.5zm15.5 44.6c.5 0 1-.3 1.3-.7.2-.2.3-.5.3-.8 0-.2 0-.4-.1-.6-.2-.5-.8-.9-1.4-.9-.6 0-1.2.4-1.4.9-.1.2-.1.4-.1.6 0 .3.1.6.3.8.1.4.6.7 1.1.7zm-7.6 7.4c.8 0 1.5-.7 1.5-1.5s-.7-1.5-1.5-1.5-1.5.7-1.5 1.5.7 1.5 1.5 1.5zm7.6-37.1c.7 0 1.3-.5 1.5-1.2v-.3c0-.8-.7-1.5-1.5-1.5s-1.5.7-1.5 1.5v.3c.2.7.8 1.2 1.5 1.2zm0 14.8c.8 0 1.5-.7 1.5-1.5s-.7-1.5-1.5-1.5-1.5.7-1.5 1.5c0 .9.7 1.5 1.5 1.5zm7.6-7.4c.8 0 1.5-.7 1.5-1.5s-.7-1.5-1.5-1.5-1.5.7-1.5 1.5c0 .9.7 1.5 1.5 1.5zm-15.2 0c.8 0 1.5-.7 1.5-1.5s-.7-1.5-1.5-1.5-1.5.7-1.5 1.5c0 .9.7 1.5 1.5 1.5zm15.2 14.8c.8 0 1.5-.7 1.5-1.5s-.7-1.5-1.5-1.5-1.5.7-1.5 1.5c0 .9.7 1.5 1.5 1.5zm-15.2 0c.8 0 1.5-.7 1.5-1.5s-.7-1.5-1.5-1.5-1.5.7-1.5 1.5c0 .9.7 1.5 1.5 1.5zm22-22.5c.2.2.5.3.8.3.7 0 1.3-.5 1.5-1.2v-.3c0-.8-.7-1.5-1.5-1.5-.3 0-.6.1-.8.3-.4.3-.7.7-.7 1.2v.3c.1.4.3.7.7.9zm0 14.9c.2.2.5.3.8.3.8 0 1.5-.7 1.5-1.5s-.7-1.5-1.5-1.5c-.3 0-.6.1-.8.3-.4.3-.7.7-.7 1.2s.3.9.7 1.2zm-14.4-29.4c.8 0 1.5-.7 1.5-1.5s-.7-1.5-1.5-1.5-1.5.7-1.5 1.5.7 1.5 1.5 1.5zm-7.6-7.4c.8 0 1.5-.7 1.5-1.5s-.7-1.5-1.5-1.5-1.5.7-1.5 1.5.7 1.5 1.5 1.5zm15.2 14.8c.8 0 1.5-.7 1.5-1.5s-.7-1.5-1.5-1.5-1.5.7-1.5 1.5.7 1.5 1.5 1.5zm-15.2 0c.8 0 1.5-.7 1.5-1.5s-.7-1.5-1.5-1.5-1.5.7-1.5 1.5.7 1.5 1.5 1.5zm30.4 14.8c.8 0 1.5-.7 1.5-1.5s-.7-1.5-1.5-1.5-1.5.7-1.5 1.5c0 .9.7 1.5 1.5 1.5zM652 453.1c.8 0 1.5-.7 1.5-1.5s-.7-1.5-1.5-1.5-1.5.7-1.5 1.5c-.1.8.6 1.5 1.5 1.5zm6.7-7.7c.2.2.5.3.8.3.7 0 1.3-.5 1.5-1.2v-.3c0-.8-.7-1.5-1.5-1.5-.3 0-.6.1-.8.3-.4.3-.7.7-.7 1.2v.3c.2.4.4.7.7.9zm0 14.9c.2.2.5.3.8.3.8 0 1.5-.7 1.5-1.5s-.7-1.5-1.5-1.5c-.3 0-.6.1-.8.3-.4.3-.7.7-.7 1.2s.3.9.7 1.2zm16.1 15.1c.5 0 1-.3 1.3-.7.2-.2.3-.5.3-.8 0-.2 0-.4-.1-.6-.2-.5-.8-.9-1.4-.9-.6 0-1.2.4-1.4.9-.1.2-.1.4-.1.6 0 .3.1.6.3.8.1.4.5.7 1.1.7zm7.6 7.4c.8 0 1.5-.7 1.5-1.5s-.7-1.5-1.5-1.5-1.5.7-1.5 1.5c-.1.8.6 1.5 1.5 1.5zm7.3-7.5h.3c.2 0 .4 0 .6-.1.3-.1.5-.3.7-.5.2-.2.3-.5.3-.8 0-.2 0-.4-.1-.6-.2-.4-.4-.6-.8-.8-.2-.1-.4-.1-.6-.1h-.3c-.5.1-.9.4-1.1.9-.1.2-.1.4-.1.6 0 .3.1.6.3.8 0 .3.4.5.8.6zm0 14.9h.3c.2 0 .4 0 .6-.1.5-.2.9-.8.9-1.4 0-.6-.4-1.1-.9-1.4-.2-.1-.4-.1-.6-.1h-.3c-.7.1-1.2.7-1.2 1.5-.1.7.5 1.3 1.2 1.5zm-14.9-44.5c.7 0 1.3-.5 1.5-1.2v-.3c0-.8-.7-1.5-1.5-1.5s-1.5.7-1.5 1.5v.3c.1.7.7 1.2 1.5 1.2zm0 14.8c.8 0 1.5-.7 1.5-1.5s-.7-1.5-1.5-1.5-1.5.7-1.5 1.5c-.1.9.6 1.5 1.5 1.5zm7.6-7.4c.8 0 1.5-.7 1.5-1.5s-.7-1.5-1.5-1.5-1.5.7-1.5 1.5c-.1.8.6 1.5 1.5 1.5zm-15.2 0c.8 0 1.5-.7 1.5-1.5s-.7-1.5-1.5-1.5-1.5.7-1.5 1.5c-.1.8.6 1.5 1.5 1.5zm15.2 14.8c.8 0 1.5-.7 1.5-1.5s-.7-1.5-1.5-1.5-1.5.7-1.5 1.5c-.1.9.6 1.5 1.5 1.5zm-15.2 0c.8 0 1.5-.7 1.5-1.5s-.7-1.5-1.5-1.5-1.5.7-1.5 1.5c-.1.9.6 1.5 1.5 1.5zm22.5-22.2h.3c.2 0 .4 0 .6-.1.5-.2.8-.6.9-1.1v-.3c0-.6-.4-1.1-.9-1.4-.2-.1-.4-.1-.6-.1h-.3c-.7.1-1.2.7-1.2 1.5v.3c.1.6.6 1 1.2 1.2zm0 14.8h.3c.2 0 .4 0 .6-.1.5-.2.9-.8.9-1.4 0-.6-.4-1.1-.9-1.4-.2-.1-.4-.1-.6-.1h-.3c-.7.1-1.2.7-1.2 1.5-.1.8.5 1.4 1.2 1.5zm-14.9-29.6c.8 0 1.5-.7 1.5-1.5s-.7-1.5-1.5-1.5-1.5.7-1.5 1.5c-.1.8.6 1.5 1.5 1.5zm7.6-7.4c.8 0 1.5-.7 1.5-1.5s-.7-1.5-1.5-1.5-1.5.7-1.5 1.5c-.1.8.6 1.5 1.5 1.5zm0 14.8c.8 0 1.5-.7 1.5-1.5s-.7-1.5-1.5-1.5-1.5.7-1.5 1.5c-.1.8.6 1.5 1.5 1.5zm-15.2 0c.8 0 1.5-.7 1.5-1.5s-.7-1.5-1.5-1.5-1.5.7-1.5 1.5c-.1.8.6 1.5 1.5 1.5zm22.5-22.3h.3c.2 0 .4 0 .6-.1.3-.1.5-.3.7-.5.2-.2.3-.5.3-.8 0-.2 0-.4-.1-.6-.2-.4-.4-.6-.8-.8-.2-.1-.4-.1-.6-.1h-.3c-.5.1-.9.4-1.1.9-.1.2-.1.4-.1.6 0 .3.1.6.3.8 0 .3.4.5.8.6zm0 14.8h.3c.2 0 .4 0 .6-.1.5-.2.9-.8.9-1.4 0-.6-.4-1.1-.9-1.4-.2-.1-.4-.1-.6-.1h-.3c-.7.1-1.2.7-1.2 1.5-.1.8.5 1.4 1.2 1.5zm15.5 44.6c.5 0 1-.3 1.3-.7.2-.2.3-.5.3-.8 0-.2 0-.4-.1-.6-.2-.5-.8-.9-1.4-.9-.6 0-1.2.4-1.4.9-.1.2-.1.4-.1.6 0 .3.1.6.3.8.1.4.5.7 1.1.7zm-7.6 7.4c.8 0 1.5-.7 1.5-1.5s-.7-1.5-1.5-1.5-1.5.7-1.5 1.5c-.1.8.6 1.5 1.5 1.5zm7.6-37.1c.7 0 1.3-.5 1.5-1.2v-.3c0-.8-.7-1.5-1.5-1.5s-1.5.7-1.5 1.5v.3c.1.7.7 1.2 1.5 1.2zm0 14.8c.8 0 1.5-.7 1.5-1.5s-.7-1.5-1.5-1.5-1.5.7-1.5 1.5c-.1.9.6 1.5 1.5 1.5zm7.6-7.4c.8 0 1.5-.7 1.5-1.5s-.7-1.5-1.5-1.5-1.5.7-1.5 1.5c-.1.8.6 1.5 1.5 1.5zm-15.2 0c.8 0 1.5-.7 1.5-1.5s-.7-1.5-1.5-1.5-1.5.7-1.5 1.5c-.1.8.6 1.5 1.5 1.5zm15.2 14.8c.8 0 1.5-.7 1.5-1.5s-.7-1.5-1.5-1.5-1.5.7-1.5 1.5c-.1.9.6 1.5 1.5 1.5zm-15.2 0c.8 0 1.5-.7 1.5-1.5s-.7-1.5-1.5-1.5-1.5.7-1.5 1.5c-.1.9.6 1.5 1.5 1.5zm21.9-22.5c.2.2.5.3.8.3.7 0 1.3-.5 1.5-1.2v-.3c0-.8-.7-1.5-1.5-1.5-.3 0-.6.1-.8.3-.4.3-.7.7-.7 1.2v.3c.2.4.4.7.7.9zm0 14.9c.2.2.5.3.8.3.8 0 1.5-.7 1.5-1.5s-.7-1.5-1.5-1.5c-.3 0-.6.1-.8.3-.4.3-.7.7-.7 1.2s.3.9.7 1.2zm-14.3-29.4c.8 0 1.5-.7 1.5-1.5s-.7-1.5-1.5-1.5-1.5.7-1.5 1.5c-.1.8.6 1.5 1.5 1.5zm-7.6-7.4c.8 0 1.5-.7 1.5-1.5s-.7-1.5-1.5-1.5-1.5.7-1.5 1.5c-.1.8.6 1.5 1.5 1.5zm15.2 14.8c.8 0 1.5-.7 1.5-1.5s-.7-1.5-1.5-1.5-1.5.7-1.5 1.5c-.1.8.6 1.5 1.5 1.5zm-15.2 0c.8 0 1.5-.7 1.5-1.5s-.7-1.5-1.5-1.5-1.5.7-1.5 1.5c-.1.8.6 1.5 1.5 1.5zm30.4 14.8c.8 0 1.5-.7 1.5-1.5s-.7-1.5-1.5-1.5-1.5.7-1.5 1.5c-.1.8.6 1.5 1.5 1.5z"/><path class="st3" d="M923.9 485.8c.6.6 1.6.6 2.2 0 .6-.6.6-1.5 0-2.1-.6-.6-1.6-.6-2.1 0-.7.6-.7 1.5-.1 2.1zm10.4-.8c.1.3.2.5.4.8.5.5 1.3.6 1.9.2.1-.1.2-.1.2-.2.6-.6.6-1.5 0-2.1-.2-.2-.5-.4-.8-.4-.5-.1-1 0-1.4.4-.1.1-.1.2-.2.2-.1.3-.2.7-.1 1.1zm-10.8 10.5c.1.3.2.5.4.8.6.6 1.6.6 2.1 0 .6-.6.6-1.5 0-2.1-.2-.2-.5-.4-.8-.4-.5-.1-1 0-1.4.4-.2.3-.4.8-.3 1.3zm.4 21.7c.4.4.9.5 1.4.4.3-.1.6-.2.8-.4.1-.1.3-.3.3-.5.2-.5.1-1.2-.3-1.6-.4-.4-1.1-.5-1.6-.3-.2.1-.4.2-.5.3-.2.2-.4.5-.4.8-.2.5 0 1 .3 1.3zm0 10.5c.6.6 1.6.6 2.2 0 .6-.6.6-1.5 0-2.1-.6-.6-1.6-.6-2.1 0-.7.6-.7 1.5-.1 2.1zm10.6-.2c.1.1.1.2.2.2.1.1.3.3.5.3.3.1.6.1.9.1.3-.1.6-.2.8-.4.1-.1.3-.3.3-.5.1-.4.1-.8 0-1.1-.1-.2-.2-.3-.3-.5-.1-.1-.2-.1-.2-.2-.4-.3-1-.3-1.4-.1-.2.1-.4.2-.5.3-.2.2-.4.5-.4.8-.2.4-.1.8.1 1.1zM923.7 538c.1.1.1.2.2.2.1.1.3.3.5.3.5.2 1.2.1 1.6-.3s.6-1.1.3-1.6c-.1-.2-.2-.3-.3-.5-.1-.1-.2-.1-.2-.2-.6-.4-1.4-.3-1.9.2s-.6 1.3-.2 1.9zm21.7-41.7c.5.5 1.3.6 1.9.2.1-.1.2-.1.2-.2.6-.6.6-1.5 0-2.1-.6-.6-1.6-.6-2.1 0-.1.1-.1.2-.2.2-.4.6-.3 1.4.2 1.9zm-10.7 10.4c.6.6 1.6.6 2.1 0 .6-.6.6-1.5 0-2.1-.6-.6-1.6-.6-2.2 0-.5.6-.5 1.6.1 2.1zm10.7 0c.6.6 1.6.6 2.2 0 .6-.6.6-1.5 0-2.1-.6-.6-1.6-.6-2.1 0-.7.6-.7 1.6-.1 2.1zm-10.7-10.4c.6.6 1.6.6 2.2 0 .6-.6.6-1.5 0-2.1-.6-.6-1.6-.6-2.1 0-.7.5-.7 1.5-.1 2.1zm0 20.9c.6.6 1.6.6 2.2 0 .6-.6.6-1.5 0-2.1-.6-.6-1.6-.6-2.1 0-.7.6-.7 1.6-.1 2.1zm-10.8-10.5c.6.6 1.6.6 2.2 0 .6-.6.6-1.5 0-2.1-.6-.6-1.6-.6-2.1 0-.7.6-.7 1.6-.1 2.1zm32.1-.2c.1.1.1.2.2.2.1.1.3.3.5.3.5.2 1 .1 1.4-.1.1-.1.2-.1.2-.2.4-.4.6-1.1.3-1.6-.1-.2-.2-.3-.3-.5-.1-.1-.2-.1-.2-.2-.6-.4-1.4-.3-1.9.2-.1.1-.1.2-.2.2-.4.6-.4 1.2 0 1.7zM945.2 517c.1.1.1.2.2.2.1.1.3.3.5.3.5.2 1.2.1 1.6-.3.4-.4.6-1.1.3-1.6-.1-.2-.2-.3-.3-.5-.1-.1-.2-.1-.2-.2-.6-.4-1.4-.3-1.9.2s-.6 1.3-.2 1.9zm11-31.2c.6.6 1.6.6 2.1 0 .6-.6.6-1.5 0-2.1-.6-.6-1.6-.6-2.2 0-.5.6-.5 1.5.1 2.1zm10.7 0c.6.6 1.6.6 2.2 0 .6-.6.6-1.5 0-2.1-.6-.6-1.6-.6-2.1 0-.7.6-.7 1.5-.1 2.1zm-10.7 10.5c.6.6 1.6.6 2.2 0 .6-.6.6-1.5 0-2.1-.6-.6-1.6-.6-2.1 0-.7.5-.7 1.5-.1 2.1zm-10.8-10.5c.6.6 1.6.6 2.2 0 .6-.6.6-1.5 0-2.1-.6-.6-1.6-.6-2.1 0-.7.6-.7 1.5-.1 2.1zm32.1-.3c.1.1.1.2.2.2.1.1.3.3.5.3.3.1.6.1.9.1.3-.1.6-.2.8-.4.1-.1.3-.3.3-.5.1-.4.1-.8 0-1.1-.1-.2-.2-.3-.3-.5-.1-.1-.2-.1-.2-.2-.4-.3-1-.3-1.4-.1-.2.1-.4.2-.5.3-.2.2-.4.5-.4.8-.2.4-.1.8.1 1.1zM966.7 496c.1.1.1.2.2.2.1.1.3.3.5.3.5.2 1.2.1 1.6-.3s.6-1.1.3-1.6c-.1-.2-.2-.3-.3-.5-.1-.1-.2-.1-.2-.2-.6-.4-1.4-.3-1.9.2-.5.6-.6 1.4-.2 1.9zm-21.3 42.2c.4.4.9.5 1.4.4.3-.1.6-.2.8-.4.1-.1.3-.3.3-.5.2-.5.1-1.2-.3-1.6-.4-.4-1.1-.5-1.6-.3-.2.1-.4.2-.5.3-.2.2-.4.5-.4.8-.2.4 0 .9.3 1.3zm-10.7 0c.6.6 1.6.6 2.2 0 .6-.6.6-1.5 0-2.1-.6-.6-1.6-.6-2.1 0-.7.6-.7 1.5-.1 2.1zm32.2-21c.5.5 1.3.6 1.9.2.1-.1.2-.1.2-.2.6-.6.6-1.5 0-2.1-.6-.6-1.6-.6-2.1 0-.1.1-.1.2-.2.2-.4.6-.3 1.4.2 1.9zm-10.7 10.5c.6.6 1.6.6 2.1 0 .6-.6.6-1.5 0-2.1-.6-.6-1.6-.6-2.2 0-.5.6-.5 1.5.1 2.1zm10.7 0c.6.6 1.6.6 2.2 0 .6-.6.6-1.5 0-2.1-.6-.6-1.6-.6-2.1 0-.7.6-.7 1.5-.1 2.1zm-10.7-10.5c.6.6 1.6.6 2.2 0 .6-.6.6-1.5 0-2.1-.6-.6-1.6-.6-2.1 0-.7.6-.7 1.6-.1 2.1zm0 21c.6.6 1.6.6 2.2 0 .6-.6.6-1.5 0-2.1-.6-.6-1.6-.6-2.1 0-.7.6-.7 1.5-.1 2.1zm-10.8-10.5c.6.6 1.6.6 2.2 0 .6-.6.6-1.5 0-2.1-.6-.6-1.6-.6-2.1 0-.7.6-.7 1.5-.1 2.1zm31.9-.7c.1.3.2.5.4.8.5.5 1.3.6 1.9.2.1-.1.2-.1.2-.2.6-.6.6-1.5 0-2.1-.2-.2-.5-.4-.8-.4-.5-.1-1 0-1.4.4-.1.1-.1.2-.2.2-.1.3-.2.7-.1 1.1zm-10.8 10.4c.1.3.2.5.4.8.6.6 1.6.6 2.1 0 .6-.6.6-1.5 0-2.1-.2-.2-.5-.4-.8-.4-.5-.1-1 0-1.4.4-.2.4-.4.9-.3 1.3zm11.2-30.7c.6.6 1.6.6 2.1 0 .6-.6.6-1.5 0-2.1-.6-.6-1.6-.6-2.2 0-.5.6-.5 1.6.1 2.1zm0-10.4c.6.6 1.6.6 2.2 0 .6-.6.6-1.5 0-2.1-.6-.6-1.6-.6-2.1 0-.7.5-.7 1.5-.1 2.1zm0 20.9c.6.6 1.6.6 2.2 0 .6-.6.6-1.5 0-2.1-.6-.6-1.6-.6-2.1 0-.7.6-.7 1.6-.1 2.1zm-10.8-10.5c.6.6 1.6.6 2.2 0 .6-.6.6-1.5 0-2.1-.6-.6-1.6-.6-2.1 0-.7.6-.7 1.6-.1 2.1zm10.8 31.5c.6.6 1.6.6 2.2 0 .6-.6.6-1.5 0-2.1-.6-.6-1.6-.6-2.1 0-.7.6-.7 1.5-.1 2.1z"/><path class="st1" d="M1169.8 246.1c.8 0 1.5-.7 1.5-1.5s-.7-1.5-1.5-1.5-1.5.7-1.5 1.5c-.1.9.6 1.5 1.5 1.5zm6.7-7.6c.2.2.5.3.8.3.7 0 1.3-.5 1.5-1.2v-.3c0-.8-.7-1.5-1.5-1.5-.3 0-.6.1-.8.3-.4.3-.7.7-.7 1.2v.3c.2.3.4.6.7.9zm0 14.8c.2.2.5.3.8.3.8 0 1.5-.7 1.5-1.5s-.7-1.5-1.5-1.5c-.3 0-.6.1-.8.3-.4.3-.7.7-.7 1.2s.3.9.7 1.2zm16.1 15.1c.5 0 1-.3 1.3-.7.2-.2.3-.5.3-.8 0-.2 0-.4-.1-.6-.2-.5-.8-.9-1.4-.9-.6 0-1.2.4-1.4.9-.1.2-.1.4-.1.6 0 .3.1.6.3.8.1.4.5.7 1.1.7zm7.6 7.4c.8 0 1.5-.7 1.5-1.5s-.7-1.5-1.5-1.5-1.5.7-1.5 1.5c-.1.8.6 1.5 1.5 1.5zm7.3-7.5h.3c.2 0 .4 0 .6-.1.3-.1.5-.3.7-.5.2-.2.3-.5.3-.8 0-.2 0-.4-.1-.6-.2-.4-.4-.6-.8-.8-.2-.1-.4-.1-.6-.1h-.3c-.5.1-.9.4-1.1.9-.1.2-.1.4-.1.6 0 .3.1.6.3.8 0 .3.4.6.8.6zm0 14.9h.3c.2 0 .4 0 .6-.1.5-.2.9-.8.9-1.4 0-.6-.4-1.1-.9-1.4-.2-.1-.4-.1-.6-.1h-.3c-.7.1-1.2.7-1.2 1.5-.1.7.5 1.3 1.2 1.5zm-14.9-44.5c.7 0 1.3-.5 1.5-1.2v-.3c0-.8-.7-1.5-1.5-1.5s-1.5.7-1.5 1.5v.3c.1.7.7 1.2 1.5 1.2zm0 14.8c.8 0 1.5-.7 1.5-1.5s-.7-1.5-1.5-1.5-1.5.7-1.5 1.5c-.1.9.6 1.5 1.5 1.5zm7.6-7.4c.8 0 1.5-.7 1.5-1.5s-.7-1.5-1.5-1.5-1.5.7-1.5 1.5c-.1.9.6 1.5 1.5 1.5zm-15.2 0c.8 0 1.5-.7 1.5-1.5s-.7-1.5-1.5-1.5-1.5.7-1.5 1.5c-.1.9.6 1.5 1.5 1.5zm15.2 14.9c.8 0 1.5-.7 1.5-1.5s-.7-1.5-1.5-1.5-1.5.7-1.5 1.5c-.1.8.6 1.5 1.5 1.5zm-15.2 0c.8 0 1.5-.7 1.5-1.5s-.7-1.5-1.5-1.5-1.5.7-1.5 1.5c-.1.8.6 1.5 1.5 1.5zm22.5-22.3h.3c.2 0 .4 0 .6-.1.5-.2.8-.6.9-1.1v-.3c0-.6-.4-1.1-.9-1.4-.2-.1-.4-.1-.6-.1h-.3c-.7.1-1.2.7-1.2 1.5v.3c.1.6.6 1.1 1.2 1.2zm0 14.8h.3c.2 0 .4 0 .6-.1.5-.2.9-.8.9-1.4 0-.6-.4-1.1-.9-1.4-.2-.1-.4-.1-.6-.1h-.3c-.7.1-1.2.7-1.2 1.5-.1.8.5 1.4 1.2 1.5zm-14.9-29.6c.8 0 1.5-.7 1.5-1.5s-.7-1.5-1.5-1.5-1.5.7-1.5 1.5c-.1.8.6 1.5 1.5 1.5zm7.6-7.4c.8 0 1.5-.7 1.5-1.5s-.7-1.5-1.5-1.5-1.5.7-1.5 1.5c-.1.8.6 1.5 1.5 1.5zm0 14.8c.8 0 1.5-.7 1.5-1.5s-.7-1.5-1.5-1.5-1.5.7-1.5 1.5c-.1.8.6 1.5 1.5 1.5zm-15.2 0c.8 0 1.5-.7 1.5-1.5s-.7-1.5-1.5-1.5-1.5.7-1.5 1.5c-.1.8.6 1.5 1.5 1.5zm22.5-22.3h.3c.2 0 .4 0 .6-.1.3-.1.5-.3.7-.5.2-.2.3-.5.3-.8 0-.2 0-.4-.1-.6-.2-.4-.4-.6-.8-.8-.2-.1-.4-.1-.6-.1h-.3c-.5.1-.9.4-1.1.9-.1.2-.1.4-.1.6 0 .3.1.6.3.8 0 .3.4.5.8.6zm0 14.9h.3c.2 0 .4 0 .6-.1.5-.2.9-.8.9-1.4 0-.6-.4-1.1-.9-1.4-.2-.1-.4-.1-.6-.1h-.3c-.7.1-1.2.7-1.2 1.5-.1.7.5 1.3 1.2 1.5zm15.5 44.5c.5 0 1-.3 1.3-.7.2-.2.3-.5.3-.8 0-.2 0-.4-.1-.6-.2-.5-.8-.9-1.4-.9-.6 0-1.2.4-1.4.9-.1.2-.1.4-.1.6 0 .3.1.6.3.8.1.4.5.7 1.1.7zm-7.6 7.4c.8 0 1.5-.7 1.5-1.5s-.7-1.5-1.5-1.5-1.5.7-1.5 1.5c-.1.8.6 1.5 1.5 1.5zm7.6-37.1c.7 0 1.3-.5 1.5-1.2v-.3c0-.8-.7-1.5-1.5-1.5s-1.5.7-1.5 1.5v.3c.1.7.7 1.2 1.5 1.2zm0 14.8c.8 0 1.5-.7 1.5-1.5s-.7-1.5-1.5-1.5-1.5.7-1.5 1.5c-.1.9.6 1.5 1.5 1.5zm7.6-7.4c.8 0 1.5-.7 1.5-1.5s-.7-1.5-1.5-1.5-1.5.7-1.5 1.5c-.1.9.6 1.5 1.5 1.5zm-15.2 0c.8 0 1.5-.7 1.5-1.5s-.7-1.5-1.5-1.5-1.5.7-1.5 1.5c-.1.9.6 1.5 1.5 1.5zm15.2 14.9c.8 0 1.5-.7 1.5-1.5s-.7-1.5-1.5-1.5-1.5.7-1.5 1.5c-.1.8.6 1.5 1.5 1.5zm-15.2 0c.8 0 1.5-.7 1.5-1.5s-.7-1.5-1.5-1.5-1.5.7-1.5 1.5c-.1.8.6 1.5 1.5 1.5zm21.9-22.5c.2.2.5.3.8.3.7 0 1.3-.5 1.5-1.2v-.3c0-.8-.7-1.5-1.5-1.5-.3 0-.6.1-.8.3-.4.3-.7.7-.7 1.2v.3c.2.3.4.6.7.9zm0 14.8c.2.2.5.3.8.3.8 0 1.5-.7 1.5-1.5s-.7-1.5-1.5-1.5c-.3 0-.6.1-.8.3-.4.3-.7.7-.7 1.2s.3.9.7 1.2zm-14.3-29.4c.8 0 1.5-.7 1.5-1.5s-.7-1.5-1.5-1.5-1.5.7-1.5 1.5c-.1.8.6 1.5 1.5 1.5zm-7.6-7.4c.8 0 1.5-.7 1.5-1.5s-.7-1.5-1.5-1.5-1.5.7-1.5 1.5c-.1.8.6 1.5 1.5 1.5zm15.2 14.8c.8 0 1.5-.7 1.5-1.5s-.7-1.5-1.5-1.5-1.5.7-1.5 1.5c-.1.8.6 1.5 1.5 1.5zm-15.2 0c.8 0 1.5-.7 1.5-1.5s-.7-1.5-1.5-1.5-1.5.7-1.5 1.5c-.1.8.6 1.5 1.5 1.5zm30.4 14.8c.8 0 1.5-.7 1.5-1.5s-.7-1.5-1.5-1.5-1.5.7-1.5 1.5c-.1.9.6 1.5 1.5 1.5z"/><path class="st4" d="M1049.7 597.7c.8 0 1.5-.7 1.5-1.5s-.7-1.5-1.5-1.5-1.5.7-1.5 1.5c-.1.8.6 1.5 1.5 1.5zm6.7-7.7c.2.2.5.3.8.3.7 0 1.3-.5 1.5-1.2v-.3c0-.8-.7-1.5-1.5-1.5-.3 0-.6.1-.8.3-.4.3-.7.7-.7 1.2v.3c.2.3.4.7.7.9zm0 14.8c.2.2.5.3.8.3.8 0 1.5-.7 1.5-1.5s-.7-1.5-1.5-1.5c-.3 0-.6.1-.8.3-.4.3-.7.7-.7 1.2s.3.9.7 1.2zm16.1 15.1c.5 0 1-.3 1.3-.7.2-.2.3-.5.3-.8 0-.2 0-.4-.1-.6-.2-.5-.8-.9-1.4-.9-.6 0-1.2.4-1.4.9-.1.2-.1.4-.1.6 0 .3.1.6.3.8.1.4.5.7 1.1.7zm7.6 7.4c.8 0 1.5-.7 1.5-1.5s-.7-1.5-1.5-1.5-1.5.7-1.5 1.5c-.1.8.6 1.5 1.5 1.5zm7.3-7.4h.3c.2 0 .4 0 .6-.1.3-.1.5-.3.7-.5.2-.2.3-.5.3-.8 0-.2 0-.4-.1-.6-.2-.4-.4-.6-.8-.8-.2-.1-.4-.1-.6-.1h-.3c-.5.1-.9.4-1.1.9-.1.2-.1.4-.1.6 0 .3.1.6.3.8 0 .3.4.5.8.6zm0 14.8h.3c.2 0 .4 0 .6-.1.5-.2.9-.8.9-1.4s-.4-1.1-.9-1.4c-.2-.1-.4-.1-.6-.1h-.3c-.7.1-1.2.7-1.2 1.5s.5 1.4 1.2 1.5zm-14.9-44.5c.7 0 1.3-.5 1.5-1.2v-.3c0-.8-.7-1.5-1.5-1.5s-1.5.7-1.5 1.5v.3c.1.7.7 1.2 1.5 1.2zm0 14.9c.8 0 1.5-.7 1.5-1.5s-.7-1.5-1.5-1.5-1.5.7-1.5 1.5c-.1.8.6 1.5 1.5 1.5zm7.6-7.4c.8 0 1.5-.7 1.5-1.5s-.7-1.5-1.5-1.5-1.5.7-1.5 1.5c-.1.8.6 1.5 1.5 1.5zm-15.2 0c.8 0 1.5-.7 1.5-1.5s-.7-1.5-1.5-1.5-1.5.7-1.5 1.5c-.1.8.6 1.5 1.5 1.5zm15.2 14.8c.8 0 1.5-.7 1.5-1.5s-.7-1.5-1.5-1.5-1.5.7-1.5 1.5c-.1.8.6 1.5 1.5 1.5zm-15.2 0c.8 0 1.5-.7 1.5-1.5s-.7-1.5-1.5-1.5-1.5.7-1.5 1.5c-.1.8.6 1.5 1.5 1.5zm22.5-22.3h.3c.2 0 .4 0 .6-.1.5-.2.8-.6.9-1.1v-.3c0-.6-.4-1.1-.9-1.4-.2-.1-.4-.1-.6-.1h-.3c-.7.1-1.2.7-1.2 1.5v.3c.1.6.6 1.1 1.2 1.2zm0 14.8h.3c.2 0 .4 0 .6-.1.5-.2.9-.8.9-1.4s-.4-1.1-.9-1.4c-.2-.1-.4-.1-.6-.1h-.3c-.7.1-1.2.7-1.2 1.5s.5 1.4 1.2 1.5zm-14.9-29.6c.8 0 1.5-.7 1.5-1.5s-.7-1.5-1.5-1.5-1.5.7-1.5 1.5c-.1.8.6 1.5 1.5 1.5zm7.6-7.4c.8 0 1.5-.7 1.5-1.5s-.7-1.5-1.5-1.5-1.5.7-1.5 1.5c-.1.8.6 1.5 1.5 1.5zm0 14.8c.8 0 1.5-.7 1.5-1.5s-.7-1.5-1.5-1.5-1.5.7-1.5 1.5c-.1.9.6 1.5 1.5 1.5zm-15.2 0c.8 0 1.5-.7 1.5-1.5s-.7-1.5-1.5-1.5-1.5.7-1.5 1.5c-.1.9.6 1.5 1.5 1.5zm22.5-22.3h.3c.2 0 .4 0 .6-.1.3-.1.5-.3.7-.5.2-.2.3-.5.3-.8 0-.2 0-.4-.1-.6-.2-.4-.4-.6-.8-.8-.2-.1-.4-.1-.6-.1h-.3c-.5.1-.9.4-1.1.9-.1.2-.1.4-.1.6 0 .3.1.6.3.8 0 .3.4.6.8.6zm0 14.9h.3c.2 0 .4 0 .6-.1.5-.2.9-.8.9-1.4s-.4-1.1-.9-1.4c-.2-.1-.4-.1-.6-.1h-.3c-.7.1-1.2.7-1.2 1.5s.5 1.3 1.2 1.5zm15.5 44.5c.5 0 1-.3 1.3-.7.2-.2.3-.5.3-.8 0-.2 0-.4-.1-.6-.2-.5-.8-.9-1.4-.9-.6 0-1.2.4-1.4.9-.1.2-.1.4-.1.6 0 .3.1.6.3.8.1.4.5.7 1.1.7zm-7.6 7.4c.8 0 1.5-.7 1.5-1.5s-.7-1.5-1.5-1.5-1.5.7-1.5 1.5.6 1.5 1.5 1.5zm7.6-37.1c.7 0 1.3-.5 1.5-1.2v-.3c0-.8-.7-1.5-1.5-1.5s-1.5.7-1.5 1.5v.3c.1.7.7 1.2 1.5 1.2zm0 14.9c.8 0 1.5-.7 1.5-1.5s-.7-1.5-1.5-1.5-1.5.7-1.5 1.5.6 1.5 1.5 1.5zm7.6-7.4c.8 0 1.5-.7 1.5-1.5s-.7-1.5-1.5-1.5-1.5.7-1.5 1.5.6 1.5 1.5 1.5zm-15.2 0c.8 0 1.5-.7 1.5-1.5s-.7-1.5-1.5-1.5-1.5.7-1.5 1.5.6 1.5 1.5 1.5zm15.2 14.8c.8 0 1.5-.7 1.5-1.5s-.7-1.5-1.5-1.5-1.5.7-1.5 1.5.6 1.5 1.5 1.5zm-15.2 0c.8 0 1.5-.7 1.5-1.5s-.7-1.5-1.5-1.5-1.5.7-1.5 1.5.6 1.5 1.5 1.5zm21.9-22.5c.2.2.5.3.8.3.7 0 1.3-.5 1.5-1.2v-.3c0-.8-.7-1.5-1.5-1.5-.3 0-.6.1-.8.3-.4.3-.7.7-.7 1.2v.3c.2.3.4.7.7.9zm0 14.8c.2.2.5.3.8.3.8 0 1.5-.7 1.5-1.5s-.7-1.5-1.5-1.5c-.3 0-.6.1-.8.3-.4.3-.7.7-.7 1.2.1.5.3.9.7 1.2zm-14.3-29.4c.8 0 1.5-.7 1.5-1.5s-.7-1.5-1.5-1.5-1.5.7-1.5 1.5.6 1.5 1.5 1.5zm-7.6-7.4c.8 0 1.5-.7 1.5-1.5s-.7-1.5-1.5-1.5-1.5.7-1.5 1.5.6 1.5 1.5 1.5zm15.2 14.8c.8 0 1.5-.7 1.5-1.5s-.7-1.5-1.5-1.5-1.5.7-1.5 1.5c0 .9.6 1.5 1.5 1.5zm-15.2 0c.8 0 1.5-.7 1.5-1.5s-.7-1.5-1.5-1.5-1.5.7-1.5 1.5c0 .9.6 1.5 1.5 1.5zm30.4 14.9c.8 0 1.5-.7 1.5-1.5s-.7-1.5-1.5-1.5-1.5.7-1.5 1.5.6 1.5 1.5 1.5z"/><path class="st1" d="M987.6 443l-.1.1-.2.1h2.8l10.3-9.4h-2.8zm-6-6.3l-.1.2-6.9 6.3h2.8l5.4-5 .1-.1.2-.1 4.6-4.2h-2.8zm18.5 6.5h2.8l10.3-9.4h-2.8z"/><path class="st2" d="M801.2 275.9l.1-.1.1-.1v2.7l-9.6 10v-2.7zm-6.4-5.8l.2-.1 6.4-6.8v2.7l-5 5.3-.2.2-.1.1-4.3 4.5v-2.8zm6.6 18v2.7l-9.6 10.1v-2.7z"/><path class="st8" d="M297.3 631.5c.4 0 .7.3.7.7v30.3c0 .4-.3.7-.7.7h-38.6c-.4 0-.7-.3-.7-.7v-30.3c0-.4.3-.7.7-.7h38.6zm-.7 1.4h-37.2v29h37.2v-29zm0 29"/><path class="st8" d="M269 646.8c-2.1 0-3.8-1.7-3.8-3.8 0-2.1 1.7-3.8 3.8-3.8 2.1 0 3.8 1.7 3.8 3.8.1 2.1-1.7 3.8-3.8 3.8zm0-6.3c-1.4 0-2.5 1.1-2.5 2.5s1.1 2.5 2.5 2.5 2.5-1.1 2.5-2.5-1.1-2.5-2.5-2.5zm-6.2 18.6c-.2 0-.4-.1-.5-.2-.3-.3-.2-.7.1-1l11.7-10.3c.3-.2.7-.2.9 0l3.3 3.3 6.8-7.4c.1-.1.3-.2.5-.2s.4.1.5.2l8.3 7.6c.3.3.3.7 0 1-.3.3-.7.3-1 0l-7.8-7.1-6.3 6.9 3.3 3.3c.3.3.3.7 0 1-.3.3-.7.3-1 0l-7.1-7.1-11.3 9.9c-.1.1-.2.1-.4.1zM56.7 43.1c.2.1.3.3.3.6 0 .2-.1.5-.3.6l-7.6 4.8c-.1.1-.2.1-.4.1-.1 0-.2 0-.3-.1-.2-.1-.4-.3-.4-.6v-9.7c0-.3.1-.5.4-.6.2-.1.5-.1.7 0l7.6 4.9zm-1.7.6l-5.6-3.6v7.1l5.6-3.5zm-5.6 3.6"/><path class="st8" d="M70.8 27.8c.4 0 .7.3.7.7v30.3c0 .4-.3.7-.7.7H32.2c-.4 0-.7-.3-.7-.7V28.5c0-.4.3-.7.7-.7h38.6zm-32.4 9h-5.5V43h5.5v-6.2zm-5.5 13.8h5.5v-6.2h-5.5v6.2zm6.9 7.6h23.4v-29H39.8v29zm30.3-21.4h-5.5V43h5.5v-6.2zm-5.5 13.8h5.5v-6.2h-5.5v6.2zm0-21.4v6.2h5.5v-6.2h-5.5zm-31.7 6.2h5.5v-6.2h-5.5v6.2zm5.5 22.8V52h-5.5v6.2h5.5zM70.1 52h-5.5v6.2h5.5V52zm436.2 212c-1.1 0-2-.9-2-2v-2h-2c-1.1 0-2-.9-2-2s.9-2 2-2h2v-2c0-1.1.9-2 2-2s2 .9 2 2v2h2c1.1 0 2 .9 2 2s-.9 2-2 2h-2v2c0 1.1-.9 2-2 2zm-1.4-5.3c.4 0 .7.3.7.7v2.7c0 .4.3.7.7.7.4 0 .7-.3.7-.7v-2.7c0-.4.3-.7.7-.7h2.7c.4 0 .7-.3.7-.7 0-.4-.3-.7-.7-.7h-2.7c-.4 0-.7-.3-.7-.7V254c0-.4-.3-.7-.7-.7-.4 0-.7.3-.7.7v2.7c0 .4-.3.7-.7.7h-2.7c-.4 0-.7.3-.7.7 0 .4.3.7.7.7h2.7zm-2.6 0"/><path class="st8" d="M526.3 248c5.4 0 10 4.6 10 10v10.7c0 2.7-2.5 4.6-4.7 4.6-2.5 0-4-1.6-5.5-3.3-2-2.2-4.3-4.7-9.8-4.7-5.5 0-7.8 2.5-9.8 4.7-1.5 1.7-3 3.3-5.5 3.3-2.2 0-4.7-1.9-4.7-4.7V258c0-5.4 4.6-10 10-10h12c.4 0 .7.3.7.7 0 .4-.3.7-.7.7h-12c-4.7 0-8.7 4-8.7 8.7v10.7c0 2.1 1.9 3.3 3.3 3.3 2 0 3.1-1.3 4.6-2.9 2.1-2.3 4.7-5.1 10.8-5.1 6.1 0 8.7 2.9 10.8 5.2 1.5 1.6 2.6 2.8 4.5 2.8 1.4 0 3.3-1.2 3.3-3.3V258c0-4.7-4-8.7-8.7-8.7h-5.3c-.4 0-.7-.3-.7-.7V242c0-1.1-.9-2-2-2s-2 .9-2 2c0 1.8-1.5 3.3-3.3 3.3-1.8 0-3.3-1.5-3.3-3.3v-8c0-.4.3-.7.7-.7.4 0 .7.3.7.7v8c0 1.1.9 2 2 2s2-.9 2-2c0-1.8 1.5-3.3 3.3-3.3 1.8 0 3.3 1.5 3.3 3.3v6h4.7zm0 0"/><path class="st8" d="M530.3 260c-1.1 0-2-.9-2-2s.9-2 2-2 2 .9 2 2-.9 2-2 2zm0-2.6c-.4 0-.7.3-.7.7 0 .4.3.7.7.7s.7-.3.7-.7c-.1-.4-.4-.7-.7-.7zm-4-5.4c1.1 0 2 .9 2 2s-.9 2-2 2-2-.9-2-2 .8-2 2-2zm0 2.7c.4 0 .7-.3.7-.7 0-.4-.3-.7-.7-.7-.4 0-.7.3-.7.7s.3.7.7.7zm-4 1.3c1.1 0 2 .9 2 2s-.9 2-2 2-2-.9-2-2 .8-2 2-2zm0 2.7c.4 0 .7-.3.7-.7 0-.4-.3-.7-.7-.7-.4 0-.7.3-.7.7 0 .4.3.7.7.7zm4 5.3c-1.1 0-2-.9-2-2s.9-2 2-2 2 .9 2 2-.9 2-2 2zm0-2.6c-.4 0-.7.3-.7.7 0 .4.3.7.7.7.4 0 .7-.3.7-.7-.1-.4-.4-.7-.7-.7zm-408 257.8c.2.1.2.3.2.5v25.5c-.1 3.6-3.3 6.4-7.3 6.4s-7.3-2.9-7.3-6.5 3.3-6.5 7.3-6.5c2.4 0 4.5 1 5.8 2.6V528l-21 2.7v21.7c0 3.6-3.3 6.5-7.3 6.5s-7.3-2.9-7.3-6.5 3.3-6.5 7.3-6.5c2.4 0 4.5 1 5.8 2.6v-25.9c0-.4.3-.7.6-.7l22.5-2.9c.4 0 .6.1.7.2zm-29.6 38.4c3.2 0 5.8-2.3 5.8-5.1s-2.6-5.1-5.8-5.1c-3.2 0-5.8 2.3-5.8 5.1s2.6 5.1 5.8 5.1zm22.6-7.3c3.2 0 5.8-2.3 5.8-5.1s-2.6-5.1-5.8-5.1c-3.2 0-5.8 2.3-5.8 5.1s2.6 5.1 5.8 5.1zm5.8-23.8v-6L96 523.3v6l21.1-2.8zm430.5-484c.4 0 .7.3.7.7v30.3c0 .4-.3.7-.7.7H509c-.4 0-.7-.3-.7-.7V43.2c0-.4.3-.7.7-.7h38.6zm-.7 1.4h-37.2v29h37.2v-29zm0 28.9"/><path class="st8" d="M519.3 57.8c-2.1 0-3.8-1.7-3.8-3.8 0-2.1 1.7-3.8 3.8-3.8 2.1 0 3.8 1.7 3.8 3.8 0 2-1.7 3.8-3.8 3.8zm0-6.3c-1.4 0-2.5 1.1-2.5 2.5s1.1 2.5 2.5 2.5 2.5-1.1 2.5-2.5c-.1-1.4-1.2-2.5-2.5-2.5zm-6.2 18.6c-.2 0-.4-.1-.5-.2-.3-.3-.2-.7.1-1l11.7-10.3c.3-.2.7-.2.9 0l3.3 3.3 6.8-7.4c.1-.1.3-.2.5-.2s.4.1.5.2l8.3 7.6c.3.3.3.7 0 1-.3.3-.7.3-1 0l-7.8-7.1-6.3 6.9 3.3 3.3c.3.3.3.7 0 1-.3.3-.7.3-1 0l-7.1-7.1-11.3 9.9c-.1 0-.3.1-.4.1zm135.4 468c.2.1.3.3.3.6 0 .2-.1.5-.3.6l-7.6 4.8c-.1.1-.2.1-.4.1-.1 0-.2 0-.3-.1-.2-.1-.4-.3-.4-.6v-9.7c0-.3.1-.5.4-.6.2-.1.5-.1.7 0l7.6 4.9zm-1.6.5l-5.6-3.6v7.1l5.6-3.5zm-5.7 3.6"/><path class="st8" d="M662.6 522.8c.4 0 .7.3.7.7v30.3c0 .4-.3.7-.7.7H624c-.4 0-.7-.3-.7-.7v-30.3c0-.4.3-.7.7-.7h38.6zm-32.4 8.9h-5.5v6.2h5.5v-6.2zm-5.5 13.8h5.5v-6.2h-5.5v6.2zm6.9 7.6H655v-29h-23.4v29zm30.3-21.4h-5.5v6.2h5.5v-6.2zm-5.5 13.8h5.5v-6.2h-5.5v6.2zm0-21.3v6.2h5.5v-6.2h-5.5zm-31.7 6.2h5.5v-6.2h-5.5v6.2zm5.5 22.7v-6.2h-5.5v6.2h5.5zm31.7-6.2h-5.5v6.2h5.5v-6.2zM352.3 49.3c-1.1 0-2-.9-2-2v-2h-2c-1.1 0-2-.9-2-2s.9-2 2-2h2v-2c0-1.1.9-2 2-2s2 .9 2 2v2h2c1.1 0 2 .9 2 2s-.9 2-2 2h-2v2c0 1.1-.9 2-2 2zm-1.4-5.3c.4 0 .7.3.7.7v2.7c0 .4.3.7.7.7.4 0 .7-.3.7-.7v-2.7c0-.4.3-.7.7-.7h2.7c.4 0 .7-.3.7-.7 0-.4-.3-.7-.7-.7h-2.7c-.4 0-.7-.3-.7-.7v-2.7c0-.4-.3-.7-.7-.7-.4 0-.7.3-.7.7V42c0 .4-.3.7-.7.7h-2.7c-.4 0-.7.3-.7.7 0 .4.3.7.7.7h2.7zm-2.6 0"/><path class="st8" d="M372.3 33.3c5.4 0 10 4.6 10 10V54c0 2.7-2.5 4.6-4.7 4.6-2.5 0-4-1.6-5.5-3.3-2-2.2-4.3-4.7-9.8-4.7-5.5 0-7.8 2.5-9.8 4.7-1.5 1.7-3 3.3-5.5 3.3-2.2 0-4.7-1.9-4.7-4.7V43.3c0-5.4 4.6-10 10-10h12c.4 0 .7.3.7.7 0 .4-.3.7-.7.7h-12c-4.7 0-8.7 4-8.7 8.7V54c0 2.1 1.9 3.3 3.3 3.3 2 0 3.1-1.3 4.6-2.9 2.1-2.3 4.7-5.1 10.8-5.1 6.1 0 8.7 2.9 10.8 5.2 1.5 1.6 2.6 2.8 4.5 2.8 1.4 0 3.3-1.2 3.3-3.3V43.3c0-4.7-4-8.7-8.7-8.7h-5.3c-.4 0-.7-.3-.7-.7v-6.7c0-1.1-.9-2-2-2s-2 .9-2 2c0 1.8-1.5 3.3-3.3 3.3-1.8 0-3.3-1.5-3.3-3.3v-8c0-.4.3-.7.7-.7.4 0 .7.3.7.7v8c0 1.1.9 2 2 2s2-.9 2-2c0-1.8 1.5-3.3 3.3-3.3 1.8 0 3.3 1.5 3.3 3.3v6h4.7v.1zm0 0"/><path class="st8" d="M376.3 45.3c-1.1 0-2-.9-2-2s.9-2 2-2 2 .9 2 2-.9 2-2 2zm0-2.6c-.4 0-.7.3-.7.7 0 .4.3.7.7.7.4 0 .7-.3.7-.7-.1-.4-.4-.7-.7-.7zm-4-5.4c1.1 0 2 .9 2 2s-.9 2-2 2-2-.9-2-2 .8-2 2-2zm0 2.7c.4 0 .7-.3.7-.7 0-.4-.3-.7-.7-.7-.4 0-.7.3-.7.7 0 .4.3.7.7.7zm-4 1.3c1.1 0 2 .9 2 2s-.9 2-2 2-2-.9-2-2 .8-2 2-2zm0 2.7c.4 0 .7-.3.7-.7 0-.4-.3-.7-.7-.7-.4 0-.7.3-.7.7 0 .4.3.7.7.7zm4 5.3c-1.1 0-2-.9-2-2s.9-2 2-2 2 .9 2 2-.9 2-2 2zm0-2.6c-.4 0-.7.3-.7.7 0 .4.3.7.7.7.4 0 .7-.3.7-.7-.1-.4-.4-.7-.7-.7zm442.1 472.1c.2.1.2.3.2.5v25.5c-.1 3.6-3.3 6.4-7.3 6.4s-7.3-2.9-7.3-6.5 3.3-6.5 7.3-6.5c2.4 0 4.5 1 5.8 2.6v-13.3l-21.1 2.7v21.7c0 3.6-3.3 6.5-7.3 6.5s-7.3-2.9-7.3-6.5 3.3-6.5 7.3-6.5c2.4 0 4.5 1 5.8 2.6v-25.9c0-.4.3-.7.6-.7l22.5-2.9c.5.1.7.2.8.3zm-29.5 38.4c3.2 0 5.8-2.3 5.8-5.1s-2.6-5.1-5.8-5.1c-3.2 0-5.8 2.3-5.8 5.1s2.6 5.1 5.8 5.1zm22.5-7.3c3.2 0 5.8-2.3 5.8-5.1s-2.6-5.1-5.8-5.1c-3.2 0-5.8 2.3-5.8 5.1s2.6 5.1 5.8 5.1zm5.8-23.7v-6l-21.1 2.7v6l21.1-2.7zM224 316.7c.4 0 .7.3.7.7v30.3c0 .4-.3.7-.7.7h-38.6c-.4 0-.7-.3-.7-.7v-30.3c0-.4.3-.7.7-.7H224zm-.6 1.4h-37.2v29h37.2v-29zm0 28.9"/><path class="st8" d="M195.8 332c-2.1 0-3.8-1.7-3.8-3.8 0-2.1 1.7-3.8 3.8-3.8 2.1 0 3.8 1.7 3.8 3.8 0 2-1.7 3.8-3.8 3.8zm0-6.3c-1.4 0-2.5 1.1-2.5 2.5s1.1 2.5 2.5 2.5 2.5-1.1 2.5-2.5c-.1-1.4-1.2-2.5-2.5-2.5zm-6.2 18.6c-.2 0-.4-.1-.5-.2-.3-.3-.2-.7.1-1l11.7-10.3c.3-.2.7-.2.9 0l3.3 3.3 6.8-7.4c.1-.1.3-.2.5-.2s.4.1.5.2l8.3 7.6c.3.3.3.7 0 1-.3.3-.7.3-1 0l-7.8-7.1-6.4 6.8 3.3 3.3c.3.3.3.7 0 1-.3.3-.7.3-1 0l-7.1-7.1-11.3 9.9c0 .1-.2.2-.3.2zm106.6 68.3c.2.1.3.3.3.6 0 .2-.1.5-.3.6l-7.6 4.8c-.1.1-.2.1-.4.1-.1 0-.2 0-.3-.1-.2-.1-.4-.4-.4-.6v-9.7c0-.3.1-.5.4-.6.2-.1.5-.1.7 0l7.6 4.9zm-1.7.6l-5.6-3.6v7.1l5.6-3.5zm-5.6 3.5"/><path class="st8" d="M310.3 397.3c.4 0 .7.3.7.7v30.3c0 .4-.3.7-.7.7h-38.6c-.4 0-.7-.3-.7-.7V398c0-.4.3-.7.7-.7h38.6zm-32.4 9h-5.5v6.2h5.5v-6.2zm-5.5 13.8h5.5v-6.2h-5.5v6.2zm6.9 7.6h23.4v-29h-23.4v29zm30.3-21.4h-5.5v6.2h5.5v-6.2zm-5.5 13.8h5.5v-6.2h-5.5v6.2zm0-21.4v6.2h5.5v-6.2h-5.5zm-31.7 6.2h5.5v-6.2h-5.5v6.2zm5.5 22.8v-6.2h-5.5v6.2h5.5zm31.7-6.2h-5.5v6.2h5.5v-6.2zm753.6-172.4c-1.1 0-2-.9-2-2v-2h-2c-1.1 0-2-.9-2-2s.9-2 2-2h2v-2c0-1.1.9-2 2-2s2 .9 2 2v2h2c1.1 0 2 .9 2 2s-.9 2-2 2h-2v2c0 1.2-.9 2-2 2zm-1.3-5.3c.4 0 .7.3.7.7v2.7c0 .4.3.7.7.7.4 0 .7-.3.7-.7v-2.7c0-.4.3-.7.7-.7h2.7c.4 0 .7-.3.7-.7s-.3-.7-.7-.7h-2.7c-.4 0-.7-.3-.7-.7V239c0-.4-.3-.7-.7-.7-.4 0-.7.3-.7.7v2.7c0 .4-.3.7-.7.7h-2.7c-.4 0-.7.3-.7.7s.3.7.7.7h2.7zm-2.7 0"/><path class="st8" d="M1083.2 233.1c5.4 0 10 4.6 10 10v10.7c0 2.7-2.5 4.6-4.7 4.6-2.5 0-4-1.6-5.5-3.3-2-2.2-4.3-4.7-9.8-4.7-5.5 0-7.8 2.5-9.8 4.7-1.5 1.7-3 3.3-5.5 3.3-2.2 0-4.7-1.9-4.7-4.7V243c0-5.4 4.6-10 10-10h12c.4 0 .7.3.7.7 0 .4-.3.7-.7.7h-12c-4.7 0-8.7 4-8.7 8.7v10.7c0 2.1 1.9 3.3 3.3 3.3 2 0 3.1-1.3 4.6-2.9 2.1-2.3 4.7-5.1 10.8-5.1 6.1 0 8.7 2.9 10.8 5.2 1.5 1.6 2.6 2.8 4.5 2.8 1.4 0 3.3-1.2 3.3-3.3v-10.7c0-4.7-4-8.7-8.7-8.7h-5.3c-.4 0-.7-.3-.7-.7V227c0-1.1-.9-2-2-2s-2 .9-2 2c0 1.8-1.5 3.3-3.3 3.3-1.8 0-3.3-1.5-3.3-3.3v-8c0-.4.3-.7.7-.7.4 0 .7.3.7.7v8c0 1.1.9 2 2 2s2-.9 2-2c0-1.8 1.5-3.3 3.3-3.3s3.3 1.5 3.3 3.3v6h4.7v.1zm0 0"/><path class="st8" d="M1087.2 245.1c-1.1 0-2-.9-2-2s.9-2 2-2 2 .9 2 2c0 1.2-.9 2-2 2zm0-2.6c-.4 0-.7.3-.7.7s.3.7.7.7c.4 0 .7-.3.7-.7s-.3-.7-.7-.7zm-4-5.4c1.1 0 2 .9 2 2s-.9 2-2 2-2-.9-2-2 .9-2 2-2zm0 2.7c.4 0 .7-.3.7-.7 0-.4-.3-.7-.7-.7-.4 0-.7.3-.7.7 0 .4.3.7.7.7zm-4 1.3c1.1 0 2 .9 2 2s-.9 2-2 2-2-.9-2-2 .9-2 2-2zm0 2.7c.4 0 .7-.3.7-.7s-.3-.7-.7-.7c-.4 0-.7.3-.7.7s.3.7.7.7zm4 5.3c-1.1 0-2-.9-2-2s.9-2 2-2 2 .9 2 2c0 1.2-.9 2-2 2zm0-2.6c-.4 0-.7.3-.7.7s.3.7.7.7c.4 0 .7-.3.7-.7s-.3-.7-.7-.7zm-625.1 72c.2.1.2.3.2.5v25.5c-.1 3.6-3.3 6.4-7.3 6.4s-7.3-2.9-7.3-6.5 3.3-6.5 7.3-6.5c2.4 0 4.5 1 5.8 2.6v-13.3l-21.1 2.7v21.7c0 3.6-3.3 6.5-7.3 6.5s-7.3-2.9-7.3-6.5 3.3-6.5 7.3-6.5c2.4 0 4.5 1 5.8 2.6V322c0-.4.3-.7.6-.7l22.5-2.9c.5-.1.7 0 .8.1zm-29.5 38.4c3.2 0 5.8-2.3 5.8-5.1s-2.6-5.1-5.8-5.1c-3.2 0-5.8 2.3-5.8 5.1-.1 2.8 2.6 5.1 5.8 5.1zm22.5-7.3c3.2 0 5.8-2.3 5.8-5.1s-2.6-5.1-5.8-5.1c-3.2 0-5.8 2.3-5.8 5.1 0 2.9 2.6 5.1 5.8 5.1zm5.8-23.7v-6l-21.1 2.7v6l21.1-2.7zM968.3 38.6c.4 0 .7.3.7.7v30.3c0 .4-.3.7-.7.7h-38.6c-.4 0-.7-.3-.7-.7V39.3c0-.4.3-.7.7-.7h38.6zm-.7 1.4h-37.2v29h37.2V40zm0 28.9"/><path class="st8" d="M940 53.9c-2.1 0-3.8-1.7-3.8-3.8 0-2.1 1.7-3.8 3.8-3.8 2.1 0 3.8 1.7 3.8 3.8 0 2-1.7 3.8-3.8 3.8zm0-6.3c-1.4 0-2.5 1.1-2.5 2.5s1.1 2.5 2.5 2.5 2.5-1.1 2.5-2.5c-.1-1.4-1.2-2.5-2.5-2.5zm-6.2 18.6c-.2 0-.4-.1-.5-.2-.3-.3-.2-.7.1-1l11.7-10.3c.3-.2.7-.2.9 0l3.3 3.3 6.8-7.4c.1-.1.3-.2.5-.2s.4.1.5.2l8.3 7.6c.3.3.3.7 0 1-.3.3-.7.3-1 0l-7.8-7.1-6.3 6.9 3.3 3.3c.3.3.3.7 0 1-.3.3-.7.3-1 0l-7.1-7.1-11.3 9.8c-.1.1-.3.2-.4.2zM655.4 167.6c.2.1.3.3.3.6 0 .2-.1.5-.3.6l-7.6 4.8c-.1.1-.2.1-.4.1-.1 0-.2 0-.3-.1-.2-.1-.4-.4-.4-.6v-9.7c0-.3.1-.5.4-.6.2-.1.5-.1.7 0l7.6 4.9zm-1.6.5l-5.6-3.6v7.1l5.6-3.5zm-5.6 3.6"/><path class="st8" d="M669.5 152.3c.4 0 .7.3.7.7v30.3c0 .4-.3.7-.7.7h-38.6c-.4 0-.7-.3-.7-.7V153c0-.4.3-.7.7-.7h38.6zm-32.4 8.9h-5.5v6.2h5.5v-6.2zm-5.5 13.8h5.5v-6.2h-5.5v6.2zm6.9 7.6H662v-29h-23.4v29zm30.4-21.4h-5.5v6.2h5.5v-6.2zm-5.6 13.8h5.5v-6.2h-5.5v6.2zm0-21.3v6.2h5.5v-6.2h-5.5zm-31.7 6.2h5.5v-6.2h-5.5v6.2zm5.5 22.7v-6.2h-5.5v6.2h5.5zm31.8-6.2h-5.5v6.2h5.5v-6.2zm422.9-111.3c-1.1 0-2-.9-2-2v-2h-2c-1.1 0-2-.9-2-2s.9-2 2-2h2v-2c0-1.1.9-2 2-2s2 .9 2 2v2h2c1.1 0 2 .9 2 2s-.9 2-2 2h-2v2c0 1.1-.9 2-2 2zm-1.4-5.3c.4 0 .7.3.7.7v2.7c0 .4.3.7.7.7.4 0 .7-.3.7-.7v-2.7c0-.4.3-.7.7-.7h2.7c.4 0 .7-.3.7-.7 0-.4-.3-.7-.7-.7h-2.7c-.4 0-.7-.3-.7-.7V55c0-.4-.3-.7-.7-.7-.4 0-.7.3-.7.7v2.7c0 .4-.3.7-.7.7h-2.7c-.4 0-.7.3-.7.7 0 .4.3.7.7.7h2.7zm-2.6 0"/><path class="st8" d="M1111.8 49.1c5.4 0 10 4.6 10 10v10.7c0 2.7-2.5 4.6-4.7 4.6-2.5 0-4-1.6-5.5-3.3-2-2.2-4.3-4.7-9.8-4.7-5.5 0-7.8 2.5-9.8 4.7-1.5 1.7-3 3.3-5.5 3.3-2.2 0-4.7-1.9-4.7-4.7V59.1c0-5.4 4.6-10 10-10h12c.4 0 .7.3.7.7 0 .4-.3.7-.7.7h-12c-4.7 0-8.7 4-8.7 8.7v10.7c0 2.1 1.9 3.3 3.3 3.3 2 0 3.1-1.3 4.6-2.9 2.1-2.3 4.7-5.1 10.8-5.1 6.1 0 8.7 2.9 10.8 5.2 1.5 1.6 2.6 2.8 4.5 2.8 1.4 0 3.3-1.2 3.3-3.3V59.1c0-4.7-4-8.7-8.7-8.7h-5.3c-.4 0-.7-.3-.7-.7V43c0-1.1-.9-2-2-2s-2 .9-2 2c0 1.8-1.5 3.3-3.3 3.3-1.8 0-3.3-1.5-3.3-3.3v-8c0-.4.3-.7.7-.7.4 0 .7.3.7.7v8c0 1.1.9 2 2 2s2-.9 2-2c0-1.8 1.5-3.3 3.3-3.3 1.8 0 3.3 1.5 3.3 3.3v6h4.7v.1zm0 0"/><path class="st8" d="M1115.8 61.1c-1.1 0-2-.9-2-2s.9-2 2-2 2 .9 2 2-.9 2-2 2zm0-2.6c-.4 0-.7.3-.7.7 0 .4.3.7.7.7s.7-.3.7-.7c-.1-.4-.4-.7-.7-.7zm-4-5.4c1.1 0 2 .9 2 2s-.9 2-2 2-2-.9-2-2 .9-2 2-2zm0 2.7c.4 0 .7-.3.7-.7 0-.4-.3-.7-.7-.7-.4 0-.7.3-.7.7 0 .4.3.7.7.7zm-4 1.3c1.1 0 2 .9 2 2s-.9 2-2 2-2-.9-2-2 .9-2 2-2zm0 2.7c.4 0 .7-.3.7-.7 0-.4-.3-.7-.7-.7-.4 0-.7.3-.7.7 0 .4.3.7.7.7zm4 5.3c-1.1 0-2-.9-2-2s.9-2 2-2 2 .9 2 2-.9 2-2 2zm0-2.6c-.4 0-.7.3-.7.7 0 .4.3.7.7.7.4 0 .7-.3.7-.7-.1-.4-.4-.7-.7-.7zm-807.7 41.3c.2.1.2.3.2.5v25.5c-.1 3.6-3.3 6.4-7.3 6.4s-7.3-2.9-7.3-6.5 3.3-6.5 7.3-6.5c2.4 0 4.5 1 5.8 2.6v-13.3l-21.1 2.7v21.7c0 3.6-3.3 6.5-7.3 6.5s-7.3-2.9-7.3-6.5 3.3-6.5 7.3-6.5c2.4 0 4.5 1 5.8 2.6v-25.9c0-.4.3-.7.6-.7l22.5-2.9c.5.1.7.2.8.3zm-29.5 38.4c3.2 0 5.8-2.3 5.8-5.1s-2.6-5.1-5.8-5.1c-3.2 0-5.8 2.3-5.8 5.1-.1 2.8 2.6 5.1 5.8 5.1zm22.5-7.3c3.2 0 5.8-2.3 5.8-5.1s-2.6-5.1-5.8-5.1c-3.2 0-5.8 2.3-5.8 5.1s2.6 5.1 5.8 5.1zm5.8-23.7v-6l-21.1 2.7v6l21.1-2.7zm693.6 195.6c.4 0 .7.3.7.7v30.3c0 .4-.3.7-.7.7h-38.6c-.4 0-.7-.3-.7-.7v-30.3c0-.4.3-.7.7-.7h38.6zm-.6 1.4h-37.2v29h37.2v-29zm0 28.9"/><path class="st8" d="M968.3 322.1c-2.1 0-3.8-1.7-3.8-3.8 0-2.1 1.7-3.8 3.8-3.8 2.1 0 3.8 1.7 3.8 3.8 0 2-1.7 3.8-3.8 3.8zm0-6.3c-1.4 0-2.5 1.1-2.5 2.5s1.1 2.5 2.5 2.5 2.5-1.1 2.5-2.5c-.1-1.4-1.2-2.5-2.5-2.5zm-6.2 18.6c-.2 0-.4-.1-.5-.2-.3-.3-.2-.7.1-1l11.7-10.3c.3-.2.7-.2.9 0l3.3 3.3 6.8-7.4c.1-.1.3-.2.5-.2s.4.1.5.2l8.3 7.6c.3.3.3.7 0 1-.3.3-.7.3-1 0l-7.8-7.1-6.3 6.9 3.3 3.3c.3.3.3.7 0 1-.3.3-.7.3-1 0l-7.1-7.1-11.3 9.9c-.1 0-.3.1-.4.1zM845 416.2c.2.1.3.3.3.6 0 .2-.1.5-.3.6l-7.6 4.8c-.1.1-.2.1-.4.1-.1 0-.2 0-.3-.1-.2-.1-.4-.4-.4-.6v-9.7c0-.3.1-.5.4-.6.2-.1.5-.1.7 0l7.6 4.9zm-1.7.5l-5.6-3.6v7.1l5.6-3.5zm-5.6 3.6"/><path class="st8" d="M859.1 400.9c.4 0 .7.3.7.7v30.3c0 .4-.3.7-.7.7h-38.6c-.4 0-.7-.3-.7-.7v-30.3c0-.4.3-.7.7-.7h38.6zm-32.4 8.9h-5.5v6.2h5.5v-6.2zm-5.5 13.8h5.5v-6.2h-5.5v6.2zm6.9 7.6h23.4v-29h-23.4v29zm30.3-21.4h-5.5v6.2h5.5v-6.2zm-5.5 13.8h5.5v-6.2h-5.5v6.2zm0-21.3v6.2h5.5v-6.2h-5.5zm-31.7 6.2h5.5v-6.2h-5.5v6.2zm5.5 22.7V425h-5.5v6.2h5.5zm31.7-6.2h-5.5v6.2h5.5V425zM27.5 199c-1.1 0-2-.9-2-2v-2h-2c-1.1 0-2-.9-2-2s.9-2 2-2h2v-2c0-1.1.9-2 2-2s2 .9 2 2v2h2c1.1 0 2 .9 2 2s-.9 2-2 2h-2v2c0 1.1-.9 2-2 2zm-1.4-5.3c.4 0 .7.3.7.7v2.7c0 .4.3.7.7.7.4 0 .7-.3.7-.7v-2.7c0-.4.3-.7.7-.7h2.7c.4 0 .7-.3.7-.7s-.3-.7-.7-.7h-2.7c-.4 0-.7-.3-.7-.7V189c0-.4-.3-.7-.7-.7-.4 0-.7.3-.7.7v2.7c0 .4-.3.7-.7.7h-2.7c-.4 0-.7.3-.7.7s.3.7.7.7h2.7zm-2.6 0"/><path class="st8" d="M47.5 183c5.4 0 10 4.6 10 10v10.7c0 2.7-2.5 4.6-4.7 4.6-2.5 0-4-1.6-5.5-3.3-2-2.2-4.3-4.7-9.8-4.7-5.5 0-7.8 2.5-9.8 4.7-1.5 1.7-3 3.3-5.5 3.3-2.2 0-4.7-1.9-4.7-4.7V193c0-5.4 4.6-10 10-10h12c.4 0 .7.3.7.7 0 .4-.3.7-.7.7h-12c-4.7 0-8.7 4-8.7 8.7v10.7c0 2.1 1.9 3.3 3.3 3.3 2 0 3.1-1.3 4.6-2.9 2.1-2.3 4.7-5.1 10.8-5.1 6.1 0 8.7 2.9 10.8 5.2 1.5 1.6 2.6 2.8 4.5 2.8 1.4 0 3.3-1.2 3.3-3.3V193c0-4.7-4-8.7-8.7-8.7h-5.3c-.4 0-.7-.3-.7-.7V177c0-1.1-.9-2-2-2s-2 .9-2 2c0 1.8-1.5 3.3-3.3 3.3-1.8 0-3.3-1.5-3.3-3.3v-8c0-.4.3-.7.7-.7.4 0 .7.3.7.7v8c0 1.1.9 2 2 2s2-.9 2-2c0-1.8 1.5-3.3 3.3-3.3 1.8 0 3.3 1.5 3.3 3.3v6h4.7zm0 0"/><path class="st8" d="M51.5 195c-1.1 0-2-.9-2-2s.9-2 2-2 2 .9 2 2-.9 2-2 2zm0-2.6c-.4 0-.7.3-.7.7s.3.7.7.7c.4 0 .7-.3.7-.7s-.4-.7-.7-.7zm-4-5.4c1.1 0 2 .9 2 2s-.9 2-2 2-2-.9-2-2 .9-2 2-2zm0 2.7c.4 0 .7-.3.7-.7 0-.4-.3-.7-.7-.7-.4 0-.7.3-.7.7 0 .4.3.7.7.7zm-4 1.3c1.1 0 2 .9 2 2s-.9 2-2 2-2-.9-2-2 .9-2 2-2zm0 2.7c.4 0 .7-.3.7-.7s-.3-.7-.7-.7c-.4 0-.7.3-.7.7s.3.7.7.7zm4 5.3c-1.1 0-2-.9-2-2s.9-2 2-2 2 .9 2 2-.9 2-2 2zm0-2.6c-.4 0-.7.3-.7.7s.3.7.7.7c.4 0 .7-.3.7-.7s-.4-.7-.7-.7zm535.1 464.1c.2.1.2.3.2.5v25.5c-.1 3.6-3.3 6.4-7.3 6.4s-7.3-2.9-7.3-6.5 3.3-6.5 7.3-6.5c2.4 0 4.5 1 5.8 2.6v-13.3l-21.1 2.7v21.7c0 3.6-3.3 6.5-7.3 6.5s-7.3-2.9-7.3-6.5 3.3-6.5 7.3-6.5c2.4 0 4.5 1 5.8 2.6V664c0-.4.3-.7.6-.7l22.5-2.9c.4-.1.6 0 .8.1zM553 698.9c3.2 0 5.8-2.3 5.8-5.1s-2.6-5.1-5.8-5.1c-3.2 0-5.8 2.3-5.8 5.1s2.6 5.1 5.8 5.1zm22.5-7.3c3.2 0 5.8-2.3 5.8-5.1s-2.6-5.1-5.8-5.1c-3.2 0-5.8 2.3-5.8 5.1s2.6 5.1 5.8 5.1zm5.8-23.7v-6l-21.1 2.7v6l21.1-2.7zM410.6 480.1c.4 0 .7.3.7.7v30.3c0 .4-.3.7-.7.7H372c-.4 0-.7-.3-.7-.7v-30.3c0-.4.3-.7.7-.7h38.6zm-.7 1.4h-37.2v29h37.2v-29zm0 29"/><path class="st8" d="M382.3 495.4c-2.1 0-3.8-1.7-3.8-3.8 0-2.1 1.7-3.8 3.8-3.8 2.1 0 3.8 1.7 3.8 3.8 0 2.1-1.7 3.8-3.8 3.8zm0-6.3c-1.4 0-2.5 1.1-2.5 2.5s1.1 2.5 2.5 2.5 2.5-1.1 2.5-2.5-1.1-2.5-2.5-2.5zm-6.2 18.6c-.2 0-.4-.1-.5-.2-.3-.3-.2-.7.1-1l11.7-10.3c.3-.2.7-.2.9 0l3.3 3.3 6.8-7.4c.1-.1.3-.2.5-.2s.4.1.5.2l8.3 7.6c.3.3.3.7 0 1-.3.3-.7.3-1 0l-7.8-7.1-6.3 6.9 3.3 3.3c.3.3.3.7 0 1-.3.3-.7.3-1 0l-7.1-7.1-11.3 9.9c-.1 0-.3.1-.4.1zm704.4-168.8c.2.1.3.3.3.6 0 .2-.1.5-.3.6l-7.6 4.8c-.1.1-.2.1-.4.1-.1 0-.2 0-.3-.1-.2-.1-.4-.4-.4-.6v-9.7c0-.3.1-.5.4-.6.2-.1.5-.1.7 0l7.6 4.9zm-1.7.6l-5.6-3.6v7.1l5.6-3.5zm-5.6 3.5"/><path class="st8" d="M1094.6 323.6c.4 0 .7.3.7.7v30.3c0 .4-.3.7-.7.7H1056c-.4 0-.7-.3-.7-.7v-30.3c0-.4.3-.7.7-.7h38.6zm-32.4 9h-5.5v6.2h5.5v-6.2zm-5.5 13.7h5.5v-6.2h-5.5v6.2zm6.9 7.6h23.4v-29h-23.4v29zm30.3-21.3h-5.5v6.2h5.5v-6.2zm-5.5 13.7h5.5v-6.2h-5.5v6.2zm0-21.3v6.2h5.5V325h-5.5zm-31.7 6.2h5.5V325h-5.5v6.2zm5.5 22.7v-6.2h-5.5v6.2h5.5zm31.7-6.2h-5.5v6.2h5.5v-6.2zM203.3 498c-1.1 0-2-.9-2-2v-2h-2c-1.1 0-2-.9-2-2s.9-2 2-2h2v-2c0-1.1.9-2 2-2s2 .9 2 2v2h2c1.1 0 2 .9 2 2s-.9 2-2 2h-2v2c0 1.1-.9 2-2 2zm-1.3-5.4c.4 0 .7.3.7.7v2.7c0 .4.3.7.7.7.4 0 .7-.3.7-.7v-2.7c0-.4.3-.7.7-.7h2.7c.4 0 .7-.3.7-.7 0-.4-.3-.7-.7-.7h-2.7c-.4 0-.7-.3-.7-.7V488c0-.4-.3-.7-.7-.7-.4 0-.7.3-.7.7v2.7c0 .4-.3.7-.7.7h-2.7c-.4 0-.7.3-.7.7 0 .4.3.7.7.7h2.7zm-2.7 0"/><path class="st8" d="M223.3 482c5.4 0 10 4.6 10 10v10.7c0 2.7-2.5 4.6-4.7 4.6-2.5 0-4-1.6-5.5-3.3-2-2.2-4.3-4.7-9.8-4.7-5.5 0-7.8 2.5-9.8 4.7-1.5 1.7-3 3.3-5.5 3.3-2.2 0-4.7-1.9-4.7-4.7V492c0-5.4 4.6-10 10-10h12c.4 0 .7.3.7.7 0 .4-.3.7-.7.7h-12c-4.7 0-8.7 4-8.7 8.7v10.7c0 2.1 1.9 3.3 3.3 3.3 2 0 3.1-1.3 4.6-2.9 2.1-2.3 4.7-5.1 10.8-5.1 6.1 0 8.7 2.9 10.8 5.2 1.5 1.6 2.6 2.8 4.5 2.8 1.4 0 3.3-1.2 3.3-3.3V492c0-4.7-4-8.7-8.7-8.7H218c-.4 0-.7-.3-.7-.7V476c0-1.1-.9-2-2-2s-2 .9-2 2c0 1.8-1.5 3.3-3.3 3.3-1.8 0-3.3-1.5-3.3-3.3v-8c0-.4.3-.7.7-.7.4 0 .7.3.7.7v8c0 1.1.9 2 2 2s2-.9 2-2c0-1.8 1.5-3.3 3.3-3.3 1.8 0 3.3 1.5 3.3 3.3v6h4.6zm0 0"/><path class="st8" d="M227.3 494c-1.1 0-2-.9-2-2s.9-2 2-2 2 .9 2 2-.9 2-2 2zm0-2.7c-.4 0-.7.3-.7.7 0 .4.3.7.7.7.4 0 .7-.3.7-.7 0-.4-.3-.7-.7-.7zm-4-5.3c1.1 0 2 .9 2 2s-.9 2-2 2-2-.9-2-2 .9-2 2-2zm0 2.6c.4 0 .7-.3.7-.7 0-.4-.3-.7-.7-.7-.4 0-.7.3-.7.7.1.4.4.7.7.7zm-4 1.4c1.1 0 2 .9 2 2s-.9 2-2 2-2-.9-2-2 .9-2 2-2zm0 2.6c.4 0 .7-.3.7-.7 0-.4-.3-.7-.7-.7-.4 0-.7.3-.7.7.1.4.4.7.7.7zm4 5.4c-1.1 0-2-.9-2-2s.9-2 2-2 2 .9 2 2-.9 2-2 2zm0-2.7c-.4 0-.7.3-.7.7s.3.7.7.7c.4 0 .7-.3.7-.7s-.3-.7-.7-.7zm1056.3-1.4c.2.1.2.3.2.5v25.5c-.1 3.6-3.3 6.4-7.3 6.4s-7.3-2.9-7.3-6.5 3.3-6.5 7.3-6.5c2.4 0 4.5 1 5.8 2.6v-13.3l-21.1 2.7V527c0 3.6-3.3 6.5-7.3 6.5s-7.3-2.9-7.3-6.5 3.3-6.5 7.3-6.5c2.4 0 4.5 1 5.8 2.6v-25.9c0-.4.3-.7.6-.7l22.5-2.9c.4.1.6.1.8.3zm-29.6 38.3c3.2 0 5.8-2.3 5.8-5.1s-2.6-5.1-5.8-5.1c-3.2 0-5.8 2.3-5.8 5.1 0 2.9 2.6 5.1 5.8 5.1zm22.5-7.2c3.2 0 5.8-2.3 5.8-5.1s-2.6-5.1-5.8-5.1c-3.2 0-5.8 2.3-5.8 5.1s2.6 5.1 5.8 5.1zm5.9-23.8v-6l-21.1 2.7v6l21.1-2.7zm-21.1 2.7"/></svg>